<?xml version="1.0" standalone="no"?>
<!DOCTYPE svg PUBLIC "-//W3C//DTD SVG 1.1//EN" "http://www.w3.org/Graphics/SVG/1.1/DTD/svg11.dtd" >
<svg xmlns="http://www.w3.org/2000/svg" xmlns:xlink="http://www.w3.org/1999/xlink" version="1.1">
<metadata>
Created by FontForge 20200427 at Tue Jan  5 23:09:52 2016
 By www
Copyright (c) 2015 by 29Letters. All rights reserved.
</metadata>
<defs>
<font id="29LTZeyn-Light" horiz-adv-x="0" >
  <font-face 
    font-family="29LT Zeyn Light"
    font-weight="300"
    font-stretch="normal"
    units-per-em="1000"
    panose-1="0 0 4 0 0 0 0 0 0 0"
    ascent="770"
    descent="-230"
    x-height="364"
    cap-height="574"
    bbox="-201 -389 1689 849"
    underline-thickness="10"
    underline-position="-180"
    unicode-range="U+0020-FEFC"
  />
<missing-glyph horiz-adv-x="200" 
 />
    <glyph glyph-name="fi" unicode="fi" horiz-adv-x="412" 
d="M79 11v320h-63v7q27 4 45 19.5t18 40.5q0 100 40.5 164.5t119.5 64.5q16 0 31 -5l11 -22q5 9 13.5 14.5t18.5 5.5q15 0 25.5 -10.5t10.5 -25.5t-10.5 -25.5t-25.5 -10.5q-11 0 -19.5 5.5t-18.5 16.5q-16 16 -30.5 24.5t-39.5 8.5q-27 0 -50.5 -17.5t-37.5 -49.5t-14 -72
q0 -42 24 -100h211v-353l46 -3v-8h-139v8l47 3v320h-167v-320l68 -3v-8h-161v8z" />
    <glyph glyph-name="fl" unicode="fl" horiz-adv-x="412" 
d="M32 8l47 3v320h-63v7q27 4 45 19.5t18 40.5q0 103 42.5 166t134.5 63q21 0 39 -5l11 -22l30 29h2v-618l46 -3v-8h-139v8l47 3v320h-167v-320l68 -3v-8h-161v8zM292 571q-30 32 -76 32q-47 0 -80 -39t-33 -100q0 -42 24 -100h165v207z" />
    <glyph glyph-name="uniFEF5" unicode="&#xfedf;&#xfe82;" horiz-adv-x="455" arabic-form="isolated" 
d="M362.5 149q37.5 -57 37.5 -69q0 -10 -5 -30t-10 -31q-33 -13 -119.5 -21t-181.5 -8q-8 22 -18 37l2 3h16q64 60 109 107.5t75 91.5q-96 119 -228 228q6 23 8 41l3 2q55 -45 121.5 -114.5t113.5 -128.5q36 63 36 117q-3 107 -6 164t-12 151q20 6 48 24h3v-315
q0 -71 -58 -155q28 -37 65.5 -94zM127 571.5q-13 5.5 -30 17.5q-27 16 -33 19l-57 -46l-5 6q43 37 58 47.5t30 10.5q10 0 19.5 -4.5t11.5 -5.5q9 -5 20 -9t22 -4q47 0 96 32l8 -10q-36 -31 -62 -45t-48 -14q-17 0 -30 5.5zM257 36.5q60 5.5 124 20.5q-36 75 -103 160
q-31 -41 -73.5 -84t-107.5 -103q100 1 160 6.5z" />
    <glyph glyph-name="uniFEF6" unicode="&#xfee0;&#xfe82;" horiz-adv-x="538" arabic-form="final" 
d="M548 22v-23q0 -9 -8 -9q-32 0 -59.5 5.5t-41.5 14.5q-3 3 -13.5 21t-10.5 23q-7 147 -17 414q-20 -167 -59.5 -295.5t-95.5 -151.5q-29 -12 -95 -20.5t-131 -10.5q0 6 -2 16q101 17 152.5 31.5t87.5 44.5q-52 125 -97 207t-110 162q14 19 25 47l3 1q126 -198 181 -342
q-3 -19 -3 -33t6 -38q16 15 31 34q21 28 43.5 96t39.5 156.5t20 172.5l-6 133q20 6 48 24h3v-651q16 -10 43.5 -15.5t57.5 -5.5q8 0 8 -8zM53 553l-5 6q43 37 58 47.5t30 10.5q10 0 19.5 -4.5t11.5 -5.5q9 -5 20 -9t22 -4q47 0 96 32l8 -10q-36 -31 -62 -45t-48 -14
q-17 0 -30 5.5t-30 17.5q-27 16 -33 19z" />
    <glyph glyph-name="uniFEF7" unicode="&#xfedf;&#xfe84;" horiz-adv-x="455" arabic-form="isolated" 
d="M79 569q18 13 60 31q-20 7 -34.5 21.5t-14.5 28.5q0 19 13.5 37t33.5 29t37 11q36 0 36 -43q0 -18 -11 -69l32 8l1 -3q-12 -19 -20 -46q-16 -2 -23 -4q-2 -6 -7 -33l-8 1l6 31q-55 -9 -100 -29zM362.5 149q37.5 -57 37.5 -69q0 -10 -5 -30t-10 -31q-33 -13 -119.5 -21
t-181.5 -8q-8 22 -18 37l2 3h16q64 60 109 107.5t75 91.5q-96 119 -228 228q6 23 8 41l3 2q55 -45 121.5 -114.5t113.5 -128.5q36 63 36 117q-3 107 -6 164t-12 151q20 6 48 24h3v-315q0 -71 -58 -155q28 -37 65.5 -94zM155 609q17 0 34 4q10 45 10 58q0 18 -17 18
q-21 0 -42.5 -13t-38.5 -36q25 -31 54 -31zM257 36.5q60 5.5 124 20.5q-36 75 -103 160q-31 -41 -73.5 -84t-107.5 -103q100 1 160 6.5z" />
    <glyph glyph-name="uniFEF8" unicode="&#xfee0;&#xfe84;" horiz-adv-x="538" arabic-form="final" 
d="M140 552q18 13 60 31q-20 7 -34.5 21.5t-14.5 28.5q0 19 13.5 37t33.5 29t37 11q36 0 36 -43q0 -18 -11 -69l32 8l1 -3q-12 -19 -20 -46q-16 -2 -23 -4q-1 -6 -7 -33l-8 1l6 31q-55 -9 -100 -29zM548 22v-23q0 -9 -8 -9q-32 0 -59.5 5.5t-41.5 14.5q-3 3 -13.5 21
t-10.5 23q-7 147 -17 414q-20 -167 -59.5 -295.5t-95.5 -151.5q-29 -12 -95 -20.5t-131 -10.5q0 6 -2 16q101 17 152.5 31.5t87.5 44.5q-52 125 -97 207t-110 162q14 19 25 47l3 1q126 -198 181 -342q-3 -19 -3 -33t6 -38q16 15 31 34q21 28 43.5 96t39.5 156.5t20 172.5
l-6 133q20 6 48 24h3v-651q16 -10 43.5 -15.5t57.5 -5.5q8 0 8 -8zM216 592q17 0 34 4q10 45 10 58q0 18 -17 18q-21 0 -42.5 -13t-38.5 -36q25 -31 54 -31z" />
    <glyph glyph-name="uniFEF9" unicode="&#xfedf;&#xfe88;" horiz-adv-x="455" arabic-form="isolated" 
d="M362.5 149q37.5 -57 37.5 -69q0 -10 -5 -30t-10 -31q-33 -13 -119.5 -21t-181.5 -8q-8 22 -18 37l2 3h16q64 60 109 107.5t75 91.5q-96 119 -228 228q6 23 8 41l3 2q55 -45 121.5 -114.5t113.5 -128.5q36 63 36 117q-3 107 -6 164t-12 151q20 6 48 24h3v-315
q0 -71 -58 -155q28 -37 65.5 -94zM257 36.5q60 5.5 124 20.5q-36 75 -103 160q-31 -41 -73.5 -84t-107.5 -103q100 1 160 6.5zM342 -198q-16 -2 -23 -4q-1 -5 -7 -33l-8 1l6 31q-55 -9 -100 -29l-1 29q18 13 60 31q-20 7 -34.5 21.5t-14.5 28.5q0 19 13.5 37t33.5 29t37 11
q36 0 36 -43q0 -18 -11 -69l32 8l1 -3q-12 -19 -20 -46zM319 -159q10 45 10 58q0 18 -17 18q-21 0 -42.5 -13t-38.5 -36q25 -31 54 -31q17 0 34 4z" />
    <glyph glyph-name="uniFEFA" unicode="&#xfee0;&#xfe88;" horiz-adv-x="538" arabic-form="final" 
d="M548 22v-23q0 -9 -8 -9q-32 0 -59.5 5.5t-41.5 14.5q-3 3 -13.5 21t-10.5 23q-7 147 -17 414q-20 -167 -59.5 -295.5t-95.5 -151.5q-29 -12 -95 -20.5t-131 -10.5q0 6 -2 16q101 17 152.5 31.5t87.5 44.5q-52 125 -97 207t-110 162q14 19 25 47l3 1q126 -198 181 -342
q-3 -19 -3 -33t6 -38q16 15 31 34q21 28 43.5 96t39.5 156.5t20 172.5l-6 133q20 6 48 24h3v-651q16 -10 43.5 -15.5t57.5 -5.5q8 0 8 -8zM374 -177q-16 -2 -23 -4q-1 -5 -7 -33l-8 1l6 31q-55 -9 -100 -29l-1 29q18 13 60 31q-20 7 -34.5 21.5t-14.5 28.5q0 19 13.5 37
t33.5 29t37 11q36 0 36 -43q0 -18 -11 -69l32 8l1 -3q-12 -19 -20 -46zM351 -138q10 45 10 58q0 18 -17 18q-21 0 -42.5 -13t-38.5 -36q25 -31 54 -31q17 0 34 4z" />
    <glyph glyph-name="uniFEFB" unicode="&#xfedf;&#xfe8e;" horiz-adv-x="455" arabic-form="isolated" 
d="M362.5 149q37.5 -57 37.5 -69q0 -10 -5 -30t-10 -31q-33 -13 -119.5 -21t-181.5 -8q-8 22 -18 37l2 3h16q64 60 109 107.5t75 91.5q-96 119 -228 228q6 23 8 41l3 2q55 -45 121.5 -114.5t113.5 -128.5q36 63 36 117q-3 107 -6 164t-12 151q20 6 48 24h3v-315
q0 -71 -58 -155q28 -37 65.5 -94zM257 36.5q60 5.5 124 20.5q-36 75 -103 160q-31 -41 -73.5 -84t-107.5 -103q100 1 160 6.5z" />
    <glyph glyph-name="uniFEFC" unicode="&#xfee0;&#xfe8e;" horiz-adv-x="538" arabic-form="final" 
d="M548 22v-23q0 -9 -8 -9q-32 0 -59.5 5.5t-41.5 14.5q-3 3 -13.5 21t-10.5 23q-7 147 -17 414q-20 -167 -59.5 -295.5t-95.5 -151.5q-29 -12 -95 -20.5t-131 -10.5q0 6 -2 16q101 17 152.5 31.5t87.5 44.5q-52 125 -97 207t-110 162q14 19 25 47l3 1q126 -198 181 -342
q-3 -19 -3 -33t6 -38q16 15 31 34q21 28 43.5 96t39.5 156.5t20 172.5l-6 133q20 6 48 24h3v-651q16 -10 43.5 -15.5t57.5 -5.5q8 0 8 -8z" />
    <glyph glyph-name="uni06310625" unicode="&#x631;&#x625;" horiz-adv-x="444" 
d="M374 736v-637q-12 -21 -15 -44t-3 -92h-9q-3 235 -8 413.5t-16 335.5q20 6 48 24h3zM192 143q21 -60 21 -108q0 -54 -20.5 -105.5t-55.5 -89.5q19 -9 19 -40q0 -18 -11 -69l32 8l1 -3q-12 -19 -20 -46q-16 -2 -23 -4q-2 -5 -7 -33l-8 1l6 31q-55 -9 -100 -29l-1 29
q18 13 60 31q-20 7 -34.5 21.5t-14.5 28.5v7l-9 -3q-101 57 -116 66l-31 18l4 8q46 -26 72 -36.5t56 -10.5q29 0 67.5 25t71.5 73t46 112q-22 67 -42.5 112t-60.5 114q21 20 34 40h4q39 -88 60 -148zM128 -195q-21 0 -42.5 -13t-38.5 -36q25 -31 54 -31q17 0 34 4
q10 45 10 58q0 18 -17 18z" />
    <glyph glyph-name="uni06310625.fina" unicode="&#xfeae;&#x625;" horiz-adv-x="479" 
d="M76 -37q-3 235 -8 413.5t-16 335.5q20 6 48 24h3v-637q-12 -21 -15 -44t-3 -92h-9zM489 22v-23q0 -9 -9 -9q-21 0 -40.5 4t-50.5 13q-20 -67 -67 -117t-107 -66q-101 57 -116 66l-31 18l4 8q46 -26 72 -36.5t56 -10.5q29 0 67.5 25t71.5 73t46 112q-22 67 -42.5 112
t-60.5 114q21 20 34 40h4q39 -88 60 -148t21 -108q0 -28 -4 -48q33 -11 83 -11q9 0 9 -8zM177 -261l1 -3q-12 -19 -20 -46q-16 -2 -23 -4q-2 -5 -7 -33l-8 1l6 31q-55 -9 -100 -29l-1 29q18 13 60 31q-20 7 -34.5 21.5t-14.5 28.5q0 19 13.5 37t33.5 29t37 11q36 0 36 -43
q0 -18 -11 -69zM135 -271q10 45 10 58q0 18 -17 18q-21 0 -42.5 -13t-38.5 -36q25 -31 54 -31q17 0 34 4z" />
    <glyph glyph-name="uni06320625" unicode="&#x632;&#x625;" horiz-adv-x="444" 
d="M374 736v-637q-12 -21 -15 -44t-3 -92h-9q-4 355 -13 561q-5 -9 -23 -36q-28 20 -55 36l18 30q11 19 13 22l3 1q34 -18 42 -27q-3 83 -9 162q20 6 48 24h3zM192 143q21 -60 21 -108q0 -54 -20.5 -105.5t-55.5 -89.5q19 -9 19 -40q0 -18 -11 -69l32 8l1 -3
q-12 -19 -20 -46q-16 -2 -23 -4q-2 -5 -7 -33l-8 1l6 31q-55 -9 -100 -29l-1 29q18 13 60 31q-20 7 -34.5 21.5t-14.5 28.5v7l-9 -3q-101 57 -116 66l-31 18l4 8q46 -26 72 -36.5t56 -10.5q29 0 67.5 25t71.5 73t46 112q-22 67 -42.5 112t-60.5 114q21 20 34 40h4
q39 -88 60 -148zM128 -195q-21 0 -42.5 -13t-38.5 -36q25 -31 54 -31q17 0 34 4q10 45 10 58q0 18 -17 18z" />
    <glyph glyph-name="uni06320625.fina" unicode="&#xfeb0;&#x625;" horiz-adv-x="480" 
d="M76 -37q-3 235 -8 413.5t-16 335.5q20 6 48 24h3v-637q-12 -21 -15 -44t-3 -92h-9zM311 488q-28 20 -55 36l18 30q11 19 13 22l3 1q29 -16 38.5 -23.5t9.5 -16.5q0 -8 -27 -49zM490 22v-23q0 -9 -9 -9q-21 0 -41 4t-51 13q-20 -67 -67 -117t-107 -66q-101 57 -116 66
l-31 18l4 8q46 -26 72 -36.5t56 -10.5q29 0 67.5 25t71.5 73t46 112q-22 67 -42.5 112t-60.5 114q21 20 34 40h4q39 -88 60 -148t21 -108q0 -27 -4 -48q34 -11 84 -11q9 0 9 -8zM177 -261l1 -3q-12 -19 -20 -46q-16 -2 -23 -4q-2 -5 -7 -33l-8 1l6 31q-55 -9 -100 -29l-1 29
q18 13 60 31q-20 7 -34.5 21.5t-14.5 28.5q0 19 13.5 37t33.5 29t37 11q36 0 36 -43q0 -18 -11 -69zM135 -271q10 45 10 58q0 18 -17 18q-21 0 -42.5 -13t-38.5 -36q25 -31 54 -31q17 0 34 4z" />
    <glyph glyph-name="uni06910625" unicode="&#x691;&#x625;" horiz-adv-x="517" 
d="M438 596q24 -27 24 -55q0 -13 -4 -28.5t-10 -26.5q-43 -27 -95 -27q-35 0 -64 8q-22 20 -35.5 29t-45.5 25l1 6q40 -15 54 -19l24 26q-9 86 -29 162q27 8 40 14h2l6 -103q0 -8 -4 -23q-5 -21 -8 -43q34 35 61.5 58.5t33.5 23.5q25 0 49 -27zM398.5 500.5
q21.5 4.5 44.5 14.5q-5 27 -26 47t-39 20q-16 0 -39.5 -17.5t-64.5 -59.5q33 -9 74 -9q29 0 50.5 4.5zM133 99q-12 -21 -15 -44t-3 -92h-9q-3 235 -8 413.5t-16 335.5q20 6 48 24h3v-637zM188 -310q-16 -2 -23 -4q-1 -5 -7 -33l-8 1l6 31q-55 -9 -100 -29l-1 29q18 13 60 31
q-20 7 -34.5 21.5t-14.5 28.5q0 19 13.5 37t33.5 29t37 11q36 0 36 -43q0 -18 -11 -69l32 8l1 -3q-12 -19 -20 -46zM165 -271q10 45 10 58q0 18 -17 18q-21 0 -42.5 -13t-38.5 -36q25 -31 54 -31q17 0 34 4zM174 -120.5q26 -10.5 56 -10.5q29 0 67.5 25t71.5 73t46 112
q-22 67 -42.5 112t-60.5 114q21 20 34 40h4q39 -88 60 -148t21 -108q0 -61 -25 -116.5t-67.5 -95t-93.5 -53.5q-101 57 -116 66l-31 18l4 8q46 -26 72 -36.5z" />
    <glyph glyph-name="uni06910625.fina" unicode="&#xfb8d;&#x625;" horiz-adv-x="479" 
d="M76 -37q-3 235 -8 413.5t-16 335.5q20 6 48 24h3v-637q-12 -21 -15 -44t-3 -92h-9zM257 463q-22 20 -35.5 29t-45.5 25l1 6q40 -15 54 -19l24 26q-9 86 -29 162q27 8 40 14h2l6 -103q0 -8 -4 -23q-5 -21 -8 -43q34 35 61.5 58.5t33.5 23.5q25 0 49 -27t24 -55
q0 -13 -4 -28.5t-10 -26.5q-43 -27 -95 -27q-35 0 -64 8zM306.5 560.5q-23.5 -17.5 -64.5 -59.5q33 -9 74 -9q29 0 50.5 4.5t44.5 14.5q-5 27 -26 47t-39 20q-16 0 -39.5 -17.5zM489 22v-23q0 -9 -9 -9q-21 0 -40.5 4t-50.5 13q-20 -67 -67 -117t-107 -66q-101 57 -116 66
l-31 18l4 8q46 -26 72 -36.5t56 -10.5q29 0 67.5 25t71.5 73t46 112q-22 67 -42.5 112t-60.5 114q21 20 34 40h4q39 -88 60 -148t21 -108q0 -28 -4 -48q33 -11 83 -11q9 0 9 -8zM177 -261l1 -3q-12 -19 -20 -46q-16 -2 -23 -4q-2 -5 -7 -33l-8 1l6 31q-55 -9 -100 -29l-1 29
q18 13 60 31q-20 7 -34.5 21.5t-14.5 28.5q0 19 13.5 37t33.5 29t37 11q36 0 36 -43q0 -18 -11 -69zM135 -271q10 45 10 58q0 18 -17 18q-21 0 -42.5 -13t-38.5 -36q25 -31 54 -31q17 0 34 4z" />
    <glyph glyph-name="uni06980625" unicode="&#x698;&#x625;" horiz-adv-x="444" 
d="M404 485l-30 21v-407q-12 -21 -15 -44t-3 -92h-9q-3 375 -16 613q-18 14 -45 32l30 48l3 1l8 -5l-4 60q20 6 48 24h3v-173l6 10l3 1q29 -16 38.5 -23.5t9.5 -16.5q0 -8 -27 -49zM295.5 550.5q9.5 -7.5 9.5 -16.5q0 -8 -27 -49q-28 20 -55 36l18 30q11 19 13 22l3 1
q29 -16 38.5 -23.5zM192 143q21 -60 21 -108q0 -54 -20 -104.5t-54 -88.5q4 1 11 1q36 0 36 -43q0 -18 -11 -69l32 8l1 -3q-12 -19 -20 -46q-16 -2 -23 -4q-2 -5 -7 -33l-8 1l6 31q-55 -9 -100 -29l-1 29q18 13 60 31q-20 7 -34.5 21.5t-14.5 28.5q0 9 4 21q-20 -11 -43 -17
q-101 57 -116 66l-31 18l4 8q46 -26 72 -36.5t56 -10.5q29 0 67.5 25t71.5 73t46 112q-22 67 -42.5 112t-60.5 114q21 20 34 40h4q39 -88 60 -148zM115.5 -208q-21.5 -13 -38.5 -36q25 -31 54 -31q17 0 34 4q10 45 10 58q0 18 -17 18q-21 0 -42.5 -13z" />
    <glyph glyph-name="uni06980625.fina" unicode="&#xfb8b;&#x625;" horiz-adv-x="479" 
d="M76 -37q-3 235 -8 413.5t-16 335.5q20 6 48 24h3v-637q-12 -21 -15 -44t-3 -92h-9zM322 594q-12 -17 -15 -22q-26 20 -51 36l30 48l3 1q28 -16 37 -23t8 -16q0 -7 -12 -24zM248 485q-28 20 -55 36l18 30q11 19 13 22l3 1q29 -16 38.5 -23.5t9.5 -16.5q0 -8 -27 -49z
M319 521l18 30q11 19 13 22l3 1q29 -16 38.5 -23.5t9.5 -16.5q0 -8 -27 -49q-28 20 -55 36zM489 22v-23q0 -9 -9 -9q-21 0 -40.5 4t-50.5 13q-20 -67 -67 -117t-107 -66q-101 57 -116 66l-31 18l4 8q46 -26 72 -36.5t56 -10.5q29 0 67.5 25t71.5 73t46 112q-22 67 -42.5 112
t-60.5 114q21 20 34 40h4q39 -88 60 -148t21 -108q0 -28 -4 -48q33 -11 83 -11q9 0 9 -8zM177 -261l1 -3q-12 -19 -20 -46q-16 -2 -23 -4q-2 -5 -7 -33l-8 1l6 31q-55 -9 -100 -29l-1 29q18 13 60 31q-20 7 -34.5 21.5t-14.5 28.5q0 19 13.5 37t33.5 29t37 11q36 0 36 -43
q0 -18 -11 -69zM135 -271q10 45 10 58q0 18 -17 18q-21 0 -42.5 -13t-38.5 -36q25 -31 54 -31q17 0 34 4z" />
    <glyph glyph-name="uni06440671" unicode="&#xfedf;&#xfb51;" horiz-adv-x="455" 
d="M362.5 149q37.5 -57 37.5 -69q0 -10 -5 -30t-10 -31q-33 -13 -119.5 -21t-181.5 -8q-8 22 -18 37l2 3h16q64 60 109 107.5t75 91.5q-96 119 -228 228q6 23 8 41l3 2q55 -45 121.5 -114.5t113.5 -128.5q36 63 36 117q-3 107 -6 164t-12 151q20 6 48 24h3v-315
q0 -71 -58 -155q28 -37 65.5 -94zM108.5 558.5q-21.5 9.5 -50.5 28.5q-7 -7 -19 -21l-17 -20l-6 5q28 36 40 47t26 11q5 0 17 -4q29 30 53 50.5t29 20.5q20 0 38.5 -19t18.5 -47q0 -18 -9 -38q-31 -23 -75 -23q-24 0 -45.5 9.5zM143.5 630.5q-13.5 -7.5 -36.5 -28.5
q17 -8 29 -12t28 -4q30 0 56 11q-6 20 -18.5 30.5t-28.5 10.5t-29.5 -7.5zM257 36.5q60 5.5 124 20.5q-36 75 -103 160q-31 -41 -73.5 -84t-107.5 -103q100 1 160 6.5z" />
    <glyph glyph-name="uni06440671.fina" unicode="&#xfee0;&#xfb51;" horiz-adv-x="538" 
d="M548 22v-23q0 -9 -8 -9q-32 0 -59.5 5.5t-41.5 14.5q-3 3 -13.5 21t-10.5 23q-7 147 -17 414q-20 -167 -59.5 -295.5t-95.5 -151.5q-29 -12 -95 -20.5t-131 -10.5q0 6 -2 16q101 17 152.5 31.5t87.5 44.5q-52 125 -97 207t-110 162q14 19 25 47l3 1q126 -198 181 -342
q-3 -19 -3 -33t6 -38q16 15 31 34q21 28 43.5 96t39.5 156.5t20 172.5l-6 133q20 6 48 24h3v-651q16 -10 43.5 -15.5t57.5 -5.5q8 0 8 -8zM88 568l-17 -20l-6 5q28 36 40 47t26 11q5 0 17 -4q29 30 53 50.5t29 20.5q20 0 38.5 -19t18.5 -47q0 -18 -9 -38q-31 -23 -75 -23
q-24 0 -45.5 9.5t-50.5 28.5q-7 -7 -19 -21zM192.5 632.5q-13.5 -7.5 -36.5 -28.5q17 -8 29 -12t28 -4q30 0 56 11q-6 20 -18.5 30.5t-28.5 10.5t-29.5 -7.5z" />
    <glyph glyph-name="uni066E.init" unicode="&#x66e;" horiz-adv-x="251" 
d="M181.5 214.5q14.5 -75.5 14.5 -112.5q0 -7 -5 -32.5t-9 -36.5q-39 -20 -86 -31.5t-97 -11.5q-9 0 -9 9v23q0 8 9 8q52 0 97.5 8t76.5 23q-11 121 -69 262q20 15 37 36h4q22 -69 36.5 -144.5z" />
    <glyph glyph-name="uni066E.medi" unicode="&#x66e;" horiz-adv-x="236" 
d="M246 22v-23q0 -9 -8 -9q-76 0 -136 24l-5 -14q-51 -10 -98 -10q-9 0 -9 9v23q0 8 9 8q55 0 101 5l16 44q2 6 2 17q0 31 -9 92.5t-12 81.5q25 17 44 42h3l-4 -182q0 -9 -27 -86q54 -14 125 -14q8 0 8 -8z" />
    <glyph glyph-name="uni066E.fina" unicode="&#x66e;" horiz-adv-x="670" 
d="M680 22v-23q0 -9 -8 -9q-55 0 -130 39l-3 -7q-49 -15 -113 -23.5t-131 -8.5q-112 0 -168.5 41t-56.5 124q0 40 14 116l9 -2q-8 -43 -8 -79q0 -86 59.5 -123t172.5 -37q152 0 224 23q20 58 60 182l8 -3l-11 -33q-10 -31 -21.5 -68t-25.5 -76q23 -12 55.5 -18.5t65.5 -6.5
q8 0 8 -8z" />
    <glyph glyph-name="uni066F.fina" unicode="&#x66f;" horiz-adv-x="553" 
d="M563 22v-23q0 -9 -8 -9h-53q-19 -59 -62.5 -109.5t-102.5 -80.5t-121 -30q-80 0 -120.5 38t-40.5 113q0 35 8.5 89.5t25.5 107.5l8 -3q-28 -100 -28 -154q0 -73 43 -112t118 -39q78 0 145 52.5t104 128.5l-53 5q-70 8 -115.5 36t-45.5 82q0 102 151 298l6 -5
q-25 -30 -55 -72q69 -49 108.5 -117.5t39.5 -148.5q0 -20 -3 -38q14 -1 43 -1q8 0 8 -8zM331.5 65.5q48.5 -27.5 163.5 -37.5v1q0 84 -38.5 154t-110.5 119q-28 -46 -45.5 -87.5t-17.5 -68.5q0 -53 48.5 -80.5z" />
    <glyph glyph-name="uni06A1.init" unicode="&#x6a1;" horiz-adv-x="343" 
d="M251.5 283q36.5 -90 36.5 -181q0 -8 -9 -29.5t-17 -34.5q-47 -25 -109.5 -36.5t-153.5 -11.5q-9 0 -9 9v23q0 8 9 8q97 0 152.5 8.5t108.5 31.5q-2 56 -10 102q-59 -54 -122 -54q-48 0 -74.5 25t-26.5 69q0 59 33 125.5t93 156.5l21 33l7 -5q-23 -32 -54 -82
q88 -67 124.5 -157zM189 166q25 8 57 26q-14 58 -47 109.5t-93 103.5q-60 -108 -60 -157q0 -42 25 -66t70 -24q23 0 48 8z" />
    <glyph glyph-name="uni06A1.medi" unicode="&#x6a1;" horiz-adv-x="339" 
d="M349 22v-23q0 -9 -9 -9q-112 0 -180 20q-64 -20 -160 -20q-10 0 -10 10v21q0 4 3 6.5t7 2.5q69 0 104 5q-55 35 -55 95q0 104 185 296l6 -7q-31 -29 -62 -66q48 -43 85 -97t37 -97q0 -34 -21 -67t-52 -55q45 -7 113 -7q9 0 9 -8zM93 92q26 -29 83 -45q29 13 53 34t52 55
q-24 59 -52 100.5t-76 85.5q-38 -48 -62 -91.5t-24 -68.5q0 -41 26 -70z" />
    <glyph glyph-name="uni06A1.fina" unicode="&#x6a1;" horiz-adv-x="712" 
d="M722 22v-23q0 -9 -9 -9q-121 0 -193 24q-101 -24 -225 -24q-115 0 -170 40.5t-55 124.5q0 48 17 136l9 -2q-11 -55 -11 -97q0 -162 232 -162q71 0 149 13q-44 33 -44 87q0 104 185 296l6 -7q-31 -29 -62 -66q46 -41 84 -96.5t38 -97.5q0 -34 -21 -67t-52 -55
q45 -7 113 -7q9 0 9 -8zM540 50q34 11 59 31t55 55q-24 59 -52 100.5t-76 85.5q-38 -48 -62 -91.5t-24 -68.5q0 -81 100 -112z" />
    <glyph glyph-name="uni06C2.fina" unicode="&#x6c2;" horiz-adv-x="431" 
d="M268.5 218.5q23.5 -27.5 51.5 -81.5q20 -37 33 -57.5t32 -35t45 -14.5q5 0 8 -3t3 -7v-18q0 -12 -11 -12q-41 0 -69 21t-45 51t-36 76q-21 50 -38 74.5t-43 24.5q-36 0 -73.5 -44.5t-82.5 -143.5l-8 4q50 105 87.5 149t85.5 44q37 0 60.5 -27.5zM299 393v-4
q-6 -11 -18 -39l-22 -4l-8 -39l-9 1l7 36q-63 -11 -113 -33l-4 22q32 22 64 36q-22 7 -37 22t-15 29q0 16 15 37.5t37.5 37t42.5 15.5q39 0 39 -44q0 -24 -12 -81zM257 383q10 55 10 68q0 9 -5 13.5t-14 4.5q-22 0 -46.5 -14.5t-47.5 -42.5q8 -15 24 -25t34 -10t45 6z" />
    <glyph glyph-name="uni06C3.fina" unicode="&#x6c3;" horiz-adv-x="431" 
d="M268.5 218.5q23.5 -27.5 51.5 -81.5q20 -37 33 -57.5t32 -35t45 -14.5q5 0 8 -3t3 -7v-18q0 -12 -11 -12q-41 0 -69 21t-45 51t-36 76q-21 50 -38 74.5t-43 24.5q-36 0 -73.5 -44.5t-82.5 -143.5l-8 4q50 105 87.5 149t85.5 44q37 0 60.5 -27.5zM162.5 420.5
q9.5 -7.5 9.5 -16.5q0 -8 -27 -49q-28 20 -55 36l18 30q11 19 13 22l3 1q29 -16 38.5 -23.5zM288.5 420.5q9.5 -7.5 9.5 -16.5q0 -8 -27 -49q-28 20 -55 36l18 30q11 19 13 22l3 1q29 -16 38.5 -23.5z" />
    <glyph glyph-name="uniFB51" unicode="&#x671;" horiz-adv-x="205" arabic-form="final" 
d="M106 51q16 -10 43.5 -15.5t57.5 -5.5q8 0 8 -8v-23q0 -9 -8 -9q-32 0 -59.5 5.5t-41.5 14.5q-3 3 -13.5 21t-10.5 23l-6 131q-22 448 -21 422q20 6 48 24h3v-580zM158.5 764q18.5 -19 18.5 -47q0 -18 -9 -38q-31 -23 -75 -23q-24 0 -45.5 9.5t-50.5 28.5q-7 -7 -19 -21
l-17 -20l-6 5q28 36 40 47t26 11q5 0 17 -4q29 30 53 50.5t29 20.5q20 0 38.5 -19zM159 704q-6 20 -18.5 30.5t-28.5 10.5t-29.5 -7.5t-36.5 -28.5q17 -8 29 -12t28 -4q30 0 56 11z" />
    <glyph glyph-name="uniFB57" unicode="&#x67e;" horiz-adv-x="670" arabic-form="final" 
d="M680 22v-23q0 -9 -8 -9q-55 0 -130 39l-3 -7q-49 -15 -113 -23.5t-131 -8.5q-112 0 -168.5 41t-56.5 124q0 40 14 116l9 -2q-8 -43 -8 -79q0 -86 59.5 -123t172.5 -37q152 0 224 23q20 58 60 182l8 -3l-11 -33q-10 -31 -21.5 -68t-25.5 -76q23 -12 55.5 -18.5t65.5 -6.5
q8 0 8 -8zM342.5 -112.5q9.5 -7.5 9.5 -16.5t-27 -49q-28 20 -55 36l18 30q11 19 13 22l3 1q29 -16 38.5 -23.5zM468.5 -112.5q9.5 -7.5 9.5 -16.5t-27 -49q-28 20 -55 36l18 30q11 19 13 22l3 1q29 -16 38.5 -23.5zM412 -195q9 -7 8 -16q0 -7 -12 -24t-15 -22
q-26 20 -51 36l30 48l3 1q28 -16 37 -23z" />
    <glyph glyph-name="uniFB58" unicode="&#x67e;" horiz-adv-x="300" arabic-form="initial" 
d="M230.5 214.5q14.5 -75.5 14.5 -112.5q0 -7 -5 -32.5t-9 -36.5q-49 -19 -112.5 -31t-119.5 -12q-9 0 -9 9v23q0 8 9 8q57 0 121 9t102 22q-11 121 -69 262q20 15 37 36h4q22 -69 36.5 -144.5zM98.5 -112.5q9.5 -7.5 9.5 -16.5t-27 -49q-28 20 -55 36l18 30q11 19 13 22
l3 1q29 -16 38.5 -23.5zM224.5 -112.5q9.5 -7.5 9.5 -16.5t-27 -49q-28 20 -55 36l18 30q11 19 13 22l3 1q29 -16 38.5 -23.5zM168 -195q9 -7 8 -16q0 -7 -12 -24t-15 -22q-26 20 -51 36l30 48l3 1q28 -16 37 -23z" />
    <glyph glyph-name="uniFB59" unicode="&#x67e;" horiz-adv-x="268" arabic-form="medial" 
d="M278 22v-23q0 -9 -8 -9q-84 0 -147 24l-5 -14q-51 -10 -119 -10q-9 0 -9 9v23q0 8 9 8q76 0 122 5l16 44q2 6 2 17q0 31 -9 92.5t-12 81.5q25 17 44 42h3l-4 -182q0 -9 -27 -86q53 -14 136 -14q8 0 8 -8zM106.5 -112.5q9.5 -7.5 9.5 -16.5t-27 -49q-28 20 -55 36l18 30
q11 19 13 22l3 1q29 -16 38.5 -23.5zM232.5 -112.5q9.5 -7.5 9.5 -16.5t-27 -49q-28 20 -55 36l18 30q11 19 13 22l3 1q29 -16 38.5 -23.5zM176 -195q9 -7 8 -16q0 -7 -12 -24t-15 -22q-26 20 -51 36l30 48l3 1q28 -16 37 -23z" />
    <glyph glyph-name="uniFB67" unicode="&#x679;" horiz-adv-x="670" arabic-form="final" 
d="M680 22v-23q0 -9 -8 -9q-55 0 -130 39l-3 -7q-49 -15 -113 -23.5t-131 -8.5q-112 0 -168.5 41t-56.5 124q0 40 14 116l9 -2q-8 -43 -8 -79q0 -86 59.5 -123t172.5 -37q152 0 224 23q20 58 60 182l8 -3l-11 -33q-10 -31 -21.5 -68t-25.5 -76q23 -12 55.5 -18.5t65.5 -6.5
q8 0 8 -8zM453 440q24 -27 24 -55q0 -13 -4 -28.5t-10 -26.5q-43 -27 -95 -27q-35 0 -64 8q-22 20 -35.5 29t-45.5 25l1 6q40 -15 54 -19l24 26q-9 86 -29 162q27 8 40 14h2l6 -103q0 -8 -4 -23q-5 -21 -8 -43q34 35 61.5 58.5t33.5 23.5q25 0 49 -27zM413.5 344.5
q21.5 4.5 44.5 14.5q-5 27 -26 47t-39 20q-16 0 -39.5 -17.5t-64.5 -59.5q33 -9 74 -9q29 0 50.5 4.5z" />
    <glyph glyph-name="uniFB68" unicode="&#x679;" horiz-adv-x="251" arabic-form="initial" 
d="M181.5 214.5q14.5 -75.5 14.5 -112.5q0 -7 -5 -32.5t-9 -36.5q-39 -20 -86 -31.5t-97 -11.5q-9 0 -9 9v23q0 8 9 8q52 0 97.5 8t76.5 23q-11 121 -69 262q20 15 37 36h4q22 -69 36.5 -144.5zM167 561q24 -27 24 -55q0 -13 -4 -28.5t-10 -26.5q-43 -27 -95 -27
q-35 0 -64 8q-22 20 -35.5 29t-45.5 25l1 6q40 -15 54 -19l24 26q-9 86 -29 162q27 8 40 14h2l6 -103q0 -8 -4 -23q-5 -21 -8 -43q34 35 61.5 58.5t33.5 23.5q25 0 49 -27zM127.5 465.5q21.5 4.5 44.5 14.5q-5 27 -26 47t-39 20q-16 0 -39.5 -17.5t-64.5 -59.5q33 -9 74 -9
q29 0 50.5 4.5z" />
    <glyph glyph-name="uniFB69" unicode="&#x679;" horiz-adv-x="236" arabic-form="medial" 
d="M246 22v-23q0 -9 -8 -9q-76 0 -136 24l-5 -14q-51 -10 -98 -10q-9 0 -9 9v23q0 8 9 8q55 0 101 5l16 44q2 6 2 17q0 31 -9 92.5t-12 81.5q25 17 44 42h3l-4 -182q0 -9 -27 -86q54 -14 125 -14q8 0 8 -8zM190 551q24 -27 24 -55q0 -13 -4 -28.5t-10 -26.5q-43 -27 -95 -27
q-35 0 -64 8q-22 20 -35.5 29t-45.5 25l1 6q40 -15 54 -19l24 26q-9 86 -29 162q27 8 40 14h2l6 -103q0 -8 -4 -23q-5 -21 -8 -43q34 35 61.5 58.5t33.5 23.5q25 0 49 -27zM150.5 455.5q21.5 4.5 44.5 14.5q-5 27 -26 47t-39 20q-16 0 -39.5 -17.5t-64.5 -59.5q33 -9 74 -9
q29 0 50.5 4.5z" />
    <glyph glyph-name="uniFB6B" unicode="&#x6a4;" horiz-adv-x="712" arabic-form="final" 
d="M722 22v-23q0 -9 -9 -9q-121 0 -193 24q-101 -24 -225 -24q-115 0 -170 40.5t-55 124.5q0 48 17 136l9 -2q-11 -55 -11 -97q0 -162 232 -162q71 0 149 13q-44 33 -44 87q0 104 185 296l6 -7q-31 -29 -62 -66q46 -41 84 -96.5t38 -97.5q0 -34 -21 -67t-52 -55
q45 -7 113 -7q9 0 9 -8zM540 50q34 11 59 31t55 55q-24 59 -52 100.5t-76 85.5q-38 -48 -62 -91.5t-24 -68.5q0 -81 100 -112zM572 676q9 -7 8 -16q0 -7 -12 -24t-15 -22q-26 20 -51 36l30 48l3 1q28 -16 37 -23zM511.5 592.5q9.5 -7.5 9.5 -16.5q0 -8 -27 -49
q-28 20 -55 36l18 30q11 19 13 22l3 1q29 -16 38.5 -23.5zM637.5 592.5q9.5 -7.5 9.5 -16.5q0 -8 -27 -49q-28 20 -55 36l18 30q11 19 13 22l3 1q29 -16 38.5 -23.5z" />
    <glyph glyph-name="uniFB6C" unicode="&#x6a4;" horiz-adv-x="343" arabic-form="initial" 
d="M251.5 283q36.5 -90 36.5 -181q0 -8 -9 -29.5t-17 -34.5q-47 -25 -109.5 -36.5t-153.5 -11.5q-9 0 -9 9v23q0 8 9 8q97 0 152.5 8.5t108.5 31.5q-2 56 -10 102q-59 -54 -122 -54q-48 0 -74.5 25t-26.5 69q0 59 33 125.5t93 156.5l21 33l7 -5q-23 -32 -54 -82
q88 -67 124.5 -157zM189 166q25 8 57 26q-14 58 -47 109.5t-93 103.5q-60 -108 -60 -157q0 -42 25 -66t70 -24q23 0 48 8zM162 731q9 -7 8 -16q0 -7 -12 -24t-15 -22q-26 20 -51 36l30 48l3 1q28 -16 37 -23zM101.5 647.5q9.5 -7.5 9.5 -16.5q0 -8 -27 -49q-28 20 -55 36
l18 30q11 19 13 22l3 1q29 -16 38.5 -23.5zM227.5 647.5q9.5 -7.5 9.5 -16.5q0 -8 -27 -49q-28 20 -55 36l18 30q11 19 13 22l3 1q29 -16 38.5 -23.5z" />
    <glyph glyph-name="uniFB6D" unicode="&#x6a4;" horiz-adv-x="339" arabic-form="medial" 
d="M349 22v-23q0 -9 -9 -9q-112 0 -180 20q-64 -20 -160 -20q-10 0 -10 10v21q0 4 3 6.5t7 2.5q69 0 104 5q-55 35 -55 95q0 104 185 296l6 -7q-31 -29 -62 -66q48 -43 85 -97t37 -97q0 -34 -21 -67t-52 -55q45 -7 113 -7q9 0 9 -8zM93 92q26 -29 83 -45q29 13 53 34t52 55
q-24 59 -52 100.5t-76 85.5q-38 -48 -62 -91.5t-24 -68.5q0 -41 26 -70zM193 656q9 -7 8 -16q0 -7 -12 -24t-15 -22q-26 20 -51 36l30 48l3 1q28 -16 37 -23zM132.5 572.5q9.5 -7.5 9.5 -16.5q0 -8 -27 -49q-28 20 -55 36l18 30q11 19 13 22l3 1q29 -16 38.5 -23.5z
M258.5 572.5q9.5 -7.5 9.5 -16.5q0 -8 -27 -49q-28 20 -55 36l18 30q11 19 13 22l3 1q29 -16 38.5 -23.5z" />
    <glyph glyph-name="uniFB7B" unicode="&#x686;" horiz-adv-x="548" arabic-form="final" 
d="M289 109.5q-95 -30.5 -157.5 -96.5t-62.5 -168q0 -32 8 -67t22 -62l-7 -4q-18 29 -27.5 69t-9.5 80q0 90 48.5 157.5t130 107t181.5 50.5q-44 26 -110 84q-46 40 -72.5 57.5t-55.5 17.5q-21 0 -41.5 -14.5t-61.5 -55.5l-6 6l15 15q64 68 94 95q47 -6 84 -30.5t85 -69.5
q49 -45 84 -69t80 -32q-12 -14 -26 -39q-100 -1 -195 -31.5zM558 22v-23q0 -9 -8 -9q-46 0 -72 11t-38 39t-12 80h9q0 -52 25 -71t88 -19q8 0 8 -8zM260.5 -60.5q9.5 -7.5 9.5 -16.5t-27 -49q-28 20 -55 36l18 30q11 19 13 22l3 1q29 -16 38.5 -23.5zM386.5 -60.5
q9.5 -7.5 9.5 -16.5t-27 -49q-28 20 -55 36l18 30q11 19 13 22l3 1q29 -16 38.5 -23.5zM330 -143q9 -7 8 -16q0 -7 -12 -24t-15 -22q-26 20 -51 36l30 48l3 1q28 -16 37 -23z" />
    <glyph glyph-name="uniFB7C" unicode="&#x686;" horiz-adv-x="444" arabic-form="initial" 
d="M398 92q-25 8 -41 17q-57 -12 -90 -27.5t-74 -39.5q-30 -19 -51.5 -29t-56 -16.5t-86.5 -6.5q-9 0 -9 9v23q0 8 9 8q84 0 129.5 11t97.5 34q31 14 57 23.5t61 17.5q-29 16 -51 35.5t-54 51.5q-37 37 -60 53.5t-52 16.5q-22 0 -42.5 -14.5t-60.5 -54.5l-6 6l15 15
q64 68 94 95q45 -5 76 -26.5t72 -64.5q39 -41 71.5 -65t77.5 -33q-12 -15 -26 -39zM178.5 -85.5q9.5 -7.5 9.5 -16.5t-27 -49q-28 20 -55 36l18 30q11 19 13 22l3 1q29 -16 38.5 -23.5zM304.5 -85.5q9.5 -7.5 9.5 -16.5t-27 -49q-28 20 -55 36l18 30q11 19 13 22l3 1
q29 -16 38.5 -23.5zM248 -168q9 -7 8 -16q0 -7 -12 -24t-15 -22q-26 20 -51 36l30 48l3 1q28 -16 37 -23z" />
    <glyph glyph-name="uniFB7D" unicode="&#x686;" horiz-adv-x="453" arabic-form="medial" 
d="M337 133q-85 -65 -169.5 -104t-178.5 -39q-9 0 -9 9v23q0 8 9 8q121 0 197.5 27t141.5 81q-39 24 -90 75q-37 35 -59.5 50.5t-49.5 15.5q-21 0 -41.5 -14.5t-61.5 -56.5l-6 6l15 15q64 68 94 95q43 -5 73 -25t68 -58q40 -40 71.5 -62t77.5 -30q-12 -15 -26 -40
q-23 7 -56 24zM463 22v-23q0 -9 -8 -9q-46 0 -72 10t-38 35.5t-12 73.5h9q0 -46 25 -62.5t88 -16.5q8 0 8 -8zM198.5 -89.5q9.5 -7.5 9.5 -16.5t-27 -49q-28 20 -55 36l18 30q11 19 13 22l3 1q29 -16 38.5 -23.5zM324.5 -89.5q9.5 -7.5 9.5 -16.5t-27 -49q-28 20 -55 36
l18 30q11 19 13 22l3 1q29 -16 38.5 -23.5zM268 -172q9 -7 8 -16q0 -7 -12 -24t-15 -22q-26 20 -51 36l30 48l3 1q28 -16 37 -23z" />
    <glyph glyph-name="uniFB89" unicode="&#x688;" horiz-adv-x="429" arabic-form="final" 
d="M439 22v-23q0 -9 -8 -9q-23 0 -47.5 12.5t-44.5 36.5q-47 -25 -99 -37t-100 -12q-56 0 -85.5 23.5t-29.5 66.5q0 26 14 84l8 -2q-5 -28 -5 -45q0 -46 27.5 -66.5t89.5 -20.5q81 0 164 32l-1 2q-31 56 -59.5 125.5t-64.5 172.5q24 18 39 35h4q42 -184 95 -288
q21 -42 40.5 -60.5t54.5 -18.5q8 0 8 -8zM264 625q24 -27 24 -55q0 -13 -4 -28.5t-10 -26.5q-43 -27 -95 -27q-35 0 -64 8q-22 20 -35.5 29t-45.5 25l1 6q40 -15 54 -19l24 26q-9 86 -29 162q27 8 40 14h2l6 -103q0 -8 -4 -23q-5 -21 -8 -43q34 35 61.5 58.5t33.5 23.5
q25 0 49 -27zM224.5 529.5q21.5 4.5 44.5 14.5q-5 27 -26 47t-39 20q-16 0 -39.5 -17.5t-64.5 -59.5q33 -9 74 -9q29 0 50.5 4.5z" />
    <glyph glyph-name="uniFB8B" unicode="&#x698;" horiz-adv-x="295" arabic-form="final" 
d="M305 22v-23q0 -9 -9 -9q-35 0 -85 15q-9 -84 -61 -149.5t-123 -85.5q-101 57 -116 66l-31 18l4 8q46 -26 72 -36.5t56 -10.5q29 0 67.5 25t71.5 73t46 112q-22 67 -42.5 112t-60.5 114q21 20 34 40h4q38 -87 59 -145t22 -105q31 -11 83 -11q9 0 9 -8zM128 557q9 -7 8 -16
q0 -7 -12 -24t-15 -22q-26 20 -51 36l30 48l3 1q28 -16 37 -23zM67.5 473.5q9.5 -7.5 9.5 -16.5q0 -8 -27 -49q-28 20 -55 36l18 30q11 19 13 22l3 1q29 -16 38.5 -23.5zM193.5 473.5q9.5 -7.5 9.5 -16.5q0 -8 -27 -49q-28 20 -55 36l18 30q11 19 13 22l3 1
q29 -16 38.5 -23.5z" />
    <glyph glyph-name="uniFB8D" unicode="&#x691;" horiz-adv-x="295" arabic-form="final" 
d="M305 22v-23q0 -9 -9 -9q-35 0 -85 15q-9 -84 -61 -149.5t-123 -85.5q-101 57 -116 66l-31 18l4 8q46 -26 72 -36.5t56 -10.5q29 0 67.5 25t71.5 73t46 112q-22 67 -42.5 112t-60.5 114q21 20 34 40h4q38 -87 59 -145t22 -105q31 -11 83 -11q9 0 9 -8zM167 541
q24 -27 24 -55q0 -13 -4 -28.5t-10 -26.5q-43 -27 -95 -27q-35 0 -64 8q-22 20 -35.5 29t-45.5 25l1 6q40 -15 54 -19l24 26q-9 86 -29 162q27 8 40 14h2l6 -103q0 -8 -4 -23q-5 -21 -8 -43q34 35 61.5 58.5t33.5 23.5q25 0 49 -27zM127.5 445.5q21.5 4.5 44.5 14.5
q-5 27 -26 47t-39 20q-16 0 -39.5 -17.5t-64.5 -59.5q33 -9 74 -9q29 0 50.5 4.5z" />
    <glyph glyph-name="uniFB8F" unicode="&#x6a9;" horiz-adv-x="745" arabic-form="final" 
d="M755 22v-23q0 -9 -8 -9q-28 0 -60 14.5t-63 41.5q-86 -30 -163 -43t-166 -13q-112 0 -168.5 41t-56.5 124q0 40 14 116l9 -2q-8 -43 -8 -79q0 -86 59.5 -123t172.5 -37q77 0 157.5 12t151.5 36q-30 65 -86 131.5t-127 120t-143 80.5l-12 34q3 10 7 20.5t7 14.5
q74 61 180.5 122.5t147.5 61.5q68 0 68 -78q0 -32 -5 -85l-8 1q1 15 1 44q0 38 -11 55.5t-34 17.5q-47 0 -155 -59t-182 -120q55 -18 116 -51.5t105 -72.5t78.5 -82.5t53.5 -79.5t19 -55q0 -10 -7 -31q23 -17 51 -27t57 -10q8 0 8 -8z" />
    <glyph glyph-name="uniFB90" unicode="&#x6a9;" horiz-adv-x="463" arabic-form="initial" 
d="M433 585q0 -32 -5 -85l-8 1q1 15 1 44q0 38 -11 55.5t-34 17.5q-46 0 -154.5 -58.5t-181.5 -119.5q55 -18 115.5 -51.5t103.5 -72.5q66 -59 108.5 -121.5t42.5 -92.5q0 -7 -6.5 -28t-9.5 -22q-177 -62 -394 -62q-9 0 -9 9v23q0 8 9 8q231 0 390 52q-29 64 -85 130
t-127 118.5t-143 79.5l-12 34q3 10 7 20.5t7 14.5q74 61 180.5 122.5t147.5 61.5q68 0 68 -78z" />
    <glyph glyph-name="uniFB91" unicode="&#x6a9;" horiz-adv-x="425" arabic-form="medial" 
d="M435 22v-23q0 -9 -8 -9q-62 0 -107 12.5t-84 44t-78 88.5q-12 16 -20 32q16 -54 17 -144l-2 -3q-45 -17 -78 -23.5t-76 -6.5q-9 0 -9 9v23q0 8 9 8q42 0 74.5 4t71.5 15q-3 47 -9.5 87t-22.5 74q-42 77 -69.5 156.5t-27.5 115.5q1 7 6 21t7 15q86 62 166 103.5t131 41.5
q36 0 55.5 -20.5t19.5 -57.5q0 -21 -4 -85l-9 1l2 45q0 36 -15.5 54.5t-44.5 18.5q-49 0 -130 -37t-170 -100q46 -129 98.5 -226t89.5 -136q38 -40 93.5 -65t115.5 -25q8 0 8 -8z" />
    <glyph glyph-name="uniFB93" unicode="&#x6af;" horiz-adv-x="745" arabic-form="final" 
d="M256 525l-5 8q144 115 332 182l3 -9q-181 -65 -330 -181zM755 22v-23q0 -9 -8 -9q-28 0 -60 14.5t-63 41.5q-86 -30 -163 -43t-166 -13q-112 0 -168.5 41t-56.5 124q0 40 14 116l9 -2q-8 -43 -8 -79q0 -86 59.5 -123t172.5 -37q77 0 157.5 12t151.5 36q-30 65 -86 131.5
t-127 120t-143 80.5l-12 34q3 10 7 20.5t7 14.5q74 61 180.5 122.5t147.5 61.5q68 0 68 -78q0 -32 -5 -85l-8 1q1 15 1 44q0 38 -11 55.5t-34 17.5q-47 0 -155 -59t-182 -120q55 -18 116 -51.5t105 -72.5t78.5 -82.5t53.5 -79.5t19 -55q0 -10 -7 -31q23 -17 51 -27t57 -10
q8 0 8 -8z" />
    <glyph glyph-name="uniFB94" unicode="&#x6af;" horiz-adv-x="483" arabic-form="initial" 
d="M20 525l-5 8q144 115 332 182l3 -9q-181 -65 -330 -181zM433 585q0 -32 -5 -85l-8 1q1 15 1 44q0 38 -11 55.5t-34 17.5q-46 0 -154.5 -58.5t-181.5 -119.5q55 -18 115.5 -51.5t103.5 -72.5q66 -59 108.5 -121.5t42.5 -92.5q0 -7 -6.5 -28t-9.5 -22q-177 -62 -394 -62
q-9 0 -9 9v23q0 8 9 8q231 0 390 52q-29 64 -85 130t-127 118.5t-143 79.5l-12 34q3 10 7 20.5t7 14.5q74 61 180.5 122.5t147.5 61.5q68 0 68 -78z" />
    <glyph glyph-name="uniFB95" unicode="&#x6af;" horiz-adv-x="425" arabic-form="medial" 
d="M3 545l-5 8q144 115 332 182l3 -9q-181 -65 -330 -181zM435 22v-23q0 -9 -8 -9q-62 0 -107 12.5t-84 44t-78 88.5q-12 16 -20 32q16 -54 17 -144l-2 -3q-45 -17 -78 -23.5t-76 -6.5q-9 0 -9 9v23q0 8 9 8q42 0 74.5 4t71.5 15q-3 47 -9.5 87t-22.5 74q-42 77 -69.5 156.5
t-27.5 115.5q1 7 6 21t7 15q86 62 166 103.5t131 41.5q36 0 55.5 -20.5t19.5 -57.5q0 -21 -4 -85l-9 1l2 45q0 36 -15.5 54.5t-44.5 18.5q-49 0 -130 -37t-170 -100q46 -129 98.5 -226t89.5 -136q38 -40 93.5 -65t115.5 -25q8 0 8 -8z" />
    <glyph glyph-name="uniFB9F" unicode="&#x6ba;" horiz-adv-x="534" arabic-form="final" 
d="M544 22v-23q0 -9 -9 -9q-43 0 -92 17q2 -26 2 -33q0 -52 -36 -99.5t-91 -76t-108 -28.5q-74 0 -114.5 39.5t-40.5 111.5q0 35 8.5 89.5t25.5 107.5l8 -3q-28 -100 -28 -154q0 -72 37 -111t106 -39q60 0 116 33.5t96 93.5q-6 62 -21 118t-42 130q21 19 35 42h4
q28 -101 40 -189q40 -9 95 -9q9 0 9 -8z" />
    <glyph glyph-name="uniFBA7" unicode="&#x6c1;" horiz-adv-x="431" arabic-form="final" 
d="M268.5 218.5q23.5 -27.5 51.5 -81.5q20 -37 33 -57.5t32 -35t45 -14.5q5 0 8 -3t3 -7v-18q0 -12 -11 -12q-41 0 -69 21t-45 51t-36 76q-21 50 -38 74.5t-43 24.5q-36 0 -73.5 -44.5t-82.5 -143.5l-8 4q50 105 87.5 149t85.5 44q37 0 60.5 -27.5z" />
    <glyph glyph-name="uniFBA8" unicode="&#x6c1;" horiz-adv-x="251" arabic-form="initial" 
d="M173 -102.5q12 -12.5 12 -31.5t-13 -32t-32 -13q-26 0 -39.5 17.5t-13.5 44.5q0 32 16 69t48 67q-69 -29 -152 -29q-9 0 -9 9v23q0 8 9 8q52 0 97.5 8t76.5 23q-11 121 -69 262q20 15 37 36h4q22 -69 36.5 -144.5t14.5 -112.5q0 -7 -5 -32.5t-9 -36.5q-35 -30 -51.5 -61
t-16.5 -59q0 -10 2 -14q13 11 27 11q18 0 30 -12.5z" />
    <glyph glyph-name="uniFBA9" unicode="&#x6c1;" horiz-adv-x="373" arabic-form="medial" 
d="M383 20v-18q0 -12 -11 -12h-37q-70 0 -106 -6q40 -15 71.5 -57.5t41.5 -85.5q-6 -23 -6 -44q-15 -13 -39 -20t-52 -7q-88 0 -133 52t-45 148q0 28 1 41q-15 -9 -36 -15t-33 -6q-9 0 -9 9v23q0 8 9 8q21 0 38.5 3t33.5 14q9 79 40 156l8 -4q-37 -99 -37 -197
q0 -92 44.5 -142t129.5 -50q28 0 48 8.5t29 24.5q-7 27 -27 59.5t-49.5 56t-64.5 23.5q-1 9 -6 22q50 16 88.5 21t97.5 5q11 0 11 -10z" />
    <glyph glyph-name="uniFBAB" unicode="&#x6be;" horiz-adv-x="391" arabic-form="final" 
d="M401 20v-18q0 -12 -11 -12q-82 0 -123 -4q43 -15 76.5 -49.5t42.5 -74.5v-4q-4 -20 -5 -43q-15 -13 -39 -20t-52 -7q-87 0 -135 51t-50 143q-30 -8 -46.5 -22t-27.5 -38q-14 -37 -17 -50l-9 1q11 47 31 95q14 34 70 52q4 82 30 157t64 140t94 144l7 -5q-2 -4 -19 -28
l-17 -26q42 -59 67 -127t25 -104q0 -100 -106 -149q56 8 139 8q11 0 11 -10zM154.5 198q-33.5 -84 -34.5 -174l23 6q59 14 102 30.5t80 44.5q2 65 -23 137t-60 125q-54 -85 -87.5 -169zM349.5 -85q-22.5 29 -55 48.5t-66.5 19.5q0 13 -4 28q-42 -15 -95 -24l-7 -1
q8 -76 54.5 -117t124.5 -41q28 0 48 8.5t29 24.5q-6 25 -28.5 54z" />
    <glyph glyph-name="uniFBAC" unicode="&#x6be;" horiz-adv-x="488" arabic-form="initial" 
d="M424.5 17q-13.5 -33 -18.5 -44q-137 14 -242 63q-70 -46 -165 -46q-9 0 -9 10v22q0 8 9 8q68 0 127 26q-44 26 -68.5 57t-24.5 63q0 21 14.5 54t38.5 65t51 49q53 -28 89 -76.5t36 -93.5q0 -28 -17.5 -58t-48.5 -56q82 -32 211 -47l1 22q0 120 -71 213.5t-174 143.5
q7 11 11.5 21t7.5 23l2 2q134 -74 194 -168t60 -208q0 -12 -13.5 -45zM162 75q53 34 84 89q-23 51 -54 86.5t-77 62.5q-52 -51 -75 -133q44 -65 122 -105z" />
    <glyph glyph-name="uniFBAD" unicode="&#x6be;" horiz-adv-x="333" arabic-form="medial" 
d="M343 20v-18q0 -12 -11 -12q-82 0 -123 -4q43 -15 76.5 -49.5t42.5 -74.5v-4q-4 -20 -5 -43q-15 -13 -39 -20t-52 -7q-88 0 -136.5 52.5t-48.5 147.5v4q-30 -2 -48 -2q-9 0 -9 9v23q0 8 9 8q34 0 50 1q8 115 55.5 213.5t131.5 216.5l7 -5q-2 -4 -19 -28l-17 -26
q42 -59 67 -127t25 -104q0 -51 -28.5 -89t-82.5 -61q55 9 144 9q11 0 11 -10zM98.5 201.5q-33.5 -81.5 -36.5 -169.5q61 5 108 22t97 51q2 65 -23 137t-60 125q-52 -84 -85.5 -165.5zM291.5 -85q-22.5 29 -55 48.5t-66.5 19.5q0 10 -5 30q-45 -15 -102 -20q7 -79 54 -122
t126 -43q28 0 48 8.5t29 24.5q-6 25 -28.5 54z" />
    <glyph glyph-name="uniFBAF" unicode="&#x6d2;" horiz-adv-x="595" arabic-form="final" 
d="M605 17v-15q0 -5 -3.5 -8.5t-9.5 -3.5h-129q-232 0 -392 -75q68 -36 125 -48t118 -12q46 0 88 8t113 28l2 -8q-38 -10 -55 -17t-25 -14t-22 -25q-62 -13 -109 -13q-72 0 -134 18t-109 53q-3 3 -7 23t-6 37q145 83 391 85h151q13 0 13 -13z" />
    <glyph glyph-name="uniFBB1" unicode="&#x6d3;" horiz-adv-x="595" arabic-form="final" 
d="M605 17v-15q0 -5 -3.5 -8.5t-9.5 -3.5h-129q-232 0 -392 -75q68 -36 125 -48t118 -12q46 0 88 8t113 28l2 -8q-38 -10 -55 -17t-25 -14t-22 -25q-62 -13 -109 -13q-72 0 -134 18t-109 53q-3 3 -7 23t-6 37q145 83 391 85h151q13 0 13 -13zM496 213v-4q-6 -11 -18 -39
l-22 -4l-8 -39l-9 1l7 36q-63 -11 -113 -33l-4 22q32 22 64 36q-22 7 -37 22t-15 29q0 16 15 37.5t37.5 37t42.5 15.5q39 0 39 -44q0 -24 -12 -81zM454 203q10 55 10 68q0 9 -5 13.5t-14 4.5q-22 0 -46.5 -14.5t-47.5 -42.5q8 -15 24 -25t34 -10t45 6z" />
    <glyph glyph-name="uniFBFD" unicode="&#x6cc;" horiz-adv-x="531" arabic-form="final" 
d="M541 19v-18q0 -5 -3 -8t-8 -3q-67 0 -122 25l98 -71q2 -3 4.5 -9t1.5 -7q-38 -72 -121.5 -115t-180.5 -43q-74 0 -114.5 39.5t-40.5 111.5q0 35 8.5 89.5t25.5 107.5l8 -3q-28 -100 -28 -154q0 -73 39 -111.5t112 -38.5q58 0 115 18.5t100.5 48t62.5 61.5l-128 93l8 28
l2 2q38 -18 72 -25t78 -7q11 0 11 -11z" />
    <glyph glyph-name="uniFBFE" unicode="&#x6cc;" horiz-adv-x="300" arabic-form="initial" 
d="M230.5 214.5q14.5 -75.5 14.5 -112.5q0 -7 -5 -32.5t-9 -36.5q-49 -19 -112.5 -31t-119.5 -12q-9 0 -9 9v23q0 8 9 8q57 0 121 9t102 22q-11 121 -69 262q20 15 37 36h4q22 -69 36.5 -144.5zM99.5 -121.5q9.5 -7.5 9.5 -16.5t-27 -49q-28 20 -55 36l18 30q11 19 13 22
l3 1q29 -16 38.5 -23.5zM225.5 -121.5q9.5 -7.5 9.5 -16.5t-27 -49q-28 20 -55 36l18 30q11 19 13 22l3 1q29 -16 38.5 -23.5z" />
    <glyph glyph-name="uniFBFF" unicode="&#x6cc;" horiz-adv-x="236" arabic-form="medial" 
d="M246 22v-23q0 -9 -8 -9q-76 0 -136 24l-5 -14q-51 -10 -98 -10q-9 0 -9 9v23q0 8 9 8q55 0 101 5l16 44q2 6 2 17q0 31 -9 92.5t-12 81.5q25 17 44 42h3l-4 -182q0 -9 -27 -86q54 -14 125 -14q8 0 8 -8zM82.5 -121.5q9.5 -7.5 9.5 -16.5t-27 -49q-28 20 -55 36l18 30
q11 19 13 22l3 1q29 -16 38.5 -23.5zM208.5 -121.5q9.5 -7.5 9.5 -16.5t-27 -49q-28 20 -55 36l18 30q11 19 13 22l3 1q29 -16 38.5 -23.5z" />
    <glyph glyph-name="uniFC02" unicode="&#xfc02;" horiz-adv-x="454" arabic-form="isolated" 
d="M352 336.5q30 -9.5 82 -35.5v-3q-14 -14 -29 -33q-42 27 -67.5 37t-51.5 10q-43 0 -82.5 -33t-54.5 -94q15 -45 30 -68t30.5 -32.5t42.5 -18.5q33 -11 53 -22q-7 -14 -14 -40l-3 -2q-47 23 -100.5 36.5t-106.5 17.5q23 -182 59 -365q-20 -13 -42 -32h-3q-11 153 -20 263
q-10 118 -10 134q0 4 9.5 17.5t16.5 20.5q44 -2 85 -14q-13 14 -27.5 46t-14.5 58q0 42 22 79.5t59 60t79 22.5q28 0 58 -9.5zM411 529v-4q-6 -11 -18 -39l-22 -4l-8 -39l-9 1l7 36q-63 -11 -113 -33l-4 22q32 22 64 36q-22 7 -37 22t-15 29q0 16 15 37.5t37.5 37t42.5 15.5
q39 0 39 -44q0 -24 -12 -81zM369 519q10 55 10 68q0 9 -5 13.5t-14 4.5q-22 0 -46.5 -14.5t-47.5 -42.5q8 -15 24 -25t34 -10t45 6z" />
    <glyph glyph-name="uniFC03" unicode="&#xfc03;" horiz-adv-x="655" arabic-form="isolated" 
d="M495 -10q-42 0 -86 20l36 -24q31 -19 61 -42q2 -3 4.5 -9t1.5 -7q-38 -72 -121.5 -115t-180.5 -43q-74 0 -114.5 39.5t-40.5 111.5q0 35 8.5 89.5t25.5 107.5l8 -3q-28 -100 -28 -154q0 -73 39 -111.5t112 -38.5q58 0 115 18.5t100.5 48t62.5 61.5q-31 23 -87 61l-41 27
l8 28l2 2q57 -27 102 -27q49 0 82 15q-10 119 -68 263q20 15 37 36h4q22 -69 36.5 -144.5t14.5 -112.5q0 -7 -5 -32.5t-9 -36.5q-34 -28 -79 -28zM590 499v-4q-6 -11 -18 -39l-22 -4l-8 -39l-9 1l7 36q-63 -11 -113 -33l-4 22q32 22 64 36q-22 7 -37 22t-15 29q0 16 15 37.5
t37.5 37t42.5 15.5q39 0 39 -44q0 -24 -12 -81zM548 489q10 55 10 68q0 9 -5 13.5t-14 4.5q-22 0 -46.5 -14.5t-47.5 -42.5q8 -15 24 -25t34 -10t45 6z" />
    <glyph glyph-name="uniFC04" unicode="&#xfc04;" horiz-adv-x="649" arabic-form="isolated" 
d="M495 -10q-42 0 -86 20l36 -24q31 -19 61 -42q2 -3 4.5 -9t1.5 -7q-38 -72 -121.5 -115t-180.5 -43q-74 0 -114.5 39.5t-40.5 111.5q0 35 8.5 89.5t25.5 107.5l8 -3q-28 -100 -28 -154q0 -73 39 -111.5t112 -38.5q58 0 115 18.5t100.5 48t62.5 61.5q-31 23 -87 61l-41 27
l8 28l2 2q57 -27 102 -27q49 0 82 15q-10 119 -68 263q20 15 37 36h4q22 -69 36.5 -144.5t14.5 -112.5q0 -7 -5 -32.5t-9 -36.5q-34 -28 -79 -28zM594 500v-4q-6 -11 -18 -39l-22 -4l-8 -39l-9 1l7 36q-63 -11 -113 -33l-4 22q32 22 64 36q-22 7 -37 22t-15 29q0 16 15 37.5
t37.5 37t42.5 15.5q39 0 39 -44q0 -24 -12 -81zM552 490q10 55 10 68q0 9 -5 13.5t-14 4.5q-22 0 -46.5 -14.5t-47.5 -42.5q8 -15 24 -25t34 -10t45 6zM278.5 -323.5q9.5 -7.5 9.5 -16.5t-27 -49q-28 20 -55 36l18 30q11 19 13 22l3 1q29 -16 38.5 -23.5zM404.5 -323.5
q9.5 -7.5 9.5 -16.5t-27 -49q-28 20 -55 36l18 30q11 19 13 22l3 1q29 -16 38.5 -23.5z" />
    <glyph glyph-name="uniFC08" unicode="&#xfc08;" horiz-adv-x="454" arabic-form="isolated" 
d="M352 336.5q30 -9.5 82 -35.5v-3q-14 -14 -29 -33q-42 27 -67.5 37t-51.5 10q-43 0 -82.5 -33t-54.5 -94q15 -45 30 -68t30.5 -32.5t42.5 -18.5q33 -11 53 -22q-7 -14 -14 -40l-3 -2q-47 23 -100.5 36.5t-106.5 17.5q23 -182 59 -365q-20 -13 -42 -32h-3q-11 153 -20 263
q-10 118 -10 134q0 4 9.5 17.5t16.5 20.5q44 -2 85 -14q-13 14 -27.5 46t-14.5 58q0 42 22 79.5t59 60t79 22.5q28 0 58 -9.5zM376.5 -79.5q9.5 -7.5 9.5 -16.5t-27 -49q-28 20 -55 36l18 30q11 19 13 22l3 1q29 -16 38.5 -23.5z" />
    <glyph glyph-name="uniFC09" unicode="&#xfc09;" horiz-adv-x="713" arabic-form="isolated" 
d="M633.5 199.5q14.5 -75.5 14.5 -112.5q0 -7 -5 -32.5t-9 -36.5q-22 -13 -53.5 -20.5t-67.5 -7.5q-59 0 -104 20l36 -24q31 -19 61 -42q2 -3 4.5 -9t1.5 -7q-38 -72 -121.5 -115t-180.5 -43q-74 0 -114.5 39.5t-40.5 111.5q0 35 8.5 89.5t25.5 107.5l8 -3
q-28 -100 -28 -154q0 -73 39 -111.5t112 -38.5q58 0 115 18.5t100.5 48t62.5 61.5q-31 23 -87 61l-41 27l8 28l2 2q57 -27 132 -27q70 0 112 16q-11 124 -68 262q20 15 37 36h4q22 -69 36.5 -144.5zM625.5 -112.5q9.5 -7.5 9.5 -16.5t-27 -49q-28 20 -55 36l18 30
q11 19 13 22l3 1q29 -16 38.5 -23.5z" />
    <glyph glyph-name="uniFC0A" unicode="&#xfc0a;" horiz-adv-x="713" arabic-form="isolated" 
d="M633.5 199.5q14.5 -75.5 14.5 -112.5q0 -7 -5 -32.5t-9 -36.5q-22 -13 -53.5 -20.5t-67.5 -7.5q-59 0 -104 20l36 -24q31 -19 61 -42q2 -3 4.5 -9t1.5 -7q-38 -72 -121.5 -115t-180.5 -43q-74 0 -114.5 39.5t-40.5 111.5q0 35 8.5 89.5t25.5 107.5l8 -3
q-28 -100 -28 -154q0 -73 39 -111.5t112 -38.5q58 0 115 18.5t100.5 48t62.5 61.5q-31 23 -87 61l-41 27l8 28l2 2q57 -27 132 -27q70 0 112 16q-11 124 -68 262q20 15 37 36h4q22 -69 36.5 -144.5zM625.5 -112.5q9.5 -7.5 9.5 -16.5t-27 -49q-28 20 -55 36l18 30
q11 19 13 22l3 1q29 -16 38.5 -23.5zM276.5 -309.5q9.5 -7.5 9.5 -16.5t-27 -49q-28 20 -55 36l18 30q11 19 13 22l3 1q29 -16 38.5 -23.5zM402.5 -309.5q9.5 -7.5 9.5 -16.5t-27 -49q-28 20 -55 36l18 30q11 19 13 22l3 1q29 -16 38.5 -23.5z" />
    <glyph glyph-name="uniFC0E" unicode="&#xfc0e;" horiz-adv-x="454" arabic-form="isolated" 
d="M352 336.5q30 -9.5 82 -35.5v-3q-14 -14 -29 -33q-42 27 -67.5 37t-51.5 10q-43 0 -82.5 -33t-54.5 -94q15 -45 30 -68t30.5 -32.5t42.5 -18.5q33 -11 53 -22q-7 -14 -14 -40l-3 -2q-47 23 -100.5 36.5t-106.5 17.5q23 -182 59 -365q-20 -13 -42 -32h-3q-11 153 -20 263
q-10 118 -10 134q0 4 9.5 17.5t16.5 20.5q44 -2 85 -14q-13 14 -27.5 46t-14.5 58q0 42 22 79.5t59 60t79 22.5q28 0 58 -9.5zM280.5 558.5q9.5 -7.5 9.5 -16.5q0 -8 -27 -49q-28 20 -55 36l18 30q11 19 13 22l3 1q29 -16 38.5 -23.5zM406.5 558.5q9.5 -7.5 9.5 -16.5
q0 -8 -27 -49q-28 20 -55 36l18 30q11 19 13 22l3 1q29 -16 38.5 -23.5z" />
    <glyph glyph-name="uniFC0F" unicode="&#xfc0f;" horiz-adv-x="666" arabic-form="isolated" 
d="M495 -10q-42 0 -86 20l36 -24q31 -19 61 -42q2 -3 4.5 -9t1.5 -7q-38 -72 -121.5 -115t-180.5 -43q-74 0 -114.5 39.5t-40.5 111.5q0 35 8.5 89.5t25.5 107.5l8 -3q-28 -100 -28 -154q0 -73 39 -111.5t112 -38.5q58 0 115 18.5t100.5 48t62.5 61.5q-31 23 -87 61l-41 27
l8 28l2 2q57 -27 102 -27q49 0 82 15q-10 119 -68 263q20 15 37 36h4q22 -69 36.5 -144.5t14.5 -112.5q0 -7 -5 -32.5t-9 -36.5q-34 -28 -79 -28zM479.5 540.5q9.5 -7.5 9.5 -16.5q0 -8 -27 -49q-28 20 -55 36l18 30q11 19 13 22l3 1q29 -16 38.5 -23.5zM605.5 540.5
q9.5 -7.5 9.5 -16.5q0 -8 -27 -49q-28 20 -55 36l18 30q11 19 13 22l3 1q29 -16 38.5 -23.5z" />
    <glyph glyph-name="uniFC10" unicode="&#xfc10;" horiz-adv-x="666" arabic-form="isolated" 
d="M495 -10q-42 0 -86 20l36 -24q31 -19 61 -42q2 -3 4.5 -9t1.5 -7q-38 -72 -121.5 -115t-180.5 -43q-74 0 -114.5 39.5t-40.5 111.5q0 35 8.5 89.5t25.5 107.5l8 -3q-28 -100 -28 -154q0 -73 39 -111.5t112 -38.5q58 0 115 18.5t100.5 48t62.5 61.5q-31 23 -87 61l-41 27
l8 28l2 2q57 -27 102 -27q49 0 82 15q-10 119 -68 263q20 15 37 36h4q22 -69 36.5 -144.5t14.5 -112.5q0 -7 -5 -32.5t-9 -36.5q-34 -28 -79 -28zM479.5 540.5q9.5 -7.5 9.5 -16.5q0 -8 -27 -49q-28 20 -55 36l18 30q11 19 13 22l3 1q29 -16 38.5 -23.5zM605.5 540.5
q9.5 -7.5 9.5 -16.5q0 -8 -27 -49q-28 20 -55 36l18 30q11 19 13 22l3 1q29 -16 38.5 -23.5zM278.5 -323.5q9.5 -7.5 9.5 -16.5t-27 -49q-28 20 -55 36l18 30q11 19 13 22l3 1q29 -16 38.5 -23.5zM404.5 -323.5q9.5 -7.5 9.5 -16.5t-27 -49q-28 20 -55 36l18 30q11 19 13 22
l3 1q29 -16 38.5 -23.5z" />
    <glyph glyph-name="uniFC12" unicode="&#xfc12;" horiz-adv-x="454" arabic-form="isolated" 
d="M352 336.5q30 -9.5 82 -35.5v-3q-14 -14 -29 -33q-42 27 -67.5 37t-51.5 10q-43 0 -82.5 -33t-54.5 -94q15 -45 30 -68t30.5 -32.5t42.5 -18.5q33 -11 53 -22q-7 -14 -14 -40l-3 -2q-47 23 -100.5 36.5t-106.5 17.5q23 -182 59 -365q-20 -13 -42 -32h-3q-11 153 -20 263
q-10 118 -10 134q0 4 9.5 17.5t16.5 20.5q44 -2 85 -14q-13 14 -27.5 46t-14.5 58q0 42 22 79.5t59 60t79 22.5q28 0 58 -9.5zM344 625q9 -7 8 -16q0 -7 -12 -24t-15 -22q-26 20 -51 36l30 48l3 1q28 -16 37 -23zM283.5 541.5q9.5 -7.5 9.5 -16.5q0 -8 -27 -49
q-28 20 -55 36l18 30q11 19 13 22l3 1q29 -16 38.5 -23.5zM409.5 541.5q9.5 -7.5 9.5 -16.5q0 -8 -27 -49q-28 20 -55 36l18 30q11 19 13 22l3 1q29 -16 38.5 -23.5z" />
    <glyph glyph-name="uniFC13" unicode="&#xfc13;" horiz-adv-x="647" arabic-form="isolated" 
d="M495 -10q-42 0 -86 20l36 -24q31 -19 61 -42q2 -3 4.5 -9t1.5 -7q-38 -72 -121.5 -115t-180.5 -43q-74 0 -114.5 39.5t-40.5 111.5q0 35 8.5 89.5t25.5 107.5l8 -3q-28 -100 -28 -154q0 -73 39 -111.5t112 -38.5q58 0 115 18.5t100.5 48t62.5 61.5q-31 23 -87 61l-41 27
l8 28l2 2q57 -27 102 -27q49 0 82 15q-10 119 -68 263q20 15 37 36h4q22 -69 36.5 -144.5t14.5 -112.5q0 -7 -5 -32.5t-9 -36.5q-34 -28 -79 -28zM530 626q9 -7 8 -16q0 -7 -12 -24t-15 -22q-26 20 -51 36l30 48l3 1q28 -16 37 -23zM469.5 542.5q9.5 -7.5 9.5 -16.5
q0 -8 -27 -49q-28 20 -55 36l18 30q11 19 13 22l3 1q29 -16 38.5 -23.5zM595.5 542.5q9.5 -7.5 9.5 -16.5q0 -8 -27 -49q-28 20 -55 36l18 30q11 19 13 22l3 1q29 -16 38.5 -23.5z" />
    <glyph glyph-name="uniFC14" unicode="&#xfc14;" horiz-adv-x="647" arabic-form="isolated" 
d="M495 -10q-42 0 -86 20l36 -24q31 -19 61 -42q2 -3 4.5 -9t1.5 -7q-38 -72 -121.5 -115t-180.5 -43q-74 0 -114.5 39.5t-40.5 111.5q0 35 8.5 89.5t25.5 107.5l8 -3q-28 -100 -28 -154q0 -73 39 -111.5t112 -38.5q58 0 115 18.5t100.5 48t62.5 61.5q-31 23 -87 61l-41 27
l8 28l2 2q57 -27 102 -27q49 0 82 15q-10 119 -68 263q20 15 37 36h4q22 -69 36.5 -144.5t14.5 -112.5q0 -7 -5 -32.5t-9 -36.5q-34 -28 -79 -28zM530 626q9 -7 8 -16q0 -7 -12 -24t-15 -22q-26 20 -51 36l30 48l3 1q28 -16 37 -23zM469.5 542.5q9.5 -7.5 9.5 -16.5
q0 -8 -27 -49q-28 20 -55 36l18 30q11 19 13 22l3 1q29 -16 38.5 -23.5zM595.5 542.5q9.5 -7.5 9.5 -16.5q0 -8 -27 -49q-28 20 -55 36l18 30q11 19 13 22l3 1q29 -16 38.5 -23.5zM268.5 -323.5q9.5 -7.5 9.5 -16.5t-27 -49q-28 20 -55 36l18 30q11 19 13 22l3 1
q29 -16 38.5 -23.5zM394.5 -323.5q9.5 -7.5 9.5 -16.5t-27 -49q-28 20 -55 36l18 30q11 19 13 22l3 1q29 -16 38.5 -23.5z" />
    <glyph glyph-name="uniFC31" unicode="&#xfc31;" horiz-adv-x="736" arabic-form="isolated" 
d="M644 282q37 -91 37 -182q0 -8 -9 -29.5t-17 -34.5q-38 -23 -70.5 -33.5t-69.5 -10.5q-55 0 -106 23l98 -71q2 -3 4 -9t1 -7q-38 -72 -121.5 -115t-180.5 -43q-74 0 -114.5 39.5t-40.5 111.5q0 35 8.5 89.5t25.5 107.5l8 -3q-28 -100 -28 -154q0 -73 39 -111.5t112 -38.5
q58 0 115.5 18.5t101 48.5t62.5 61l-128 93l8 28l2 2q63 -30 135 -30q35 0 71 9.5t66 26.5q-2 58 -11 104q-59 -54 -122 -54q-48 0 -74.5 25t-26.5 69q0 59 33 125.5t93 156.5l21 33l7 -5q-23 -32 -54 -82q88 -67 125 -158zM638 193q-14 57 -47 108.5t-93 103.5
q-60 -108 -60 -157q0 -42 25 -66t70 -24q46 0 105 35zM508.5 649.5q9.5 -7.5 9.5 -16.5q0 -8 -27 -49q-28 20 -55 36l18 30q11 19 13 22l3 1q29 -16 38.5 -23.5z" />
    <glyph glyph-name="uniFC32" unicode="&#xfc32;" horiz-adv-x="736" arabic-form="isolated" 
d="M644 282q37 -91 37 -182q0 -8 -9 -29.5t-17 -34.5q-38 -23 -70.5 -33.5t-69.5 -10.5q-55 0 -106 23l98 -71q2 -3 4 -9t1 -7q-38 -72 -121.5 -115t-180.5 -43q-74 0 -114.5 39.5t-40.5 111.5q0 35 8.5 89.5t25.5 107.5l8 -3q-28 -100 -28 -154q0 -73 39 -111.5t112 -38.5
q58 0 115.5 18.5t101 48.5t62.5 61l-128 93l8 28l2 2q63 -30 135 -30q35 0 71 9.5t66 26.5q-2 58 -11 104q-59 -54 -122 -54q-48 0 -74.5 25t-26.5 69q0 59 33 125.5t93 156.5l21 33l7 -5q-23 -32 -54 -82q88 -67 125 -158zM638 193q-14 57 -47 108.5t-93 103.5
q-60 -108 -60 -157q0 -42 25 -66t70 -24q46 0 105 35zM508.5 649.5q9.5 -7.5 9.5 -16.5q0 -8 -27 -49q-28 20 -55 36l18 30q11 19 13 22l3 1q29 -16 38.5 -23.5zM278.5 -323.5q9.5 -7.5 9.5 -16.5t-27 -49q-28 20 -55 36l18 30q11 19 13 22l3 1q29 -16 38.5 -23.5z
M404.5 -323.5q9.5 -7.5 9.5 -16.5t-27 -49q-28 20 -55 36l18 30q11 19 13 22l3 1q29 -16 38.5 -23.5z" />
    <glyph glyph-name="uniFC35" unicode="&#xfc35;" horiz-adv-x="746" arabic-form="isolated" 
d="M644 282q37 -91 37 -182q0 -8 -9 -29.5t-17 -34.5q-38 -23 -70.5 -33.5t-69.5 -10.5q-55 0 -106 23l98 -71q2 -3 4 -9t1 -7q-38 -72 -121.5 -115t-180.5 -43q-74 0 -114.5 39.5t-40.5 111.5q0 35 8.5 89.5t25.5 107.5l8 -3q-28 -100 -28 -154q0 -73 39 -111.5t112 -38.5
q58 0 115.5 18.5t101 48.5t62.5 61l-128 93l8 28l2 2q63 -30 135 -30q35 0 71 9.5t66 26.5q-2 58 -11 104q-59 -54 -122 -54q-48 0 -74.5 25t-26.5 69q0 59 33 125.5t93 156.5l21 33l7 -5q-23 -32 -54 -82q88 -67 125 -158zM638 193q-14 57 -47 108.5t-93 103.5
q-60 -108 -60 -157q0 -42 25 -66t70 -24q46 0 105 35zM507.5 649.5q9.5 -7.5 9.5 -16.5q0 -8 -27 -49q-28 20 -55 36l18 30q11 19 13 22l3 1q29 -16 38.5 -23.5zM633.5 649.5q9.5 -7.5 9.5 -16.5q0 -8 -27 -49q-28 20 -55 36l18 30q11 19 13 22l3 1q29 -16 38.5 -23.5z" />
    <glyph glyph-name="uniFC36" unicode="&#xfc36;" horiz-adv-x="746" arabic-form="isolated" 
d="M644 282q37 -91 37 -182q0 -8 -9 -29.5t-17 -34.5q-38 -23 -70.5 -33.5t-69.5 -10.5q-55 0 -106 23l98 -71q2 -3 4 -9t1 -7q-38 -72 -121.5 -115t-180.5 -43q-74 0 -114.5 39.5t-40.5 111.5q0 35 8.5 89.5t25.5 107.5l8 -3q-28 -100 -28 -154q0 -73 39 -111.5t112 -38.5
q58 0 115.5 18.5t101 48.5t62.5 61l-128 93l8 28l2 2q63 -30 135 -30q35 0 71 9.5t66 26.5q-2 58 -11 104q-59 -54 -122 -54q-48 0 -74.5 25t-26.5 69q0 59 33 125.5t93 156.5l21 33l7 -5q-23 -32 -54 -82q88 -67 125 -158zM638 193q-14 57 -47 108.5t-93 103.5
q-60 -108 -60 -157q0 -42 25 -66t70 -24q46 0 105 35zM507.5 649.5q9.5 -7.5 9.5 -16.5q0 -8 -27 -49q-28 20 -55 36l18 30q11 19 13 22l3 1q29 -16 38.5 -23.5zM633.5 649.5q9.5 -7.5 9.5 -16.5q0 -8 -27 -49q-28 20 -55 36l18 30q11 19 13 22l3 1q29 -16 38.5 -23.5z
M263.5 -323.5q9.5 -7.5 9.5 -16.5t-27 -49q-28 20 -55 36l18 30q11 19 13 22l3 1q29 -16 38.5 -23.5zM389.5 -323.5q9.5 -7.5 9.5 -16.5t-27 -49q-28 20 -55 36l18 30q11 19 13 22l3 1q29 -16 38.5 -23.5z" />
    <glyph glyph-name="uniFC37" unicode="&#xfc37;" horiz-adv-x="578" arabic-form="isolated" 
d="M510.5 680q17.5 -20 17.5 -58q0 -32 -5 -85l-8 1q1 15 1 44q0 77 -45 77q-31 0 -97 -33.5t-139.5 -82t-121.5 -88.5q54 -18 121.5 -57t112.5 -79q43 -38 79 -85t57.5 -85t21.5 -51q0 -7 -6.5 -28t-9.5 -22q-79 -32 -146 -45t-152 -13q-17 0 -42.5 3t-42.5 7q-4 1 -14 20
t-10 24q-3 65 -6.5 153.5t-5.5 135.5q-3 59 -6 145.5t-9 199.5q20 6 48 24h3v-211q79 65 197 137t157 72q33 0 50.5 -20zM389 219q-61 70 -135.5 125t-147.5 81v-384q10 -5 41.5 -8t67.5 -3q79 0 143.5 11.5t127.5 36.5q-36 71 -97 141z" />
    <glyph glyph-name="uniFC3B" unicode="&#xfc3b;" horiz-adv-x="922" arabic-form="isolated" 
d="M854.5 680q17.5 -20 17.5 -58q0 -32 -5 -85l-8 1q1 15 1 44q0 77 -45 77q-30 0 -95.5 -33t-138.5 -80.5t-122 -88.5v-3q55 -18 121.5 -56.5t110.5 -78.5q43 -38 79 -85t57.5 -85t21.5 -51q0 -7 -6.5 -28t-9.5 -22q-79 -32 -146 -45t-152 -13q-37 0 -75 8v-24
q0 -52 -39.5 -99t-98 -76t-112.5 -29q-74 0 -114.5 39.5t-40.5 111.5q0 35 8.5 89.5t25.5 107.5l8 -3q-28 -100 -28 -154q0 -73 39 -111.5t112 -38.5q56 0 118 35t101 92l-4 113q-2 55 -9.5 245.5t-17.5 359.5q20 6 48 24h3v-181q84 66 195.5 133.5t149.5 67.5
q33 0 50.5 -20zM672 282q-104 98 -213 140l1 -383q27 -9 99 -9q79 0 143.5 11.5t127.5 36.5q-54 106 -158 204z" />
    <glyph glyph-name="uniFC3D" unicode="&#xfc3d;" horiz-adv-x="868" arabic-form="isolated" 
d="M818 585q0 -32 -5 -85l-8 1q1 15 1 44q0 77 -45 77q-46 0 -154.5 -60.5t-182.5 -122.5q55 -17 115.5 -51.5t104.5 -73.5q66 -59 109 -122.5t43 -93.5q0 -7 -6.5 -28.5t-9.5 -22.5q-72 -33 -133 -45t-122 -12q-29 0 -60 6.5t-57 18.5l98 -71q2 -3 4.5 -9t1.5 -7
q-38 -72 -121.5 -115t-180.5 -43q-74 0 -114.5 39.5t-40.5 111.5q0 35 8.5 89.5t25.5 107.5l8 -3q-28 -100 -28 -154q0 -73 39 -111.5t112 -38.5q58 0 115 18.5t100.5 48t62.5 61.5l-128 93l8 28l2 2q67 -32 150 -32q63 0 123 10t123 38q-30 65 -86 131.5t-127 120
t-143 80.5l-12 34q3 10 7 20.5t7 14.5q74 61 180.5 122.5t147.5 61.5q68 0 68 -78z" />
    <glyph glyph-name="uniFC3E" unicode="&#xfc3e;" horiz-adv-x="868" arabic-form="isolated" 
d="M818 585q0 -32 -5 -85l-8 1q1 15 1 44q0 77 -45 77q-46 0 -154.5 -60.5t-182.5 -122.5q55 -17 115.5 -51.5t104.5 -73.5q66 -59 109 -122.5t43 -93.5q0 -7 -6.5 -28.5t-9.5 -22.5q-72 -33 -133 -45t-122 -12q-29 0 -60 6.5t-57 18.5l98 -71q2 -3 4.5 -9t1.5 -7
q-38 -72 -121.5 -115t-180.5 -43q-74 0 -114.5 39.5t-40.5 111.5q0 35 8.5 89.5t25.5 107.5l8 -3q-28 -100 -28 -154q0 -73 39 -111.5t112 -38.5q58 0 115 18.5t100.5 48t62.5 61.5l-128 93l8 28l2 2q67 -32 150 -32q63 0 123 10t123 38q-30 65 -86 131.5t-127 120
t-143 80.5l-12 34q3 10 7 20.5t7 14.5q74 61 180.5 122.5t147.5 61.5q68 0 68 -78zM268.5 -323.5q9.5 -7.5 9.5 -16.5t-27 -49q-28 20 -55 36l18 30q11 19 13 22l3 1q29 -16 38.5 -23.5zM394.5 -323.5q9.5 -7.5 9.5 -16.5t-27 -49q-28 20 -55 36l18 30q11 19 13 22l3 1
q29 -16 38.5 -23.5z" />
    <glyph glyph-name="uniFC42" unicode="&#xfc42;" horiz-adv-x="296" arabic-form="isolated" 
d="M277 55q6 -2 22.5 -8t31.5 -14q-7 -14 -14 -40l-3 -2q-113 56 -234 66q23 -183 60 -366q-20 -13 -42 -32h-3q-11 153 -20 263q-10 118 -10 134q0 4 9.5 17.5t16.5 20.5q21 1 65.5 -7t71.5 -19q-48 65 -51 175q-8 279 -21 469q20 6 48 24h3v-556q0 -42 10 -73t23 -38
q14 -7 37 -14z" />
    <glyph glyph-name="uniFC43" unicode="&#xfc43;" horiz-adv-x="656" arabic-form="isolated" 
d="M591 680v-594q0 -5 -6.5 -30t-12.5 -42q-42 -24 -82 -24q-22 0 -39 6t-42 19l97 -71q2 -3 4.5 -9t1.5 -7q-38 -72 -121.5 -115t-180.5 -43q-74 0 -114.5 39.5t-40.5 111.5q0 35 8.5 89.5t25.5 107.5l8 -3q-28 -100 -28 -154q0 -73 39 -111.5t112 -38.5q58 0 115 18.5
t100.5 48t62.5 61.5l-128 93l8 28l2 2q54 -32 107 -32q24 0 40.5 2.5t37.5 9.5q-11 350 -25 614q20 6 48 24h3z" />
    <glyph glyph-name="uniFC44" unicode="&#xfc44;" horiz-adv-x="656" arabic-form="isolated" 
d="M591 680v-594q0 -5 -6.5 -30t-12.5 -42q-42 -24 -82 -24q-22 0 -39 6t-42 19l97 -71q2 -3 4.5 -9t1.5 -7q-38 -72 -121.5 -115t-180.5 -43q-74 0 -114.5 39.5t-40.5 111.5q0 35 8.5 89.5t25.5 107.5l8 -3q-28 -100 -28 -154q0 -73 39 -111.5t112 -38.5q58 0 115 18.5
t100.5 48t62.5 61.5l-128 93l8 28l2 2q54 -32 107 -32q24 0 40.5 2.5t37.5 9.5q-11 350 -25 614q20 6 48 24h3zM292.5 -323.5q9.5 -7.5 9.5 -16.5t-27 -49q-28 20 -55 36l18 30q11 19 13 22l3 1q29 -16 38.5 -23.5zM418.5 -323.5q9.5 -7.5 9.5 -16.5t-27 -49q-28 20 -55 36
l18 30q11 19 13 22l3 1q29 -16 38.5 -23.5z" />
    <glyph glyph-name="uniFC4E" unicode="&#xfc4e;" horiz-adv-x="454" arabic-form="isolated" 
d="M352 336.5q30 -9.5 82 -35.5v-3q-14 -14 -29 -33q-42 27 -67.5 37t-51.5 10q-43 0 -82.5 -33t-54.5 -94q15 -45 30 -68t30.5 -32.5t42.5 -18.5q33 -11 53 -22q-7 -14 -14 -40l-3 -2q-47 23 -100.5 36.5t-106.5 17.5q23 -182 59 -365q-20 -13 -42 -32h-3q-11 153 -20 263
q-10 118 -10 134q0 4 9.5 17.5t16.5 20.5q44 -2 85 -14q-13 14 -27.5 46t-14.5 58q0 42 22 79.5t59 60t79 22.5q28 0 58 -9.5zM345.5 561.5q9.5 -7.5 9.5 -16.5q0 -8 -27 -49q-28 20 -55 36l18 30q11 19 13 22l3 1q29 -16 38.5 -23.5z" />
    <glyph glyph-name="uniFC4F" unicode="&#xfc4f;" horiz-adv-x="643" arabic-form="isolated" 
d="M495 -10q-42 0 -86 20l36 -24q31 -19 61 -42q2 -3 4.5 -9t1.5 -7q-38 -72 -121.5 -115t-180.5 -43q-74 0 -114.5 39.5t-40.5 111.5q0 35 8.5 89.5t25.5 107.5l8 -3q-28 -100 -28 -154q0 -73 39 -111.5t112 -38.5q58 0 115 18.5t100.5 48t62.5 61.5q-31 23 -87 61l-41 27
l8 28l2 2q57 -27 102 -27q49 0 82 15q-10 119 -68 263q20 15 37 36h4q22 -69 36.5 -144.5t14.5 -112.5q0 -7 -5 -32.5t-9 -36.5q-34 -28 -79 -28zM509.5 534.5q9.5 -7.5 9.5 -16.5q0 -8 -27 -49q-28 20 -55 36l18 30q11 19 13 22l3 1q29 -16 38.5 -23.5z" />
    <glyph glyph-name="uniFC50" unicode="&#xfc50;" horiz-adv-x="643" arabic-form="isolated" 
d="M495 -10q-42 0 -86 20l36 -24q31 -19 61 -42q2 -3 4.5 -9t1.5 -7q-38 -72 -121.5 -115t-180.5 -43q-74 0 -114.5 39.5t-40.5 111.5q0 35 8.5 89.5t25.5 107.5l8 -3q-28 -100 -28 -154q0 -73 39 -111.5t112 -38.5q58 0 115 18.5t100.5 48t62.5 61.5q-31 23 -87 61l-41 27
l8 28l2 2q57 -27 102 -27q49 0 82 15q-10 119 -68 263q20 15 37 36h4q22 -69 36.5 -144.5t14.5 -112.5q0 -7 -5 -32.5t-9 -36.5q-34 -28 -79 -28zM509.5 534.5q9.5 -7.5 9.5 -16.5q0 -8 -27 -49q-28 20 -55 36l18 30q11 19 13 22l3 1q29 -16 38.5 -23.5zM268.5 -323.5
q9.5 -7.5 9.5 -16.5t-27 -49q-28 20 -55 36l18 30q11 19 13 22l3 1q29 -16 38.5 -23.5zM394.5 -323.5q9.5 -7.5 9.5 -16.5t-27 -49q-28 20 -55 36l18 30q11 19 13 22l3 1q29 -16 38.5 -23.5z" />
    <glyph glyph-name="uniFC58" unicode="&#xfc58;" horiz-adv-x="454" arabic-form="isolated" 
d="M352 336.5q30 -9.5 82 -35.5v-3q-14 -14 -29 -33q-42 27 -67.5 37t-51.5 10q-43 0 -82.5 -33t-54.5 -94q15 -45 30 -68t30.5 -32.5t42.5 -18.5q33 -11 53 -22q-7 -14 -14 -40l-3 -2q-47 23 -100.5 36.5t-106.5 17.5q23 -182 59 -365q-20 -13 -42 -32h-3q-11 153 -20 263
q-10 118 -10 134q0 4 9.5 17.5t16.5 20.5q44 -2 85 -14q-13 14 -27.5 46t-14.5 58q0 42 22 79.5t59 60t79 22.5q28 0 58 -9.5zM304.5 -88.5q9.5 -7.5 9.5 -16.5t-27 -49q-28 20 -55 36l18 30q11 19 13 22l3 1q29 -16 38.5 -23.5zM430.5 -88.5q9.5 -7.5 9.5 -16.5t-27 -49
q-28 20 -55 36l18 30q11 19 13 22l3 1q29 -16 38.5 -23.5z" />
    <glyph glyph-name="uniFC64" unicode="&#xfc64;" horiz-adv-x="516" arabic-form="final" 
d="M523 27q3 -3 3 -7v-18q0 -12 -11 -12q-75 0 -115 71.5t-44 198.5q-29 -43 -70 -67.5t-93 -25.5q28 -79 28 -132q0 -61 -25 -116.5t-67.5 -95t-93.5 -53.5l-155 88l4 8q52 -29 78.5 -40t57.5 -11q29 0 67.5 25t71.5 73t46 112q-21 61 -39.5 103t-43.5 88q19 19 32 40h4
q16 -26 40.5 -39t50.5 -13q72 0 122 96l7 -2q0 -132 34 -200t103 -68q5 0 8 -3zM430 455v-4q-6 -11 -18 -39l-22 -4l-8 -39l-9 1l7 36q-63 -11 -113 -33l-4 22q32 22 64 36q-22 7 -37 22t-15 29q0 16 15 37.5t37.5 37t42.5 15.5q39 0 39 -44q0 -24 -12 -81zM388 445
q10 55 10 68q0 9 -5 13.5t-14 4.5q-22 0 -46.5 -14.5t-47.5 -42.5q8 -15 24 -25t34 -10t45 6z" />
    <glyph glyph-name="uniFC65" unicode="&#xfc65;" horiz-adv-x="516" arabic-form="final" 
d="M523 27q3 -3 3 -7v-18q0 -12 -11 -12q-75 0 -115 71.5t-44 198.5q-29 -43 -70 -67.5t-93 -25.5q28 -79 28 -132q0 -61 -25 -116.5t-67.5 -95t-93.5 -53.5l-155 88l4 8q52 -29 78.5 -40t57.5 -11q29 0 67.5 25t71.5 73t46 112q-21 61 -39.5 103t-43.5 88q19 19 32 40h4
q16 -26 40.5 -39t50.5 -13q72 0 122 96l7 -2q0 -132 34 -200t103 -68q5 0 8 -3zM129.5 444.5q9.5 -7.5 9.5 -16.5q0 -8 -27 -49q-28 20 -55 36l18 30q11 19 13 22l3 1q29 -16 38.5 -23.5zM430 455v-4q-6 -11 -18 -39l-22 -4l-8 -39l-9 1l7 36q-63 -11 -113 -33l-4 22
q32 22 64 36q-22 7 -37 22t-15 29q0 16 15 37.5t37.5 37t42.5 15.5q39 0 39 -44q0 -24 -12 -81zM388 445q10 55 10 68q0 9 -5 13.5t-14 4.5q-22 0 -46.5 -14.5t-47.5 -42.5q8 -15 24 -25t34 -10t45 6z" />
    <glyph glyph-name="uniFC67" unicode="&#xfc67;" horiz-adv-x="749" arabic-form="final" 
d="M756 27q3 -3 3 -7v-18q0 -12 -11 -12q-73 0 -109 59t-40 182q-27 -40 -74 -65t-103 -28q23 -102 23 -164q0 -52 -36 -99.5t-91 -76t-108 -28.5q-74 0 -114.5 39.5t-40.5 111.5q0 35 8.5 89.5t25.5 107.5l8 -3q-28 -100 -28 -154q0 -72 37 -111t106 -39q60 0 116 33.5
t96 93.5q-6 62 -21 118t-42 130q21 19 35 42h4q16 -26 40.5 -39.5t49.5 -13.5q33 0 65 22.5t59 73.5l7 -2q0 -88 13 -140t40.5 -75.5t73.5 -23.5q5 0 8 -3zM670 435v-4q-6 -11 -18 -39l-22 -4l-8 -39l-9 1l7 36q-63 -11 -113 -33l-4 22q32 22 64 36q-22 7 -37 22t-15 29
q0 16 15 37.5t37.5 37t42.5 15.5q39 0 39 -44q0 -24 -12 -81zM628 425q10 55 10 68q0 9 -5 13.5t-14 4.5q-22 0 -46.5 -14.5t-47.5 -42.5q8 -15 24 -25t34 -10t45 6zM245.5 343.5q9.5 -7.5 9.5 -16.5q0 -8 -27 -49q-28 20 -55 36l18 30q11 19 13 22l3 1q29 -16 38.5 -23.5z
" />
    <glyph glyph-name="uniFC68" unicode="&#xfc68;" horiz-adv-x="715" arabic-form="final" 
d="M548 311.5q16 -22.5 18 -71.5q5 -102 40.5 -156t107.5 -54q5 0 8 -3t3 -7v-18q0 -12 -11 -12q-57 0 -89 24.5t-47 75.5t-22 142q-4 61 -50 61q-30 0 -69.5 -24.5t-76.5 -64.5t-61 -85q56 -29 89 -40.5t88 -24.5l33 -8q4 -1 11.5 -17.5t7.5 -24.5q0 -53 -49 -107.5
t-123.5 -90.5t-145.5 -36q-74 0 -114.5 39.5t-40.5 111.5q0 35 8.5 89.5t25.5 107.5l8 -3q-28 -100 -28 -154q0 -73 39 -111.5t112 -38.5q63 0 123 27t104.5 72.5t63.5 99.5q-101 12 -165 38t-64 84q0 34 36.5 82.5t88 84t92.5 35.5q33 0 49 -22.5zM578 503v-4
q-6 -11 -18 -39l-22 -4l-8 -39l-9 1l7 36q-63 -11 -113 -33l-4 22q32 22 64 36q-22 7 -37 22t-15 29q0 16 15 37.5t37.5 37t42.5 15.5q39 0 39 -44q0 -24 -12 -81zM536 493q10 55 10 68q0 9 -5 13.5t-14 4.5q-22 0 -46.5 -14.5t-47.5 -42.5q8 -15 24 -25t34 -10t45 6z" />
    <glyph glyph-name="uniFC69" unicode="&#xfc69;" horiz-adv-x="715" arabic-form="final" 
d="M548 311.5q16 -22.5 18 -71.5q5 -102 40.5 -156t107.5 -54q5 0 8 -3t3 -7v-18q0 -12 -11 -12q-57 0 -89 24.5t-47 75.5t-22 142q-4 61 -50 61q-30 0 -69.5 -24.5t-76.5 -64.5t-61 -85q56 -29 89 -40.5t88 -24.5l33 -8q4 -1 11.5 -17.5t7.5 -24.5q0 -53 -49 -107.5
t-123.5 -90.5t-145.5 -36q-74 0 -114.5 39.5t-40.5 111.5q0 35 8.5 89.5t25.5 107.5l8 -3q-28 -100 -28 -154q0 -73 39 -111.5t112 -38.5q63 0 123 27t104.5 72.5t63.5 99.5q-101 12 -165 38t-64 84q0 34 36.5 82.5t88 84t92.5 35.5q33 0 49 -22.5zM569 510v-4
q-6 -11 -18 -39l-22 -4l-8 -39l-9 1l7 36q-63 -11 -113 -33l-4 22q32 22 64 36q-22 7 -37 22t-15 29q0 16 15 37.5t37.5 37t42.5 15.5q39 0 39 -44q0 -24 -12 -81zM527 500q10 55 10 68q0 9 -5 13.5t-14 4.5q-22 0 -46.5 -14.5t-47.5 -42.5q8 -15 24 -25t34 -10t45 6z
M278.5 -323.5q9.5 -7.5 9.5 -16.5t-27 -49q-28 20 -55 36l18 30q11 19 13 22l3 1q29 -16 38.5 -23.5zM404.5 -323.5q9.5 -7.5 9.5 -16.5t-27 -49q-28 20 -55 36l18 30q11 19 13 22l3 1q29 -16 38.5 -23.5z" />
    <glyph glyph-name="uniFC6A" unicode="&#xfc6a;" horiz-adv-x="516" arabic-form="final" 
d="M523 27q3 -3 3 -7v-18q0 -12 -11 -12q-75 0 -115 71.5t-44 198.5q-29 -43 -70 -67.5t-93 -25.5q28 -79 28 -132q0 -61 -25 -116.5t-67.5 -95t-93.5 -53.5l-155 88l4 8q52 -29 78.5 -40t57.5 -11q29 0 67.5 25t71.5 73t46 112q-21 61 -39.5 103t-43.5 88q19 19 32 40h4
q16 -26 40.5 -39t50.5 -13q72 0 122 96l7 -2q0 -132 34 -200t103 -68q5 0 8 -3zM374.5 -45.5q9.5 -7.5 9.5 -16.5t-27 -49q-28 20 -55 36l18 30q11 19 13 22l3 1q29 -16 38.5 -23.5z" />
    <glyph glyph-name="uniFC6B" unicode="&#xfc6b;" horiz-adv-x="516" arabic-form="final" 
d="M523 27q3 -3 3 -7v-18q0 -12 -11 -12q-75 0 -115 71.5t-44 198.5q-29 -43 -70 -67.5t-93 -25.5q28 -79 28 -132q0 -61 -25 -116.5t-67.5 -95t-93.5 -53.5l-155 88l4 8q52 -29 78.5 -40t57.5 -11q29 0 67.5 25t71.5 73t46 112q-21 61 -39.5 103t-43.5 88q19 19 32 40h4
q16 -26 40.5 -39t50.5 -13q72 0 122 96l7 -2q0 -132 34 -200t103 -68q5 0 8 -3zM129.5 434.5q9.5 -7.5 9.5 -16.5q0 -8 -27 -49q-28 20 -55 36l18 30q11 19 13 22l3 1q29 -16 38.5 -23.5zM373.5 -45.5q9.5 -7.5 9.5 -16.5t-27 -49q-28 20 -55 36l18 30q11 19 13 22l3 1
q29 -16 38.5 -23.5z" />
    <glyph glyph-name="uniFC6D" unicode="&#xfc6d;" horiz-adv-x="749" arabic-form="final" 
d="M756 27q3 -3 3 -7v-18q0 -12 -11 -12q-73 0 -109 59t-40 182q-27 -40 -74 -65t-103 -28q23 -102 23 -164q0 -52 -36 -99.5t-91 -76t-108 -28.5q-74 0 -114.5 39.5t-40.5 111.5q0 35 8.5 89.5t25.5 107.5l8 -3q-28 -100 -28 -154q0 -72 37 -111t106 -39q60 0 116 33.5
t96 93.5q-6 62 -21 118t-42 130q21 19 35 42h4q16 -26 40.5 -39.5t49.5 -13.5q33 0 65 22.5t59 73.5l7 -2q0 -88 13 -140t40.5 -75.5t73.5 -23.5q5 0 8 -3zM594.5 -66.5q9.5 -7.5 9.5 -16.5t-27 -49q-28 20 -55 36l18 30q11 19 13 22l3 1q29 -16 38.5 -23.5zM255.5 343.5
q9.5 -7.5 9.5 -16.5q0 -8 -27 -49q-28 20 -55 36l18 30q11 19 13 22l3 1q29 -16 38.5 -23.5z" />
    <glyph glyph-name="uniFC6E" unicode="&#xfc6e;" horiz-adv-x="715" arabic-form="final" 
d="M548 311.5q16 -22.5 18 -71.5q5 -102 40.5 -156t107.5 -54q5 0 8 -3t3 -7v-18q0 -12 -11 -12q-57 0 -89 24.5t-47 75.5t-22 142q-4 61 -50 61q-30 0 -69.5 -24.5t-76.5 -64.5t-61 -85q56 -29 89 -40.5t88 -24.5l33 -8q4 -1 11.5 -17.5t7.5 -24.5q0 -53 -49 -107.5
t-123.5 -90.5t-145.5 -36q-74 0 -114.5 39.5t-40.5 111.5q0 35 8.5 89.5t25.5 107.5l8 -3q-28 -100 -28 -154q0 -73 39 -111.5t112 -38.5q63 0 123 27t104.5 72.5t63.5 99.5q-101 12 -165 38t-64 84q0 34 36.5 82.5t88 84t92.5 35.5q33 0 49 -22.5zM620.5 -112.5
q9.5 -7.5 9.5 -16.5t-27 -49q-28 20 -55 36l18 30q11 19 13 22l3 1q29 -16 38.5 -23.5z" />
    <glyph glyph-name="uniFC6F" unicode="&#xfc6f;" horiz-adv-x="715" arabic-form="final" 
d="M548 311.5q16 -22.5 18 -71.5q5 -102 40.5 -156t107.5 -54q5 0 8 -3t3 -7v-18q0 -12 -11 -12q-57 0 -89 24.5t-47 75.5t-22 142q-4 61 -50 61q-30 0 -69.5 -24.5t-76.5 -64.5t-61 -85q56 -29 89 -40.5t88 -24.5l33 -8q4 -1 11.5 -17.5t7.5 -24.5q0 -53 -49 -107.5
t-123.5 -90.5t-145.5 -36q-74 0 -114.5 39.5t-40.5 111.5q0 35 8.5 89.5t25.5 107.5l8 -3q-28 -100 -28 -154q0 -73 39 -111.5t112 -38.5q63 0 123 27t104.5 72.5t63.5 99.5q-101 12 -165 38t-64 84q0 34 36.5 82.5t88 84t92.5 35.5q33 0 49 -22.5zM620.5 -112.5
q9.5 -7.5 9.5 -16.5t-27 -49q-28 20 -55 36l18 30q11 19 13 22l3 1q29 -16 38.5 -23.5zM286.5 -309.5q9.5 -7.5 9.5 -16.5t-27 -49q-28 20 -55 36l18 30q11 19 13 22l3 1q29 -16 38.5 -23.5zM412.5 -309.5q9.5 -7.5 9.5 -16.5t-27 -49q-28 20 -55 36l18 30q11 19 13 22l3 1
q29 -16 38.5 -23.5z" />
    <glyph glyph-name="uniFC70" unicode="&#xfc70;" horiz-adv-x="516" arabic-form="final" 
d="M523 27q3 -3 3 -7v-18q0 -12 -11 -12q-75 0 -115 71.5t-44 198.5q-29 -43 -70 -67.5t-93 -25.5q28 -79 28 -132q0 -61 -25 -116.5t-67.5 -95t-93.5 -53.5l-155 88l4 8q52 -29 78.5 -40t57.5 -11q29 0 67.5 25t71.5 73t46 112q-21 61 -39.5 103t-43.5 88q19 19 32 40h4
q16 -26 40.5 -39t50.5 -13q72 0 122 96l7 -2q0 -132 34 -200t103 -68q5 0 8 -3zM318.5 512.5q9.5 -7.5 9.5 -16.5q0 -8 -27 -49q-28 20 -55 36l18 30q11 19 13 22l3 1q29 -16 38.5 -23.5zM444.5 512.5q9.5 -7.5 9.5 -16.5q0 -8 -27 -49q-28 20 -55 36l18 30q11 19 13 22l3 1
q29 -16 38.5 -23.5z" />
    <glyph glyph-name="uniFC71" unicode="&#xfc71;" horiz-adv-x="516" arabic-form="final" 
d="M523 27q3 -3 3 -7v-18q0 -12 -11 -12q-75 0 -115 71.5t-44 198.5q-29 -43 -70 -67.5t-93 -25.5q28 -79 28 -132q0 -61 -25 -116.5t-67.5 -95t-93.5 -53.5l-155 88l4 8q52 -29 78.5 -40t57.5 -11q29 0 67.5 25t71.5 73t46 112q-21 61 -39.5 103t-43.5 88q19 19 32 40h4
q16 -26 40.5 -39t50.5 -13q72 0 122 96l7 -2q0 -132 34 -200t103 -68q5 0 8 -3zM133.5 439.5q9.5 -7.5 9.5 -16.5q0 -8 -27 -49q-28 20 -55 36l18 30q11 19 13 22l3 1q29 -16 38.5 -23.5zM318.5 512.5q9.5 -7.5 9.5 -16.5q0 -8 -27 -49q-28 20 -55 36l18 30q11 19 13 22l3 1
q29 -16 38.5 -23.5zM444.5 512.5q9.5 -7.5 9.5 -16.5q0 -8 -27 -49q-28 20 -55 36l18 30q11 19 13 22l3 1q29 -16 38.5 -23.5z" />
    <glyph glyph-name="uniFC73" unicode="&#xfc73;" horiz-adv-x="759" arabic-form="final" 
d="M756 27q3 -3 3 -7v-18q0 -12 -11 -12q-73 0 -109 59t-40 182q-27 -40 -74 -65t-103 -28q23 -102 23 -164q0 -52 -36 -99.5t-91 -76t-108 -28.5q-74 0 -114.5 39.5t-40.5 111.5q0 35 8.5 89.5t25.5 107.5l8 -3q-28 -100 -28 -154q0 -72 37 -111t106 -39q60 0 116 33.5
t96 93.5q-6 62 -21 118t-42 130q21 19 35 42h4q16 -26 40.5 -39.5t49.5 -13.5q33 0 65 22.5t59 73.5l7 -2q0 -88 13 -140t40.5 -75.5t73.5 -23.5q5 0 8 -3zM547.5 492.5q9.5 -7.5 9.5 -16.5q0 -8 -27 -49q-28 20 -55 36l18 30q11 19 13 22l3 1q29 -16 38.5 -23.5z
M673.5 492.5q9.5 -7.5 9.5 -16.5q0 -8 -27 -49q-28 20 -55 36l18 30q11 19 13 22l3 1q29 -16 38.5 -23.5zM255.5 343.5q9.5 -7.5 9.5 -16.5q0 -8 -27 -49q-28 20 -55 36l18 30q11 19 13 22l3 1q29 -16 38.5 -23.5z" />
    <glyph glyph-name="uniFC74" unicode="&#xfc74;" horiz-adv-x="715" arabic-form="final" 
d="M548 311.5q16 -22.5 18 -71.5q5 -102 40.5 -156t107.5 -54q5 0 8 -3t3 -7v-18q0 -12 -11 -12q-57 0 -89 24.5t-47 75.5t-22 142q-4 61 -50 61q-30 0 -69.5 -24.5t-76.5 -64.5t-61 -85q56 -29 89 -40.5t88 -24.5l33 -8q4 -1 11.5 -17.5t7.5 -24.5q0 -53 -49 -107.5
t-123.5 -90.5t-145.5 -36q-74 0 -114.5 39.5t-40.5 111.5q0 35 8.5 89.5t25.5 107.5l8 -3q-28 -100 -28 -154q0 -73 39 -111.5t112 -38.5q63 0 123 27t104.5 72.5t63.5 99.5q-101 12 -165 38t-64 84q0 34 36.5 82.5t88 84t92.5 35.5q33 0 49 -22.5zM470.5 527.5
q9.5 -7.5 9.5 -16.5q0 -8 -27 -49q-28 20 -55 36l18 30q11 19 13 22l3 1q29 -16 38.5 -23.5zM596.5 527.5q9.5 -7.5 9.5 -16.5q0 -8 -27 -49q-28 20 -55 36l18 30q11 19 13 22l3 1q29 -16 38.5 -23.5z" />
    <glyph glyph-name="uniFC75" unicode="&#xfc75;" horiz-adv-x="715" arabic-form="final" 
d="M548 311.5q16 -22.5 18 -71.5q5 -102 40.5 -156t107.5 -54q5 0 8 -3t3 -7v-18q0 -12 -11 -12q-57 0 -89 24.5t-47 75.5t-22 142q-4 61 -50 61q-30 0 -69.5 -24.5t-76.5 -64.5t-61 -85q56 -29 89 -40.5t88 -24.5l33 -8q4 -1 11.5 -17.5t7.5 -24.5q0 -53 -49 -107.5
t-123.5 -90.5t-145.5 -36q-74 0 -114.5 39.5t-40.5 111.5q0 35 8.5 89.5t25.5 107.5l8 -3q-28 -100 -28 -154q0 -73 39 -111.5t112 -38.5q63 0 123 27t104.5 72.5t63.5 99.5q-101 12 -165 38t-64 84q0 34 36.5 82.5t88 84t92.5 35.5q33 0 49 -22.5zM470.5 527.5
q9.5 -7.5 9.5 -16.5q0 -8 -27 -49q-28 20 -55 36l18 30q11 19 13 22l3 1q29 -16 38.5 -23.5zM596.5 527.5q9.5 -7.5 9.5 -16.5q0 -8 -27 -49q-28 20 -55 36l18 30q11 19 13 22l3 1q29 -16 38.5 -23.5zM278.5 -323.5q9.5 -7.5 9.5 -16.5t-27 -49q-28 20 -55 36l18 30
q11 19 13 22l3 1q29 -16 38.5 -23.5zM404.5 -323.5q9.5 -7.5 9.5 -16.5t-27 -49q-28 20 -55 36l18 30q11 19 13 22l3 1q29 -16 38.5 -23.5z" />
    <glyph glyph-name="uniFC76" unicode="&#xfc76;" horiz-adv-x="516" arabic-form="final" 
d="M523 27q3 -3 3 -7v-18q0 -12 -11 -12q-75 0 -115 71.5t-44 198.5q-29 -43 -70 -67.5t-93 -25.5q28 -79 28 -132q0 -61 -25 -116.5t-67.5 -95t-93.5 -53.5l-155 88l4 8q52 -29 78.5 -40t57.5 -11q29 0 67.5 25t71.5 73t46 112q-21 61 -39.5 103t-43.5 88q19 19 32 40h4
q16 -26 40.5 -39t50.5 -13q72 0 122 96l7 -2q0 -132 34 -200t103 -68q5 0 8 -3zM377 575q9 -7 8 -16q0 -7 -12 -24t-15 -22q-26 20 -51 36l30 48l3 1q28 -16 37 -23zM316.5 491.5q9.5 -7.5 9.5 -16.5q0 -8 -27 -49q-28 20 -55 36l18 30q11 19 13 22l3 1q29 -16 38.5 -23.5z
M442.5 491.5q9.5 -7.5 9.5 -16.5q0 -8 -27 -49q-28 20 -55 36l18 30q11 19 13 22l3 1q29 -16 38.5 -23.5z" />
    <glyph glyph-name="uniFC77" unicode="&#xfc77;" horiz-adv-x="516" arabic-form="final" 
d="M523 27q3 -3 3 -7v-18q0 -12 -11 -12q-75 0 -115 71.5t-44 198.5q-29 -43 -70 -67.5t-93 -25.5q28 -79 28 -132q0 -61 -25 -116.5t-67.5 -95t-93.5 -53.5l-155 88l4 8q52 -29 78.5 -40t57.5 -11q29 0 67.5 25t71.5 73t46 112q-21 61 -39.5 103t-43.5 88q19 19 32 40h4
q16 -26 40.5 -39t50.5 -13q72 0 122 96l7 -2q0 -132 34 -200t103 -68q5 0 8 -3zM126.5 443.5q9.5 -7.5 9.5 -16.5q0 -8 -27 -49q-28 20 -55 36l18 30q11 19 13 22l3 1q29 -16 38.5 -23.5zM377 575q9 -7 8 -16q0 -7 -12 -24t-15 -22q-26 20 -51 36l30 48l3 1q28 -16 37 -23z
M316.5 491.5q9.5 -7.5 9.5 -16.5q0 -8 -27 -49q-28 20 -55 36l18 30q11 19 13 22l3 1q29 -16 38.5 -23.5zM442.5 491.5q9.5 -7.5 9.5 -16.5q0 -8 -27 -49q-28 20 -55 36l18 30q11 19 13 22l3 1q29 -16 38.5 -23.5z" />
    <glyph glyph-name="uniFC79" unicode="&#xfc79;" horiz-adv-x="759" arabic-form="final" 
d="M756 27q3 -3 3 -7v-18q0 -12 -11 -12q-73 0 -109 59t-40 182q-27 -40 -74 -65t-103 -28q23 -102 23 -164q0 -52 -36 -99.5t-91 -76t-108 -28.5q-74 0 -114.5 39.5t-40.5 111.5q0 35 8.5 89.5t25.5 107.5l8 -3q-28 -100 -28 -154q0 -72 37 -111t106 -39q60 0 116 33.5
t96 93.5q-6 62 -21 118t-42 130q21 19 35 42h4q16 -26 40.5 -39.5t49.5 -13.5q33 0 65 22.5t59 73.5l7 -2q0 -88 13 -140t40.5 -75.5t73.5 -23.5q5 0 8 -3zM628 555q9 -7 8 -16q0 -7 -12 -24t-15 -22q-26 20 -51 36l30 48l3 1q28 -16 37 -23zM567.5 471.5
q9.5 -7.5 9.5 -16.5q0 -8 -27 -49q-28 20 -55 36l18 30q11 19 13 22l3 1q29 -16 38.5 -23.5zM693.5 471.5q9.5 -7.5 9.5 -16.5q0 -8 -27 -49q-28 20 -55 36l18 30q11 19 13 22l3 1q29 -16 38.5 -23.5zM265.5 343.5q9.5 -7.5 9.5 -16.5q0 -8 -27 -49q-28 20 -55 36l18 30
q11 19 13 22l3 1q29 -16 38.5 -23.5z" />
    <glyph glyph-name="uniFC7A" unicode="&#xfc7a;" horiz-adv-x="715" arabic-form="final" 
d="M548 311.5q16 -22.5 18 -71.5q5 -102 40.5 -156t107.5 -54q5 0 8 -3t3 -7v-18q0 -12 -11 -12q-57 0 -89 24.5t-47 75.5t-22 142q-4 61 -50 61q-30 0 -69.5 -24.5t-76.5 -64.5t-61 -85q56 -29 89 -40.5t88 -24.5l33 -8q4 -1 11.5 -17.5t7.5 -24.5q0 -53 -49 -107.5
t-123.5 -90.5t-145.5 -36q-74 0 -114.5 39.5t-40.5 111.5q0 35 8.5 89.5t25.5 107.5l8 -3q-28 -100 -28 -154q0 -73 39 -111.5t112 -38.5q63 0 123 27t104.5 72.5t63.5 99.5q-101 12 -165 38t-64 84q0 34 36.5 82.5t88 84t92.5 35.5q33 0 49 -22.5zM530 598q9 -7 8 -16
q0 -7 -12 -24t-15 -22q-26 20 -51 36l30 48l3 1q28 -16 37 -23zM469.5 514.5q9.5 -7.5 9.5 -16.5q0 -8 -27 -49q-28 20 -55 36l18 30q11 19 13 22l3 1q29 -16 38.5 -23.5zM595.5 514.5q9.5 -7.5 9.5 -16.5q0 -8 -27 -49q-28 20 -55 36l18 30q11 19 13 22l3 1
q29 -16 38.5 -23.5z" />
    <glyph glyph-name="uniFC7B" unicode="&#xfc7b;" horiz-adv-x="715" arabic-form="final" 
d="M548 311.5q16 -22.5 18 -71.5q5 -102 40.5 -156t107.5 -54q5 0 8 -3t3 -7v-18q0 -12 -11 -12q-57 0 -89 24.5t-47 75.5t-22 142q-4 61 -50 61q-30 0 -69.5 -24.5t-76.5 -64.5t-61 -85q56 -29 89 -40.5t88 -24.5l33 -8q4 -1 11.5 -17.5t7.5 -24.5q0 -53 -49 -107.5
t-123.5 -90.5t-145.5 -36q-74 0 -114.5 39.5t-40.5 111.5q0 35 8.5 89.5t25.5 107.5l8 -3q-28 -100 -28 -154q0 -73 39 -111.5t112 -38.5q63 0 123 27t104.5 72.5t63.5 99.5q-101 12 -165 38t-64 84q0 34 36.5 82.5t88 84t92.5 35.5q33 0 49 -22.5zM530 598q9 -7 8 -16
q0 -7 -12 -24t-15 -22q-26 20 -51 36l30 48l3 1q28 -16 37 -23zM469.5 514.5q9.5 -7.5 9.5 -16.5q0 -8 -27 -49q-28 20 -55 36l18 30q11 19 13 22l3 1q29 -16 38.5 -23.5zM595.5 514.5q9.5 -7.5 9.5 -16.5q0 -8 -27 -49q-28 20 -55 36l18 30q11 19 13 22l3 1
q29 -16 38.5 -23.5zM278.5 -323.5q9.5 -7.5 9.5 -16.5t-27 -49q-28 20 -55 36l18 30q11 19 13 22l3 1q29 -16 38.5 -23.5zM404.5 -323.5q9.5 -7.5 9.5 -16.5t-27 -49q-28 20 -55 36l18 30q11 19 13 22l3 1q29 -16 38.5 -23.5z" />
    <glyph glyph-name="uniFC80" unicode="&#xfc80;" horiz-adv-x="593" arabic-form="final" 
d="M603 22v-23q0 -9 -8 -9q-57 0 -119 53q-75 -29 -139.5 -41t-145.5 -12q-17 0 -42.5 3t-42.5 7q-4 1 -14 20t-10 24q-3 65 -6.5 153.5t-5.5 135.5q-3 59 -6 145.5t-9 199.5q20 6 48 24h3v-211q79 65 197 137t157 72q33 0 50.5 -20t17.5 -58q0 -32 -5 -85l-8 1q1 15 1 44
q0 77 -45 77q-31 0 -97 -33.5t-139.5 -82t-121.5 -88.5q54 -18 121.5 -57t112.5 -79q43 -38 79 -85t57.5 -85t21.5 -51q0 -11 -10 -37q45 -31 100 -31q8 0 8 -8zM147.5 33q31.5 -3 67.5 -3q79 0 143.5 11.5t127.5 36.5q-36 71 -97 141t-135.5 125t-147.5 81v-384
q10 -5 41.5 -8z" />
    <glyph glyph-name="uniFC81" unicode="&#xfc81;" horiz-adv-x="943" arabic-form="final" 
d="M953 27v-28q0 -9 -8 -9q-28 0 -59.5 14.5t-61.5 40.5q-75 -30 -140.5 -42.5t-148.5 -12.5q-37 0 -75 8v-24q0 -52 -39.5 -99t-98 -76t-112.5 -29q-74 0 -114.5 39.5t-40.5 111.5q0 35 8.5 89.5t25.5 107.5l8 -3q-28 -100 -28 -154q0 -73 39 -111.5t112 -38.5q56 0 118 35
t101 92l-4 113q-2 55 -9.5 245.5t-17.5 359.5q20 6 48 24h3v-181q84 66 195.5 133.5t149.5 67.5q33 0 50.5 -20t17.5 -58q0 -32 -5 -85l-8 1q1 15 1 44q0 77 -45 77q-30 0 -95.5 -33t-138.5 -80.5t-122 -88.5v-3q55 -18 121.5 -56.5t110.5 -78.5q43 -38 79 -85t57.5 -85
t21.5 -51q0 -10 -7 -29q22 -16 49 -25t54 -9q8 0 8 -8zM559 30q79 0 143.5 11.5t127.5 36.5q-54 106 -158 204t-213 140l1 -383q27 -9 99 -9z" />
    <glyph glyph-name="uniFC83" unicode="&#xfc83;" horiz-adv-x="872" arabic-form="final" 
d="M882 22v-23q0 -9 -8 -9q-62 0 -107 12.5t-84 44t-78 88.5q-10 15 -21 33q16 -55 18 -150l-2 -3q-56 -25 -106 -25q-42 0 -85 21q19 -14 32 -21q36 -24 65 -46q2 -3 4.5 -9t1.5 -7q-38 -72 -121.5 -115t-180.5 -43q-74 0 -114.5 39.5t-40.5 111.5q0 35 8.5 89.5
t25.5 107.5l8 -3q-28 -100 -28 -154q0 -73 39 -111.5t112 -38.5q58 0 115 18.5t100.5 48t62.5 61.5q-51 36 -63 44q-12 9 -27.5 19.5t-37.5 26.5l8 28l2 2q58 -29 121 -29q51 0 92 14q-6 107 -33 167q-41 76 -69 155t-28 116q1 7 6 21t7 15q86 62 166 103.5t131 41.5
q36 0 55.5 -20.5t19.5 -57.5q0 -21 -4 -85l-9 1l2 45q0 36 -15.5 54.5t-44.5 18.5q-49 0 -130 -37t-170 -100q46 -129 98.5 -226t89.5 -136q38 -40 93.5 -65t115.5 -25q8 0 8 -8z" />
    <glyph glyph-name="uniFC84" unicode="&#xfc84;" horiz-adv-x="872" arabic-form="final" 
d="M882 22v-23q0 -9 -8 -9q-62 0 -107 12.5t-84 44t-78 88.5q-10 15 -21 33q16 -55 18 -150l-2 -3q-56 -25 -106 -25q-42 0 -85 21q19 -14 32 -21q36 -24 65 -46q2 -3 4.5 -9t1.5 -7q-38 -72 -121.5 -115t-180.5 -43q-74 0 -114.5 39.5t-40.5 111.5q0 35 8.5 89.5
t25.5 107.5l8 -3q-28 -100 -28 -154q0 -73 39 -111.5t112 -38.5q58 0 115 18.5t100.5 48t62.5 61.5q-51 36 -63 44q-12 9 -27.5 19.5t-37.5 26.5l8 28l2 2q58 -29 121 -29q51 0 92 14q-6 107 -33 167q-41 76 -69 155t-28 116q1 7 6 21t7 15q86 62 166 103.5t131 41.5
q36 0 55.5 -20.5t19.5 -57.5q0 -21 -4 -85l-9 1l2 45q0 36 -15.5 54.5t-44.5 18.5q-49 0 -130 -37t-170 -100q46 -129 98.5 -226t89.5 -136q38 -40 93.5 -65t115.5 -25q8 0 8 -8zM268.5 -323.5q9.5 -7.5 9.5 -16.5t-27 -49q-28 20 -55 36l18 30q11 19 13 22l3 1
q29 -16 38.5 -23.5zM394.5 -323.5q9.5 -7.5 9.5 -16.5t-27 -49q-28 20 -55 36l18 30q11 19 13 22l3 1q29 -16 38.5 -23.5z" />
    <glyph glyph-name="uniFC86" unicode="&#xfc86;" horiz-adv-x="649" arabic-form="final" 
d="M669 22v-23q0 -9 -8 -9q-32 0 -59.5 5.5t-41.5 14.5l-4 5q-33 -20 -66 -20q-23 0 -41.5 5t-40.5 15l98 -71q2 -3 4.5 -9t1.5 -7q-38 -72 -121.5 -115t-180.5 -43q-74 0 -114.5 39.5t-40.5 111.5q0 35 8.5 89.5t25.5 107.5l8 -3q-28 -100 -28 -154q0 -73 39 -111.5
t112 -38.5q58 0 115 18.5t100.5 48t62.5 61.5l-128 93l8 28l2 2q24 -13 52 -20t50 -7q34 0 56 11l-2 8q-5 94 -7.5 164.5t-4.5 117.5q-3 61 -6 146t-9 196q20 6 48 24h3v-651q16 -10 43.5 -15.5t57.5 -5.5q8 0 8 -8z" />
    <glyph glyph-name="uniFC87" unicode="&#xfc87;" horiz-adv-x="649" arabic-form="final" 
d="M669 22v-23q0 -9 -8 -9q-32 0 -59.5 5.5t-41.5 14.5l-4 5q-33 -20 -66 -20q-23 0 -41.5 5t-40.5 15l98 -71q2 -3 4.5 -9t1.5 -7q-38 -72 -121.5 -115t-180.5 -43q-74 0 -114.5 39.5t-40.5 111.5q0 35 8.5 89.5t25.5 107.5l8 -3q-28 -100 -28 -154q0 -73 39 -111.5
t112 -38.5q58 0 115 18.5t100.5 48t62.5 61.5l-128 93l8 28l2 2q24 -13 52 -20t50 -7q34 0 56 11l-2 8q-5 94 -7.5 164.5t-4.5 117.5q-3 61 -6 146t-9 196q20 6 48 24h3v-651q16 -10 43.5 -15.5t57.5 -5.5q8 0 8 -8zM288.5 -323.5q9.5 -7.5 9.5 -16.5t-27 -49q-28 20 -55 36
l18 30q11 19 13 22l3 1q29 -16 38.5 -23.5zM414.5 -323.5q9.5 -7.5 9.5 -16.5t-27 -49q-28 20 -55 36l18 30q11 19 13 22l3 1q29 -16 38.5 -23.5z" />
    <glyph glyph-name="uniFC8A" unicode="&#xfc8a;" horiz-adv-x="516" arabic-form="final" 
d="M523 27q3 -3 3 -7v-18q0 -12 -11 -12q-75 0 -115 71.5t-44 198.5q-29 -43 -70 -67.5t-93 -25.5q28 -79 28 -132q0 -61 -25 -116.5t-67.5 -95t-93.5 -53.5l-155 88l4 8q52 -29 78.5 -40t57.5 -11q29 0 67.5 25t71.5 73t46 112q-21 61 -39.5 103t-43.5 88q19 19 32 40h4
q16 -26 40.5 -39t50.5 -13q72 0 122 96l7 -2q0 -132 34 -200t103 -68q5 0 8 -3zM394.5 516.5q9.5 -7.5 9.5 -16.5q0 -8 -27 -49q-28 20 -55 36l18 30q11 19 13 22l3 1q29 -16 38.5 -23.5z" />
    <glyph glyph-name="uniFC8B" unicode="&#xfc8b;" horiz-adv-x="516" arabic-form="final" 
d="M523 27q3 -3 3 -7v-18q0 -12 -11 -12q-75 0 -115 71.5t-44 198.5q-29 -43 -70 -67.5t-93 -25.5q28 -79 28 -132q0 -61 -25 -116.5t-67.5 -95t-93.5 -53.5l-155 88l4 8q52 -29 78.5 -40t57.5 -11q29 0 67.5 25t71.5 73t46 112q-21 61 -39.5 103t-43.5 88q19 19 32 40h4
q16 -26 40.5 -39t50.5 -13q72 0 122 96l7 -2q0 -132 34 -200t103 -68q5 0 8 -3zM127.5 441.5q9.5 -7.5 9.5 -16.5q0 -8 -27 -49q-28 20 -55 36l18 30q11 19 13 22l3 1q29 -16 38.5 -23.5zM394.5 516.5q9.5 -7.5 9.5 -16.5q0 -8 -27 -49q-28 20 -55 36l18 30q11 19 13 22l3 1
q29 -16 38.5 -23.5z" />
    <glyph glyph-name="uniFC8D" unicode="&#xfc8d;" horiz-adv-x="749" arabic-form="final" 
d="M756 27q3 -3 3 -7v-18q0 -12 -11 -12q-73 0 -109 59t-40 182q-27 -40 -74 -65t-103 -28q23 -102 23 -164q0 -52 -36 -99.5t-91 -76t-108 -28.5q-74 0 -114.5 39.5t-40.5 111.5q0 35 8.5 89.5t25.5 107.5l8 -3q-28 -100 -28 -154q0 -72 37 -111t106 -39q60 0 116 33.5
t96 93.5q-6 62 -21 118t-42 130q21 19 35 42h4q16 -26 40.5 -39.5t49.5 -13.5q33 0 65 22.5t59 73.5l7 -2q0 -88 13 -140t40.5 -75.5t73.5 -23.5q5 0 8 -3zM255.5 343.5q9.5 -7.5 9.5 -16.5q0 -8 -27 -49q-28 20 -55 36l18 30q11 19 13 22l3 1q29 -16 38.5 -23.5z
M633.5 486.5q9.5 -7.5 9.5 -16.5q0 -8 -27 -49q-28 20 -55 36l18 30q11 19 13 22l3 1q29 -16 38.5 -23.5z" />
    <glyph glyph-name="uniFC8E" unicode="&#xfc8e;" horiz-adv-x="715" arabic-form="final" 
d="M548 311.5q16 -22.5 18 -71.5q5 -102 40.5 -156t107.5 -54q5 0 8 -3t3 -7v-18q0 -12 -11 -12q-57 0 -89 24.5t-47 75.5t-22 142q-4 61 -50 61q-30 0 -69.5 -24.5t-76.5 -64.5t-61 -85q56 -29 89 -40.5t88 -24.5l33 -8q4 -1 11.5 -17.5t7.5 -24.5q0 -53 -49 -107.5
t-123.5 -90.5t-145.5 -36q-74 0 -114.5 39.5t-40.5 111.5q0 35 8.5 89.5t25.5 107.5l8 -3q-28 -100 -28 -154q0 -73 39 -111.5t112 -38.5q63 0 123 27t104.5 72.5t63.5 99.5q-101 12 -165 38t-64 84q0 34 36.5 82.5t88 84t92.5 35.5q33 0 49 -22.5zM537.5 531.5
q9.5 -7.5 9.5 -16.5q0 -8 -27 -49q-28 20 -55 36l18 30q11 19 13 22l3 1q29 -16 38.5 -23.5z" />
    <glyph glyph-name="uniFC8F" unicode="&#xfc8f;" horiz-adv-x="715" arabic-form="final" 
d="M548 311.5q16 -22.5 18 -71.5q5 -102 40.5 -156t107.5 -54q5 0 8 -3t3 -7v-18q0 -12 -11 -12q-57 0 -89 24.5t-47 75.5t-22 142q-4 61 -50 61q-30 0 -69.5 -24.5t-76.5 -64.5t-61 -85q56 -29 89 -40.5t88 -24.5l33 -8q4 -1 11.5 -17.5t7.5 -24.5q0 -53 -49 -107.5
t-123.5 -90.5t-145.5 -36q-74 0 -114.5 39.5t-40.5 111.5q0 35 8.5 89.5t25.5 107.5l8 -3q-28 -100 -28 -154q0 -73 39 -111.5t112 -38.5q63 0 123 27t104.5 72.5t63.5 99.5q-101 12 -165 38t-64 84q0 34 36.5 82.5t88 84t92.5 35.5q33 0 49 -22.5zM537.5 531.5
q9.5 -7.5 9.5 -16.5q0 -8 -27 -49q-28 20 -55 36l18 30q11 19 13 22l3 1q29 -16 38.5 -23.5zM268.5 -323.5q9.5 -7.5 9.5 -16.5t-27 -49q-28 20 -55 36l18 30q11 19 13 22l3 1q29 -16 38.5 -23.5zM394.5 -323.5q9.5 -7.5 9.5 -16.5t-27 -49q-28 20 -55 36l18 30q11 19 13 22
l3 1q29 -16 38.5 -23.5z" />
    <glyph glyph-name="uniFC91" unicode="&#xfc91;" horiz-adv-x="516" arabic-form="final" 
d="M523 27q3 -3 3 -7v-18q0 -12 -11 -12q-75 0 -115 71.5t-44 198.5q-29 -43 -70 -67.5t-93 -25.5q28 -79 28 -132q0 -61 -25 -116.5t-67.5 -95t-93.5 -53.5l-155 88l4 8q52 -29 78.5 -40t57.5 -11q29 0 67.5 25t71.5 73t46 112q-21 61 -39.5 103t-43.5 88q19 19 32 40h4
q16 -26 40.5 -39t50.5 -13q72 0 122 96l7 -2q0 -132 34 -200t103 -68q5 0 8 -3zM335.5 -104.5q9.5 -7.5 9.5 -16.5t-27 -49q-28 20 -55 36l18 30q11 19 13 22l3 1q29 -16 38.5 -23.5zM461.5 -104.5q9.5 -7.5 9.5 -16.5t-27 -49q-28 20 -55 36l18 30q11 19 13 22l3 1
q29 -16 38.5 -23.5z" />
    <glyph glyph-name="uniFC92" unicode="&#xfc92;" horiz-adv-x="516" arabic-form="final" 
d="M523 27q3 -3 3 -7v-18q0 -12 -11 -12q-75 0 -115 71.5t-44 198.5q-29 -43 -70 -67.5t-93 -25.5q28 -79 28 -132q0 -61 -25 -116.5t-67.5 -95t-93.5 -53.5l-155 88l4 8q52 -29 78.5 -40t57.5 -11q29 0 67.5 25t71.5 73t46 112q-21 61 -39.5 103t-43.5 88q19 19 32 40h4
q16 -26 40.5 -39t50.5 -13q72 0 122 96l7 -2q0 -132 34 -200t103 -68q5 0 8 -3zM124.5 437.5q9.5 -7.5 9.5 -16.5q0 -8 -27 -49q-28 20 -55 36l18 30q11 19 13 22l3 1q29 -16 38.5 -23.5zM335.5 -104.5q9.5 -7.5 9.5 -16.5t-27 -49q-28 20 -55 36l18 30q11 19 13 22l3 1
q29 -16 38.5 -23.5zM461.5 -104.5q9.5 -7.5 9.5 -16.5t-27 -49q-28 20 -55 36l18 30q11 19 13 22l3 1q29 -16 38.5 -23.5z" />
    <glyph glyph-name="uniFC94" unicode="&#xfc94;" horiz-adv-x="749" arabic-form="final" 
d="M756 27q3 -3 3 -7v-18q0 -12 -11 -12q-73 0 -109 59t-40 182q-27 -40 -74 -65t-103 -28q23 -102 23 -164q0 -52 -36 -99.5t-91 -76t-108 -28.5q-74 0 -114.5 39.5t-40.5 111.5q0 35 8.5 89.5t25.5 107.5l8 -3q-28 -100 -28 -154q0 -72 37 -111t106 -39q60 0 116 33.5
t96 93.5q-6 62 -21 118t-42 130q21 19 35 42h4q16 -26 40.5 -39.5t49.5 -13.5q33 0 65 22.5t59 73.5l7 -2q0 -88 13 -140t40.5 -75.5t73.5 -23.5q5 0 8 -3zM583.5 -121.5q9.5 -7.5 9.5 -16.5t-27 -49q-28 20 -55 36l18 30q11 19 13 22l3 1q29 -16 38.5 -23.5zM709.5 -121.5
q9.5 -7.5 9.5 -16.5t-27 -49q-28 20 -55 36l18 30q11 19 13 22l3 1q29 -16 38.5 -23.5zM255.5 343.5q9.5 -7.5 9.5 -16.5q0 -8 -27 -49q-28 20 -55 36l18 30q11 19 13 22l3 1q29 -16 38.5 -23.5z" />
    <glyph glyph-name="uniFC9A" unicode="&#xfc9a;" horiz-adv-x="349" arabic-form="initial" 
d="M247 270.5q30 -9.5 82 -35.5v-3q-14 -14 -29 -33q-42 27 -67.5 37t-51.5 10q-43 0 -82.5 -33t-54.5 -94q15 -45 30 -68t30.5 -32.5t42.5 -18.5q33 -11 53 -22q-7 -14 -14 -40l-3 -2q-94 54 -173 54h-11q-9 0 -9 8v23q0 9 9 9q33 0 71 -16q-13 15 -27 47t-14 57
q0 42 22 79.5t59 60t79 22.5q28 0 58 -9.5zM318 467v-4q-6 -11 -18 -39l-22 -4l-8 -39l-9 1l7 36q-63 -11 -113 -33l-4 22q32 22 64 36q-22 7 -37 22t-15 29q0 16 15 37.5t37.5 37t42.5 15.5q39 0 39 -44q0 -24 -12 -81zM276 457q10 55 10 68q0 9 -5 13.5t-14 4.5
q-22 0 -46.5 -14.5t-47.5 -42.5q8 -15 24 -25t34 -10t45 6z" />
    <glyph glyph-name="uniFC9F" unicode="&#xfc9f;" horiz-adv-x="349" arabic-form="initial" 
d="M247 270.5q30 -9.5 82 -35.5v-3q-14 -14 -29 -33q-42 27 -67.5 37t-51.5 10q-43 0 -82.5 -33t-54.5 -94q15 -45 30 -68t30.5 -32.5t42.5 -18.5q33 -11 53 -22q-7 -14 -14 -40l-3 -2q-94 54 -173 54h-11q-9 0 -9 8v23q0 9 9 9q33 0 71 -16q-13 15 -27 47t-14 57
q0 42 22 79.5t59 60t79 22.5q28 0 58 -9.5zM285.5 -119.5q9.5 -7.5 9.5 -16.5t-27 -49q-28 20 -55 36l18 30q11 19 13 22l3 1q29 -16 38.5 -23.5z" />
    <glyph glyph-name="uniFCA4" unicode="&#xfca4;" horiz-adv-x="349" arabic-form="initial" 
d="M247 270.5q30 -9.5 82 -35.5v-3q-14 -14 -29 -33q-42 27 -67.5 37t-51.5 10q-43 0 -82.5 -33t-54.5 -94q15 -45 30 -68t30.5 -32.5t42.5 -18.5q33 -11 53 -22q-7 -14 -14 -40l-3 -2q-94 54 -173 54h-11q-9 0 -9 8v23q0 9 9 9q33 0 71 -16q-13 15 -27 47t-14 57
q0 42 22 79.5t59 60t79 22.5q28 0 58 -9.5zM170.5 485.5q9.5 -7.5 9.5 -16.5q0 -8 -27 -49q-28 20 -55 36l18 30q11 19 13 22l3 1q29 -16 38.5 -23.5zM296.5 485.5q9.5 -7.5 9.5 -16.5q0 -8 -27 -49q-28 20 -55 36l18 30q11 19 13 22l3 1q29 -16 38.5 -23.5z" />
    <glyph glyph-name="uniFCA6" unicode="&#xfca6;" horiz-adv-x="349" arabic-form="initial" 
d="M247 270.5q30 -9.5 82 -35.5v-3q-14 -14 -29 -33q-42 27 -67.5 37t-51.5 10q-43 0 -82.5 -33t-54.5 -94q15 -45 30 -68t30.5 -32.5t42.5 -18.5q33 -11 53 -22q-7 -14 -14 -40l-3 -2q-94 54 -173 54h-11q-9 0 -9 8v23q0 9 9 9q33 0 71 -16q-13 15 -27 47t-14 57
q0 42 22 79.5t59 60t79 22.5q28 0 58 -9.5zM232 558q9 -7 8 -16q0 -7 -12 -24t-15 -22q-26 20 -51 36l30 48l3 1q28 -16 37 -23zM171.5 474.5q9.5 -7.5 9.5 -16.5q0 -8 -27 -49q-28 20 -55 36l18 30q11 19 13 22l3 1q29 -16 38.5 -23.5zM297.5 474.5q9.5 -7.5 9.5 -16.5
q0 -8 -27 -49q-28 20 -55 36l18 30q11 19 13 22l3 1q29 -16 38.5 -23.5z" />
    <glyph glyph-name="uniFCC7" unicode="&#xfcc7;" horiz-adv-x="616" arabic-form="initial" 
d="M533.5 680q17.5 -20 17.5 -58q0 -32 -5 -85l-8 1q1 15 1 44q0 77 -45 77q-31 0 -97 -33.5t-139.5 -82t-121.5 -88.5q54 -18 121.5 -57t112.5 -79q43 -38 79 -85t57.5 -85t21.5 -51q0 -7 -6.5 -28t-9.5 -22q-79 -32 -146 -45t-152 -13q-17 0 -42.5 3t-42.5 7q-3 0 -10 13
q-68 -23 -120 -23q-9 0 -9 9v23q0 8 9 8q31 0 55 4t51 14q-3 64 -6.5 152t-5.5 135q-3 60 -6 145.5t-9 197.5q20 6 48 24h3v-211q80 65 197.5 137t156.5 72q33 0 50.5 -20zM412 219q-61 70 -135.5 125t-147.5 81v-384q10 -5 41.5 -8t67.5 -3q79 0 143.5 11.5t127.5 36.5
q-36 71 -97 141z" />
    <glyph glyph-name="uniFCCC" unicode="&#xfccc;" horiz-adv-x="208" arabic-form="initial" 
d="M119 121q0 -42 11 -73.5t24 -38.5q12 -6 39 -18q34 -14 50 -22q-7 -14 -14 -40l-3 -2q-45 23 -73 35t-66.5 20t-87.5 8q-9 0 -9 8v23q0 9 9 9q37 0 75 -4.5t65 -13.5q-47 64 -50 172q-11 385 -21 528q20 6 48 24h3v-615z" />
    <glyph glyph-name="uniFCD5" unicode="&#xfcd5;" horiz-adv-x="349" arabic-form="initial" 
d="M247 270.5q30 -9.5 82 -35.5v-3q-14 -14 -29 -33q-42 27 -67.5 37t-51.5 10q-43 0 -82.5 -33t-54.5 -94q15 -45 30 -68t30.5 -32.5t42.5 -18.5q33 -11 53 -22q-7 -14 -14 -40l-3 -2q-94 54 -173 54h-11q-9 0 -9 8v23q0 9 9 9q33 0 71 -16q-13 15 -27 47t-14 57
q0 42 22 79.5t59 60t79 22.5q28 0 58 -9.5zM264.5 501.5q9.5 -7.5 9.5 -16.5q0 -8 -27 -49q-28 20 -55 36l18 30q11 19 13 22l3 1q29 -16 38.5 -23.5z" />
    <glyph glyph-name="uniFCDD" unicode="&#xfcdd;" horiz-adv-x="349" arabic-form="initial" 
d="M247 270.5q30 -9.5 82 -35.5v-3q-14 -14 -29 -33q-42 27 -67.5 37t-51.5 10q-43 0 -82.5 -33t-54.5 -94q15 -45 30 -68t30.5 -32.5t42.5 -18.5q33 -11 53 -22q-7 -14 -14 -40l-3 -2q-94 54 -173 54h-11q-9 0 -9 8v23q0 9 9 9q33 0 71 -16q-13 15 -27 47t-14 57
q0 42 22 79.5t59 60t79 22.5q28 0 58 -9.5zM189.5 -152.5q9.5 -7.5 9.5 -16.5t-27 -49q-28 20 -55 36l18 30q11 19 13 22l3 1q29 -16 38.5 -23.5zM315.5 -152.5q9.5 -7.5 9.5 -16.5t-27 -49q-28 20 -55 36l18 30q11 19 13 22l3 1q29 -16 38.5 -23.5z" />
    <glyph glyph-name="uniFCEB" unicode="&#xfceb;" horiz-adv-x="616" arabic-form="medial" 
d="M626 22v-23q0 -9 -8 -9q-57 0 -119 53q-75 -29 -139.5 -41t-145.5 -12q-17 0 -42.5 3t-42.5 7q-3 0 -10 13q-68 -23 -120 -23q-9 0 -9 9v23q0 8 9 8q31 0 55 4t51 14q-3 64 -6.5 152t-5.5 135q-3 60 -6 145.5t-9 197.5q20 6 48 24h3v-211q80 65 197.5 137t156.5 72
q33 0 50.5 -20t17.5 -58q0 -32 -5 -85l-8 1q1 15 1 44q0 77 -45 77q-31 0 -97 -33.5t-139.5 -82t-121.5 -88.5q54 -18 121.5 -57t112.5 -79q43 -38 79 -85t57.5 -85t21.5 -51q0 -11 -10 -37q45 -31 100 -31q8 0 8 -8zM170.5 33q31.5 -3 67.5 -3q79 0 143.5 11.5t127.5 36.5
q-36 71 -97 141t-135.5 125t-147.5 81v-384q10 -5 41.5 -8z" />
    <glyph glyph-name="uniFCFB" unicode="&#xfcfb;" horiz-adv-x="1059" arabic-form="isolated" 
d="M994 27q-8 -27 -13 -37q-149 0 -240 32q-7 -19 -8 -22q-40 -10 -63 -10q-40 0 -62 24t-33.5 75t-18.5 143q-4 61 -50 61q-30 0 -69.5 -24.5t-76.5 -64.5t-61 -85q56 -29 89 -40.5t88 -24.5l33 -8q4 -1 11.5 -17.5t7.5 -24.5q0 -53 -49 -107.5t-123.5 -90.5t-145.5 -36
q-74 0 -114.5 39.5t-40.5 111.5q0 35 8.5 89.5t25.5 107.5l8 -3q-28 -100 -28 -154q0 -73 39 -111.5t112 -38.5q63 0 123 27t104.5 72.5t63.5 99.5q-101 12 -165 38t-64 84q0 34 36.5 82.5t88 84t92.5 35.5q33 0 49 -22.5t18 -71.5q10 -210 111 -210q30 0 60 9
q7 18 25.5 73.5t29.5 89.5q4 12 19 58l9 -3l-66 -198q57 -14 108 -21.5t118 -7.5q-39 145 -67 263q22 16 39 36h4q12 -74 31 -176l17 -99z" />
    <glyph glyph-name="uniFCFC" unicode="&#xfcfc;" horiz-adv-x="1059" arabic-form="isolated" 
d="M994 27q-8 -27 -13 -37q-149 0 -240 32q-7 -19 -8 -22q-40 -10 -63 -10q-40 0 -62 24t-33.5 75t-18.5 143q-4 61 -50 61q-30 0 -69.5 -24.5t-76.5 -64.5t-61 -85q56 -29 89 -40.5t88 -24.5l33 -8q4 -1 11.5 -17.5t7.5 -24.5q0 -53 -49 -107.5t-123.5 -90.5t-145.5 -36
q-74 0 -114.5 39.5t-40.5 111.5q0 35 8.5 89.5t25.5 107.5l8 -3q-28 -100 -28 -154q0 -73 39 -111.5t112 -38.5q63 0 123 27t104.5 72.5t63.5 99.5q-101 12 -165 38t-64 84q0 34 36.5 82.5t88 84t92.5 35.5q33 0 49 -22.5t18 -71.5q10 -210 111 -210q30 0 60 9
q7 18 25.5 73.5t29.5 89.5q4 12 19 58l9 -3l-66 -198q57 -14 108 -21.5t118 -7.5q-39 145 -67 263q22 16 39 36h4q12 -74 31 -176l17 -99zM278.5 -323.5q9.5 -7.5 9.5 -16.5t-27 -49q-28 20 -55 36l18 30q11 19 13 22l3 1q29 -16 38.5 -23.5zM404.5 -323.5
q9.5 -7.5 9.5 -16.5t-27 -49q-28 20 -55 36l18 30q11 19 13 22l3 1q29 -16 38.5 -23.5z" />
    <glyph glyph-name="uniFCFD" unicode="&#xfcfd;" horiz-adv-x="1059" arabic-form="isolated" 
d="M994 27q-8 -27 -13 -37q-149 0 -240 32q-7 -19 -8 -22q-40 -10 -63 -10q-40 0 -62 24t-33.5 75t-18.5 143q-4 61 -50 61q-30 0 -69.5 -24.5t-76.5 -64.5t-61 -85q56 -29 89 -40.5t88 -24.5l33 -8q4 -1 11.5 -17.5t7.5 -24.5q0 -53 -49 -107.5t-123.5 -90.5t-145.5 -36
q-74 0 -114.5 39.5t-40.5 111.5q0 35 8.5 89.5t25.5 107.5l8 -3q-28 -100 -28 -154q0 -73 39 -111.5t112 -38.5q63 0 123 27t104.5 72.5t63.5 99.5q-101 12 -165 38t-64 84q0 34 36.5 82.5t88 84t92.5 35.5q33 0 49 -22.5t18 -71.5q10 -210 111 -210q30 0 60 9
q7 18 25.5 73.5t29.5 89.5q4 12 19 58l9 -3l-66 -198q57 -14 108 -21.5t118 -7.5q-39 145 -67 263q22 16 39 36h4q12 -74 31 -176l17 -99zM821 546q9 -7 8 -16q0 -7 -12 -24t-15 -22q-26 20 -51 36l30 48l3 1q28 -16 37 -23zM760.5 462.5q9.5 -7.5 9.5 -16.5q0 -8 -27 -49
q-28 20 -55 36l18 30q11 19 13 22l3 1q29 -16 38.5 -23.5zM886.5 462.5q9.5 -7.5 9.5 -16.5q0 -8 -27 -49q-28 20 -55 36l18 30q11 19 13 22l3 1q29 -16 38.5 -23.5z" />
    <glyph glyph-name="uniFCFE" unicode="&#xfcfe;" horiz-adv-x="1059" arabic-form="isolated" 
d="M994 27q-8 -27 -13 -37q-149 0 -240 32q-7 -19 -8 -22q-40 -10 -63 -10q-40 0 -62 24t-33.5 75t-18.5 143q-4 61 -50 61q-30 0 -69.5 -24.5t-76.5 -64.5t-61 -85q56 -29 89 -40.5t88 -24.5l33 -8q4 -1 11.5 -17.5t7.5 -24.5q0 -53 -49 -107.5t-123.5 -90.5t-145.5 -36
q-74 0 -114.5 39.5t-40.5 111.5q0 35 8.5 89.5t25.5 107.5l8 -3q-28 -100 -28 -154q0 -73 39 -111.5t112 -38.5q63 0 123 27t104.5 72.5t63.5 99.5q-101 12 -165 38t-64 84q0 34 36.5 82.5t88 84t92.5 35.5q33 0 49 -22.5t18 -71.5q10 -210 111 -210q30 0 60 9
q7 18 25.5 73.5t29.5 89.5q4 12 19 58l9 -3l-66 -198q57 -14 108 -21.5t118 -7.5q-39 145 -67 263q22 16 39 36h4q12 -74 31 -176l17 -99zM278.5 -323.5q9.5 -7.5 9.5 -16.5t-27 -49q-28 20 -55 36l18 30q11 19 13 22l3 1q29 -16 38.5 -23.5zM404.5 -323.5
q9.5 -7.5 9.5 -16.5t-27 -49q-28 20 -55 36l18 30q11 19 13 22l3 1q29 -16 38.5 -23.5zM805 546q9 -7 8 -16q0 -7 -12 -24t-15 -22q-26 20 -51 36l30 48l3 1q28 -16 37 -23zM744.5 462.5q9.5 -7.5 9.5 -16.5q0 -8 -27 -49q-28 20 -55 36l18 30q11 19 13 22l3 1
q29 -16 38.5 -23.5zM870.5 462.5q9.5 -7.5 9.5 -16.5q0 -8 -27 -49q-28 20 -55 36l18 30q11 19 13 22l3 1q29 -16 38.5 -23.5z" />
    <glyph glyph-name="uniFD05" unicode="&#xfd05;" horiz-adv-x="1076" arabic-form="isolated" 
d="M946.5 317.5q37.5 -28.5 61 -70t23.5 -76.5q0 -53 -49.5 -94.5t-124 -64t-146.5 -22.5q-53 0 -84.5 23t-47.5 75t-23 144q-4 61 -50 61q-30 0 -69.5 -24.5t-76.5 -64.5t-61 -85q56 -29 89 -40.5t88 -24.5l33 -8q4 -1 11.5 -17.5t7.5 -24.5q0 -53 -49 -107.5t-123.5 -90.5
t-145.5 -36q-74 0 -114.5 39.5t-40.5 111.5q0 35 8.5 89.5t25.5 107.5l8 -3q-28 -100 -28 -154q0 -73 39 -111.5t112 -38.5q63 0 123 27t104.5 72.5t63.5 99.5q-101 12 -165 38t-64 84q0 34 36.5 82.5t88 84t92.5 35.5q33 0 49 -22.5t18 -71.5q5 -115 51 -169
q101 151 157 213t94 62q41 0 78.5 -28.5zM876 61.5q84 31.5 135 83.5q-21 70 -64 113t-89 43q-31 0 -57 -16.5t-64.5 -64.5t-113.5 -155q33 -35 84 -35q85 0 169 31.5z" />
    <glyph glyph-name="uniFD06" unicode="&#xfd06;" horiz-adv-x="1076" arabic-form="isolated" 
d="M946.5 317.5q37.5 -28.5 61 -70t23.5 -76.5q0 -53 -49.5 -94.5t-124 -64t-146.5 -22.5q-53 0 -84.5 23t-47.5 75t-23 144q-4 61 -50 61q-30 0 -69.5 -24.5t-76.5 -64.5t-61 -85q56 -29 89 -40.5t88 -24.5l33 -8q4 -1 11.5 -17.5t7.5 -24.5q0 -53 -49 -107.5t-123.5 -90.5
t-145.5 -36q-74 0 -114.5 39.5t-40.5 111.5q0 35 8.5 89.5t25.5 107.5l8 -3q-28 -100 -28 -154q0 -73 39 -111.5t112 -38.5q63 0 123 27t104.5 72.5t63.5 99.5q-101 12 -165 38t-64 84q0 34 36.5 82.5t88 84t92.5 35.5q33 0 49 -22.5t18 -71.5q5 -115 51 -169
q101 151 157 213t94 62q41 0 78.5 -28.5zM876 61.5q84 31.5 135 83.5q-21 70 -64 113t-89 43q-31 0 -57 -16.5t-64.5 -64.5t-113.5 -155q33 -35 84 -35q85 0 169 31.5zM268.5 -323.5q9.5 -7.5 9.5 -16.5t-27 -49q-28 20 -55 36l18 30q11 19 13 22l3 1q29 -16 38.5 -23.5z
M394.5 -323.5q9.5 -7.5 9.5 -16.5t-27 -49q-28 20 -55 36l18 30q11 19 13 22l3 1q29 -16 38.5 -23.5z" />
    <glyph glyph-name="uniFD07" unicode="&#xfd07;" horiz-adv-x="1076" arabic-form="isolated" 
d="M946.5 317.5q37.5 -28.5 61 -70t23.5 -76.5q0 -53 -49.5 -94.5t-124 -64t-146.5 -22.5q-53 0 -84.5 23t-47.5 75t-23 144q-4 61 -50 61q-30 0 -69.5 -24.5t-76.5 -64.5t-61 -85q56 -29 89 -40.5t88 -24.5l33 -8q4 -1 11.5 -17.5t7.5 -24.5q0 -53 -49 -107.5t-123.5 -90.5
t-145.5 -36q-74 0 -114.5 39.5t-40.5 111.5q0 35 8.5 89.5t25.5 107.5l8 -3q-28 -100 -28 -154q0 -73 39 -111.5t112 -38.5q63 0 123 27t104.5 72.5t63.5 99.5q-101 12 -165 38t-64 84q0 34 36.5 82.5t88 84t92.5 35.5q33 0 49 -22.5t18 -71.5q5 -115 51 -169
q101 151 157 213t94 62q41 0 78.5 -28.5zM876 61.5q84 31.5 135 83.5q-21 70 -64 113t-89 43q-31 0 -57 -16.5t-64.5 -64.5t-113.5 -155q33 -35 84 -35q85 0 169 31.5zM732.5 482.5q9.5 -7.5 9.5 -16.5q0 -8 -27 -49q-28 20 -55 36l18 30q11 19 13 22l3 1q29 -16 38.5 -23.5
z" />
    <glyph glyph-name="uniFD08" unicode="&#xfd08;" horiz-adv-x="1076" arabic-form="isolated" 
d="M946.5 317.5q37.5 -28.5 61 -70t23.5 -76.5q0 -53 -49.5 -94.5t-124 -64t-146.5 -22.5q-53 0 -84.5 23t-47.5 75t-23 144q-4 61 -50 61q-30 0 -69.5 -24.5t-76.5 -64.5t-61 -85q56 -29 89 -40.5t88 -24.5l33 -8q4 -1 11.5 -17.5t7.5 -24.5q0 -53 -49 -107.5t-123.5 -90.5
t-145.5 -36q-74 0 -114.5 39.5t-40.5 111.5q0 35 8.5 89.5t25.5 107.5l8 -3q-28 -100 -28 -154q0 -73 39 -111.5t112 -38.5q63 0 123 27t104.5 72.5t63.5 99.5q-101 12 -165 38t-64 84q0 34 36.5 82.5t88 84t92.5 35.5q33 0 49 -22.5t18 -71.5q5 -115 51 -169
q101 151 157 213t94 62q41 0 78.5 -28.5zM876 61.5q84 31.5 135 83.5q-21 70 -64 113t-89 43q-31 0 -57 -16.5t-64.5 -64.5t-113.5 -155q33 -35 84 -35q85 0 169 31.5zM732.5 482.5q9.5 -7.5 9.5 -16.5q0 -8 -27 -49q-28 20 -55 36l18 30q11 19 13 22l3 1q29 -16 38.5 -23.5
zM278.5 -323.5q9.5 -7.5 9.5 -16.5t-27 -49q-28 20 -55 36l18 30q11 19 13 22l3 1q29 -16 38.5 -23.5zM404.5 -323.5q9.5 -7.5 9.5 -16.5t-27 -49q-28 20 -55 36l18 30q11 19 13 22l3 1q29 -16 38.5 -23.5z" />
    <glyph glyph-name="uniFD0D" unicode="&#xfd0d;" horiz-adv-x="850" arabic-form="isolated" 
d="M772 -10q-149 0 -240 32q-7 -19 -8 -22q-40 -10 -63 -10q-97 0 -97 146q0 18 4 66q-98 -39 -162 -81q15 -53 15 -86q0 -61 -25 -116.5t-67.5 -95t-93.5 -53.5l-155 88l4 8q52 -29 78.5 -40t57.5 -11q29 0 67.5 25t71.5 73t46 112q-13 40 -40 84l15 45q89 47 196 76l6 -6
q-5 -40 -5 -66q0 -128 91 -128q30 0 60 9q7 18 25.5 73.5t29.5 89.5q3 12 19 58l9 -3l-66 -198q57 -14 108 -21.5t118 -7.5q-39 145 -67 263q22 16 39 36h4q12 -74 31 -176l17 -99q-14 -44 -23 -64zM600 536q9 -7 8 -16q0 -7 -12 -24t-15 -22q-26 20 -51 36l30 48l3 1
q28 -16 37 -23zM539.5 452.5q9.5 -7.5 9.5 -16.5q0 -8 -27 -49q-28 20 -55 36l18 30q11 19 13 22l3 1q29 -16 38.5 -23.5zM665.5 452.5q9.5 -7.5 9.5 -16.5q0 -8 -27 -49q-28 20 -55 36l18 30q11 19 13 22l3 1q29 -16 38.5 -23.5z" />
    <glyph glyph-name="uniFD0E" unicode="&#xfd0e;" horiz-adv-x="850" arabic-form="isolated" 
d="M772 -10q-149 0 -240 32q-7 -19 -8 -22q-40 -10 -63 -10q-97 0 -97 146q0 18 4 66q-98 -39 -162 -81q15 -53 15 -86q0 -61 -25 -116.5t-67.5 -95t-93.5 -53.5l-155 88l4 8q52 -29 78.5 -40t57.5 -11q29 0 67.5 25t71.5 73t46 112q-13 40 -40 84l15 45q89 47 196 76l6 -6
q-5 -40 -5 -66q0 -128 91 -128q30 0 60 9q7 18 25.5 73.5t29.5 89.5q3 12 19 58l9 -3l-66 -198q57 -14 108 -21.5t118 -7.5q-39 145 -67 263q22 16 39 36h4q12 -74 31 -176l17 -99q-14 -44 -23 -64z" />
    <glyph glyph-name="uniFD0F" unicode="&#xfd0f;" horiz-adv-x="880" arabic-form="isolated" 
d="M750.5 317.5q37.5 -28.5 61 -70t23.5 -76.5q0 -53 -49.5 -94.5t-124 -64t-146.5 -22.5q-151 0 -151 146q0 18 4 66q-98 -39 -162 -81q15 -53 15 -86q0 -61 -25 -116.5t-67.5 -95t-93.5 -53.5l-155 88l4 8q52 -29 78.5 -40t57.5 -11q29 0 67.5 25t71.5 73t46 112
q-13 40 -40 84l15 45q89 47 196 76l6 -6q-5 -40 -5 -66q0 -66 37 -98q105 156 162.5 221t95.5 65q41 0 78.5 -28.5zM680 61.5q84 31.5 135 83.5q-21 70 -64 113t-89 43q-31 0 -57.5 -18.5t-66 -68t-117.5 -160.5q35 -24 90 -24q85 0 169 31.5z" />
    <glyph glyph-name="uniFD10" unicode="&#xfd10;" horiz-adv-x="880" arabic-form="isolated" 
d="M750.5 317.5q37.5 -28.5 61 -70t23.5 -76.5q0 -53 -49.5 -94.5t-124 -64t-146.5 -22.5q-151 0 -151 146q0 18 4 66q-98 -39 -162 -81q15 -53 15 -86q0 -61 -25 -116.5t-67.5 -95t-93.5 -53.5l-155 88l4 8q52 -29 78.5 -40t57.5 -11q29 0 67.5 25t71.5 73t46 112
q-13 40 -40 84l15 45q89 47 196 76l6 -6q-5 -40 -5 -66q0 -66 37 -98q105 156 162.5 221t95.5 65q41 0 78.5 -28.5zM680 61.5q84 31.5 135 83.5q-21 70 -64 113t-89 43q-31 0 -57.5 -18.5t-66 -68t-117.5 -160.5q35 -24 90 -24q85 0 169 31.5zM551.5 480.5
q9.5 -7.5 9.5 -16.5q0 -8 -27 -49q-28 20 -55 36l18 30q11 19 13 22l3 1q29 -16 38.5 -23.5z" />
    <glyph glyph-name="uniFD17" unicode="&#xfd17;" horiz-adv-x="1060" arabic-form="final" 
d="M1070 22v-23q0 -9 -8 -9q-34 0 -69.5 5t-59.5 14l-3 -9q-51 -10 -82 -10q-59 0 -112 18l-3 -8q-40 -10 -63 -10q-40 0 -62 24t-33.5 75t-18.5 143q-4 61 -50 61q-30 0 -69.5 -24.5t-76.5 -64.5t-61 -85q56 -29 89 -40.5t88 -24.5l33 -8q4 -1 11.5 -17.5t7.5 -24.5
q0 -53 -49 -107.5t-123.5 -90.5t-145.5 -36q-74 0 -114.5 39.5t-40.5 111.5q0 35 8.5 89.5t25.5 107.5l8 -3q-28 -100 -28 -154q0 -73 39 -111.5t112 -38.5q63 0 123 27t104.5 72.5t63.5 99.5q-101 12 -165 38t-64 84q0 34 36.5 82.5t88 84t92.5 35.5q33 0 49 -22.5
t18 -71.5q10 -210 111 -210q30 0 60 9q7 18 25.5 73.5t29.5 89.5q4 12 19 58l9 -3l-71 -211q51 -16 98 -16q44 0 86 5l16 44q2 6 2 15q0 33 -11 104.5t-15 95.5q27 20 43 41h3l2 -205q0 -10 -29 -91q58 -9 118 -9q8 0 8 -8z" />
    <glyph glyph-name="uniFD18" unicode="&#xfd18;" horiz-adv-x="1060" arabic-form="final" 
d="M1070 22v-23q0 -9 -8 -9q-34 0 -69.5 5t-59.5 14l-3 -9q-51 -10 -82 -10q-59 0 -112 18l-3 -8q-40 -10 -63 -10q-40 0 -62 24t-33.5 75t-18.5 143q-4 61 -50 61q-30 0 -69.5 -24.5t-76.5 -64.5t-61 -85q56 -29 89 -40.5t88 -24.5l33 -8q4 -1 11.5 -17.5t7.5 -24.5
q0 -53 -49 -107.5t-123.5 -90.5t-145.5 -36q-74 0 -114.5 39.5t-40.5 111.5q0 35 8.5 89.5t25.5 107.5l8 -3q-28 -100 -28 -154q0 -73 39 -111.5t112 -38.5q63 0 123 27t104.5 72.5t63.5 99.5q-101 12 -165 38t-64 84q0 34 36.5 82.5t88 84t92.5 35.5q33 0 49 -22.5
t18 -71.5q10 -210 111 -210q30 0 60 9q7 18 25.5 73.5t29.5 89.5q4 12 19 58l9 -3l-71 -211q51 -16 98 -16q44 0 86 5l16 44q2 6 2 15q0 33 -11 104.5t-15 95.5q27 20 43 41h3l2 -205q0 -10 -29 -91q58 -9 118 -9q8 0 8 -8zM268.5 -323.5q9.5 -7.5 9.5 -16.5t-27 -49
q-28 20 -55 36l18 30q11 19 13 22l3 1q29 -16 38.5 -23.5zM394.5 -323.5q9.5 -7.5 9.5 -16.5t-27 -49q-28 20 -55 36l18 30q11 19 13 22l3 1q29 -16 38.5 -23.5z" />
    <glyph glyph-name="uniFD19" unicode="&#xfd19;" horiz-adv-x="1060" arabic-form="final" 
d="M1070 22v-23q0 -9 -8 -9q-34 0 -69.5 5t-59.5 14l-3 -9q-51 -10 -82 -10q-59 0 -112 18l-3 -8q-40 -10 -63 -10q-40 0 -62 24t-33.5 75t-18.5 143q-4 61 -50 61q-30 0 -69.5 -24.5t-76.5 -64.5t-61 -85q56 -29 89 -40.5t88 -24.5l33 -8q4 -1 11.5 -17.5t7.5 -24.5
q0 -53 -49 -107.5t-123.5 -90.5t-145.5 -36q-74 0 -114.5 39.5t-40.5 111.5q0 35 8.5 89.5t25.5 107.5l8 -3q-28 -100 -28 -154q0 -73 39 -111.5t112 -38.5q63 0 123 27t104.5 72.5t63.5 99.5q-101 12 -165 38t-64 84q0 34 36.5 82.5t88 84t92.5 35.5q33 0 49 -22.5
t18 -71.5q10 -210 111 -210q30 0 60 9q7 18 25.5 73.5t29.5 89.5q4 12 19 58l9 -3l-71 -211q51 -16 98 -16q44 0 86 5l16 44q2 6 2 15q0 33 -11 104.5t-15 95.5q27 20 43 41h3l2 -205q0 -10 -29 -91q58 -9 118 -9q8 0 8 -8zM830 546q9 -7 8 -16q0 -7 -12 -24t-15 -22
q-26 20 -51 36l30 48l3 1q28 -16 37 -23zM769.5 462.5q9.5 -7.5 9.5 -16.5q0 -8 -27 -49q-28 20 -55 36l18 30q11 19 13 22l3 1q29 -16 38.5 -23.5zM895.5 462.5q9.5 -7.5 9.5 -16.5q0 -8 -27 -49q-28 20 -55 36l18 30q11 19 13 22l3 1q29 -16 38.5 -23.5z" />
    <glyph glyph-name="uniFD1A" unicode="&#xfd1a;" horiz-adv-x="1060" arabic-form="final" 
d="M1070 22v-23q0 -9 -8 -9q-34 0 -69.5 5t-59.5 14l-3 -9q-51 -10 -82 -10q-59 0 -112 18l-3 -8q-40 -10 -63 -10q-40 0 -62 24t-33.5 75t-18.5 143q-4 61 -50 61q-30 0 -69.5 -24.5t-76.5 -64.5t-61 -85q56 -29 89 -40.5t88 -24.5l33 -8q4 -1 11.5 -17.5t7.5 -24.5
q0 -53 -49 -107.5t-123.5 -90.5t-145.5 -36q-74 0 -114.5 39.5t-40.5 111.5q0 35 8.5 89.5t25.5 107.5l8 -3q-28 -100 -28 -154q0 -73 39 -111.5t112 -38.5q63 0 123 27t104.5 72.5t63.5 99.5q-101 12 -165 38t-64 84q0 34 36.5 82.5t88 84t92.5 35.5q33 0 49 -22.5
t18 -71.5q10 -210 111 -210q30 0 60 9q7 18 25.5 73.5t29.5 89.5q4 12 19 58l9 -3l-71 -211q51 -16 98 -16q44 0 86 5l16 44q2 6 2 15q0 33 -11 104.5t-15 95.5q27 20 43 41h3l2 -205q0 -10 -29 -91q58 -9 118 -9q8 0 8 -8zM268.5 -323.5q9.5 -7.5 9.5 -16.5t-27 -49
q-28 20 -55 36l18 30q11 19 13 22l3 1q29 -16 38.5 -23.5zM394.5 -323.5q9.5 -7.5 9.5 -16.5t-27 -49q-28 20 -55 36l18 30q11 19 13 22l3 1q29 -16 38.5 -23.5zM804 546q9 -7 8 -16q0 -7 -12 -24t-15 -22q-26 20 -51 36l30 48l3 1q28 -16 37 -23zM743.5 462.5
q9.5 -7.5 9.5 -16.5q0 -8 -27 -49q-28 20 -55 36l18 30q11 19 13 22l3 1q29 -16 38.5 -23.5zM869.5 462.5q9.5 -7.5 9.5 -16.5q0 -8 -27 -49q-28 20 -55 36l18 30q11 19 13 22l3 1q29 -16 38.5 -23.5z" />
    <glyph glyph-name="uniFD21" unicode="&#xfd21;" horiz-adv-x="1099" arabic-form="final" 
d="M1109 22v-23q0 -9 -9 -9q-45 0 -90.5 13.5t-85.5 35.5q-46 -23 -103 -36t-110 -13t-84.5 23t-47.5 75t-23 144q-4 61 -50 61q-30 0 -69.5 -24.5t-76.5 -64.5t-61 -85q56 -29 89 -40.5t88 -24.5l33 -8q4 -1 11.5 -17.5t7.5 -24.5q0 -53 -49 -107.5t-123.5 -90.5
t-145.5 -36q-74 0 -114.5 39.5t-40.5 111.5q0 35 8.5 89.5t25.5 107.5l8 -3q-28 -100 -28 -154q0 -73 39 -111.5t112 -38.5q63 0 123 27t104.5 72.5t63.5 99.5q-101 12 -165 38t-64 84q0 34 36.5 82.5t88 84t92.5 35.5q33 0 49 -22.5t18 -71.5q5 -115 51 -169
q101 151 157 213t94 62q41 0 78.5 -28.5t61 -70t23.5 -76.5q0 -66 -79 -116q33 -12 74.5 -18.5t73.5 -6.5q9 0 9 -8zM876 61.5q84 31.5 135 83.5q-21 70 -64 113t-89 43q-31 0 -57 -16.5t-64.5 -64.5t-113.5 -155q33 -35 84 -35q85 0 169 31.5z" />
    <glyph glyph-name="uniFD22" unicode="&#xfd22;" horiz-adv-x="1099" arabic-form="final" 
d="M1109 22v-23q0 -9 -9 -9q-45 0 -90.5 13.5t-85.5 35.5q-46 -23 -103 -36t-110 -13t-84.5 23t-47.5 75t-23 144q-4 61 -50 61q-30 0 -69.5 -24.5t-76.5 -64.5t-61 -85q56 -29 89 -40.5t88 -24.5l33 -8q4 -1 11.5 -17.5t7.5 -24.5q0 -53 -49 -107.5t-123.5 -90.5
t-145.5 -36q-74 0 -114.5 39.5t-40.5 111.5q0 35 8.5 89.5t25.5 107.5l8 -3q-28 -100 -28 -154q0 -73 39 -111.5t112 -38.5q63 0 123 27t104.5 72.5t63.5 99.5q-101 12 -165 38t-64 84q0 34 36.5 82.5t88 84t92.5 35.5q33 0 49 -22.5t18 -71.5q5 -115 51 -169
q101 151 157 213t94 62q41 0 78.5 -28.5t61 -70t23.5 -76.5q0 -66 -79 -116q33 -12 74.5 -18.5t73.5 -6.5q9 0 9 -8zM876 61.5q84 31.5 135 83.5q-21 70 -64 113t-89 43q-31 0 -57 -16.5t-64.5 -64.5t-113.5 -155q33 -35 84 -35q85 0 169 31.5zM268.5 -323.5
q9.5 -7.5 9.5 -16.5t-27 -49q-28 20 -55 36l18 30q11 19 13 22l3 1q29 -16 38.5 -23.5zM394.5 -323.5q9.5 -7.5 9.5 -16.5t-27 -49q-28 20 -55 36l18 30q11 19 13 22l3 1q29 -16 38.5 -23.5z" />
    <glyph glyph-name="uniFD23" unicode="&#xfd23;" horiz-adv-x="1099" arabic-form="final" 
d="M1109 22v-23q0 -9 -9 -9q-45 0 -90.5 13.5t-85.5 35.5q-46 -23 -103 -36t-110 -13t-84.5 23t-47.5 75t-23 144q-4 61 -50 61q-30 0 -69.5 -24.5t-76.5 -64.5t-61 -85q56 -29 89 -40.5t88 -24.5l33 -8q4 -1 11.5 -17.5t7.5 -24.5q0 -53 -49 -107.5t-123.5 -90.5
t-145.5 -36q-74 0 -114.5 39.5t-40.5 111.5q0 35 8.5 89.5t25.5 107.5l8 -3q-28 -100 -28 -154q0 -73 39 -111.5t112 -38.5q63 0 123 27t104.5 72.5t63.5 99.5q-101 12 -165 38t-64 84q0 34 36.5 82.5t88 84t92.5 35.5q33 0 49 -22.5t18 -71.5q5 -115 51 -169
q101 151 157 213t94 62q41 0 78.5 -28.5t61 -70t23.5 -76.5q0 -66 -79 -116q33 -12 74.5 -18.5t73.5 -6.5q9 0 9 -8zM876 61.5q84 31.5 135 83.5q-21 70 -64 113t-89 43q-31 0 -57 -16.5t-64.5 -64.5t-113.5 -155q33 -35 84 -35q85 0 169 31.5zM739.5 482.5
q9.5 -7.5 9.5 -16.5q0 -8 -27 -49q-28 20 -55 36l18 30q11 19 13 22l3 1q29 -16 38.5 -23.5z" />
    <glyph glyph-name="uniFD24" unicode="&#xfd24;" horiz-adv-x="1099" arabic-form="final" 
d="M1109 22v-23q0 -9 -9 -9q-45 0 -90.5 13.5t-85.5 35.5q-46 -23 -103 -36t-110 -13t-84.5 23t-47.5 75t-23 144q-4 61 -50 61q-30 0 -69.5 -24.5t-76.5 -64.5t-61 -85q56 -29 89 -40.5t88 -24.5l33 -8q4 -1 11.5 -17.5t7.5 -24.5q0 -53 -49 -107.5t-123.5 -90.5
t-145.5 -36q-74 0 -114.5 39.5t-40.5 111.5q0 35 8.5 89.5t25.5 107.5l8 -3q-28 -100 -28 -154q0 -73 39 -111.5t112 -38.5q63 0 123 27t104.5 72.5t63.5 99.5q-101 12 -165 38t-64 84q0 34 36.5 82.5t88 84t92.5 35.5q33 0 49 -22.5t18 -71.5q5 -115 51 -169
q101 151 157 213t94 62q41 0 78.5 -28.5t61 -70t23.5 -76.5q0 -66 -79 -116q33 -12 74.5 -18.5t73.5 -6.5q9 0 9 -8zM876 61.5q84 31.5 135 83.5q-21 70 -64 113t-89 43q-31 0 -57 -16.5t-64.5 -64.5t-113.5 -155q33 -35 84 -35q85 0 169 31.5zM739.5 482.5
q9.5 -7.5 9.5 -16.5q0 -8 -27 -49q-28 20 -55 36l18 30q11 19 13 22l3 1q29 -16 38.5 -23.5zM278.5 -323.5q9.5 -7.5 9.5 -16.5t-27 -49q-28 20 -55 36l18 30q11 19 13 22l3 1q29 -16 38.5 -23.5zM404.5 -323.5q9.5 -7.5 9.5 -16.5t-27 -49q-28 20 -55 36l18 30q11 19 13 22
l3 1q29 -16 38.5 -23.5z" />
    <glyph glyph-name="uniFD29" unicode="&#xfd29;" horiz-adv-x="852" arabic-form="final" 
d="M862 22v-23q0 -9 -8 -9q-34 0 -69.5 5t-59.5 14l-3 -9q-51 -10 -82 -10q-59 0 -113 18l-3 -8q-40 -10 -63 -10q-97 0 -97 146q0 18 4 66q-98 -39 -162 -81q15 -53 15 -86q0 -61 -25 -116.5t-67.5 -95t-93.5 -53.5l-155 88l4 8q52 -29 78.5 -40t57.5 -11q29 0 67.5 25
t71.5 73t46 112q-13 40 -40 84l15 45q89 47 196 76l6 -6q-5 -40 -5 -66q0 -128 91 -128q30 0 60 9q7 18 25.5 73.5t29.5 89.5q3 12 19 58l9 -3l-71 -211q51 -16 99 -16q44 0 86 5l16 44q2 6 2 15q0 33 -11 104.5t-15 95.5q27 20 43 41h3l2 -205q0 -10 -29 -91q58 -9 118 -9
q8 0 8 -8zM601 536q9 -7 8 -16q0 -7 -12 -24t-15 -22q-26 20 -51 36l30 48l3 1q28 -16 37 -23zM540.5 452.5q9.5 -7.5 9.5 -16.5q0 -8 -27 -49q-28 20 -55 36l18 30q11 19 13 22l3 1q29 -16 38.5 -23.5zM666.5 452.5q9.5 -7.5 9.5 -16.5q0 -8 -27 -49q-28 20 -55 36l18 30
q11 19 13 22l3 1q29 -16 38.5 -23.5z" />
    <glyph glyph-name="uniFD2A" unicode="&#xfd2a;" horiz-adv-x="852" arabic-form="final" 
d="M862 22v-23q0 -9 -8 -9q-34 0 -69.5 5t-59.5 14l-3 -9q-51 -10 -82 -10q-59 0 -113 18l-3 -8q-40 -10 -63 -10q-97 0 -97 146q0 18 4 66q-98 -39 -162 -81q15 -53 15 -86q0 -61 -25 -116.5t-67.5 -95t-93.5 -53.5l-155 88l4 8q52 -29 78.5 -40t57.5 -11q29 0 67.5 25
t71.5 73t46 112q-13 40 -40 84l15 45q89 47 196 76l6 -6q-5 -40 -5 -66q0 -128 91 -128q30 0 60 9q7 18 25.5 73.5t29.5 89.5q3 12 19 58l9 -3l-71 -211q51 -16 99 -16q44 0 86 5l16 44q2 6 2 15q0 33 -11 104.5t-15 95.5q27 20 43 41h3l2 -205q0 -10 -29 -91q58 -9 118 -9
q8 0 8 -8z" />
    <glyph glyph-name="uniFD2B" unicode="&#xfd2b;" horiz-adv-x="901" arabic-form="final" 
d="M911 22v-23q0 -9 -9 -9q-45 0 -90.5 13t-84.5 35q-47 -23 -103 -35.5t-109 -12.5q-151 0 -151 146q0 18 4 66q-98 -39 -162 -81q15 -53 15 -86q0 -61 -25 -116.5t-67.5 -95t-93.5 -53.5l-155 88l4 8q52 -29 78.5 -40t57.5 -11q29 0 67.5 25t71.5 73t46 112q-13 40 -40 84
l15 45q89 47 196 76l6 -6q-5 -40 -5 -66q0 -66 37 -98q105 156 162.5 221t95.5 65q41 0 78.5 -28.5t61 -70t23.5 -76.5q0 -34 -21 -64t-59 -53q34 -11 74.5 -17.5t72.5 -6.5q9 0 9 -8zM680 61.5q84 31.5 135 83.5q-21 70 -64 113t-89 43q-31 0 -57.5 -18.5t-66 -68
t-117.5 -160.5q35 -24 90 -24q85 0 169 31.5z" />
    <glyph glyph-name="uniFD2C" unicode="&#xfd2c;" horiz-adv-x="901" arabic-form="final" 
d="M911 22v-23q0 -9 -9 -9q-45 0 -90.5 13t-84.5 35q-47 -23 -103 -35.5t-109 -12.5q-151 0 -151 146q0 18 4 66q-98 -39 -162 -81q15 -53 15 -86q0 -61 -25 -116.5t-67.5 -95t-93.5 -53.5l-155 88l4 8q52 -29 78.5 -40t57.5 -11q29 0 67.5 25t71.5 73t46 112q-13 40 -40 84
l15 45q89 47 196 76l6 -6q-5 -40 -5 -66q0 -66 37 -98q105 156 162.5 221t95.5 65q41 0 78.5 -28.5t61 -70t23.5 -76.5q0 -34 -21 -64t-59 -53q34 -11 74.5 -17.5t72.5 -6.5q9 0 9 -8zM680 61.5q84 31.5 135 83.5q-21 70 -64 113t-89 43q-31 0 -57.5 -18.5t-66 -68
t-117.5 -160.5q35 -24 90 -24q85 0 169 31.5zM551.5 480.5q9.5 -7.5 9.5 -16.5q0 -8 -27 -49q-28 20 -55 36l18 30q11 19 13 22l3 1q29 -16 38.5 -23.5z" />
    <glyph glyph-name="uniFE82" unicode="&#x622;" horiz-adv-x="205" arabic-form="final" 
d="M106 51q16 -10 43.5 -15.5t57.5 -5.5q8 0 8 -8v-23q0 -9 -8 -9q-32 0 -59.5 5.5t-41.5 14.5q-3 3 -13.5 21t-10.5 23l-6 131q-22 448 -21 422q20 6 48 24h3v-580zM189 725q-36 -31 -62 -45t-48 -14q-17 0 -30 5.5t-30 17.5q-27 16 -33 19l-57 -46l-5 6q43 37 58 47.5
t30 10.5q10 0 19.5 -4.5t11.5 -5.5q9 -5 20 -9t22 -4q47 0 96 32z" />
    <glyph glyph-name="uniFE84" unicode="&#x623;" horiz-adv-x="205" arabic-form="final" 
d="M106 51q16 -10 43.5 -15.5t57.5 -5.5q8 0 8 -8v-23q0 -9 -8 -9q-32 0 -59.5 5.5t-41.5 14.5q-3 3 -13.5 21t-10.5 23l-6 131q-22 448 -21 422q20 6 48 24h3v-580zM141 693q-16 -2 -23 -4q-2 -6 -7 -33l-8 1l6 31q-55 -9 -100 -29l-1 29q18 13 60 31q-20 7 -34.5 21.5
t-14.5 28.5q0 19 13.5 37t33.5 29t37 11q36 0 36 -43q0 -18 -11 -69l32 8l1 -3q-12 -19 -20 -46zM118 732q10 45 10 58q0 18 -17 18q-21 0 -42.5 -13t-38.5 -36q25 -31 54 -31q17 0 34 4z" />
    <glyph glyph-name="uniFE86" unicode="&#x624;" horiz-adv-x="348" arabic-form="final" 
d="M358 22v-23q0 -9 -8 -9h-48q-19 -84 -72.5 -143t-119.5 -77l-155 88l4 8q52 -29 78.5 -40t57.5 -11q27 0 63.5 20t70 60t52.5 96q-38 2 -60 5q-70 8 -115.5 36t-45.5 82q0 102 151 298l6 -5q-24 -26 -54 -72q68 -49 108 -118t40 -148q0 -14 -2 -38q13 -1 41 -1q8 0 8 -8z
M126.5 65.5q48.5 -27.5 164.5 -37.5v1q0 83 -38.5 153.5t-111.5 119.5q-28 -46 -45.5 -87.5t-17.5 -68.5q0 -53 48.5 -80.5zM240 543v-4q-6 -11 -18 -39l-22 -4l-8 -39l-9 1l7 36q-63 -11 -113 -33l-4 22q32 22 64 36q-22 7 -37 22t-15 29q0 16 15 37.5t37.5 37t42.5 15.5
q39 0 39 -44q0 -24 -12 -81zM198 533q10 55 10 68q0 9 -5 13.5t-14 4.5q-22 0 -46.5 -14.5t-47.5 -42.5q8 -15 24 -25t34 -10t45 6z" />
    <glyph glyph-name="uniFE88" unicode="&#x625;" horiz-adv-x="205" arabic-form="final" 
d="M106 51q16 -10 43.5 -15.5t57.5 -5.5q8 0 8 -8v-23q0 -9 -8 -9q-32 0 -59.5 5.5t-41.5 14.5q-3 3 -13.5 21t-10.5 23q-5 94 -7.5 164.5t-4.5 117.5q-3 61 -6 146t-9 196q20 6 48 24h3v-651zM173 -192q-16 -2 -23 -4q-1 -5 -7 -33l-8 1l6 31q-55 -9 -100 -29l-1 29
q18 13 60 31q-20 7 -34.5 21.5t-14.5 28.5q0 19 13.5 37t33.5 29t37 11q36 0 36 -43q0 -18 -11 -69l32 8l1 -3q-12 -19 -20 -46zM150 -153q10 45 10 58q0 18 -17 18q-21 0 -42.5 -13t-38.5 -36q25 -31 54 -31q17 0 34 4z" />
    <glyph glyph-name="uniFE8A" unicode="&#x626;" horiz-adv-x="531" arabic-form="final" 
d="M541 19v-18q0 -5 -3 -8t-8 -3q-67 0 -122 25l98 -71q2 -3 4.5 -9t1.5 -7q-38 -72 -121.5 -115t-180.5 -43q-74 0 -114.5 39.5t-40.5 111.5q0 35 8.5 89.5t25.5 107.5l8 -3q-28 -100 -28 -154q0 -73 39 -111.5t112 -38.5q58 0 115 18.5t100.5 48t62.5 61.5l-128 93l8 28
l2 2q38 -18 72 -25t78 -7q11 0 11 -11zM448 225v-4q-6 -11 -18 -39l-22 -4l-8 -39l-9 1l7 36q-63 -11 -113 -33l-4 22q32 22 64 36q-22 7 -37 22t-15 29q0 16 15 37.5t37.5 37t42.5 15.5q39 0 39 -44q0 -24 -12 -81zM406 215q10 55 10 68q0 9 -5 13.5t-14 4.5
q-22 0 -46.5 -14.5t-47.5 -42.5q8 -15 24 -25t34 -10t45 6z" />
    <glyph glyph-name="uniFE8B" unicode="&#x626;" horiz-adv-x="251" arabic-form="initial" 
d="M181.5 214.5q14.5 -75.5 14.5 -112.5q0 -7 -5 -32.5t-9 -36.5q-39 -20 -86 -31.5t-97 -11.5q-9 0 -9 9v23q0 8 9 8q52 0 97.5 8t76.5 23q-11 121 -69 262q20 15 37 36h4q22 -69 36.5 -144.5zM199 508v-4q-6 -11 -18 -39l-22 -4l-8 -39l-9 1l7 36q-63 -11 -113 -33l-4 22
q32 22 64 36q-22 7 -37 22t-15 29q0 16 15 37.5t37.5 37t42.5 15.5q39 0 39 -44q0 -24 -12 -81zM157 498q10 55 10 68q0 9 -5 13.5t-14 4.5q-22 0 -46.5 -14.5t-47.5 -42.5q8 -15 24 -25t34 -10t45 6z" />
    <glyph glyph-name="uniFE8C" unicode="&#x626;" horiz-adv-x="236" arabic-form="medial" 
d="M246 22v-23q0 -9 -8 -9q-76 0 -136 24l-5 -14q-51 -10 -98 -10q-9 0 -9 9v23q0 8 9 8q55 0 101 5l16 44q2 6 2 17q0 31 -9 92.5t-12 81.5q25 17 44 42h3l-4 -182q0 -9 -27 -86q54 -14 125 -14q8 0 8 -8zM195 458v-4q-6 -11 -18 -39l-22 -4l-8 -39l-9 1l7 36
q-63 -11 -113 -33l-4 22q32 22 64 36q-22 7 -37 22t-15 29q0 16 15 37.5t37.5 37t42.5 15.5q39 0 39 -44q0 -24 -12 -81zM153 448q10 55 10 68q0 9 -5 13.5t-14 4.5q-22 0 -46.5 -14.5t-47.5 -42.5q8 -15 24 -25t34 -10t45 6z" />
    <glyph glyph-name="uniFE8E" unicode="&#x627;" horiz-adv-x="205" arabic-form="final" 
d="M106 51q16 -10 43.5 -15.5t57.5 -5.5q8 0 8 -8v-23q0 -9 -8 -9q-32 0 -59.5 5.5t-41.5 14.5q-3 3 -13.5 21t-10.5 23q-5 94 -7.5 164.5t-4.5 117.5q-3 61 -6 146t-9 196q20 6 48 24h3v-651z" />
    <glyph glyph-name="uniFE90" unicode="&#x628;" horiz-adv-x="670" arabic-form="final" 
d="M680 22v-23q0 -9 -8 -9q-55 0 -130 39l-3 -7q-49 -15 -113 -23.5t-131 -8.5q-112 0 -168.5 41t-56.5 124q0 40 14 116l9 -2q-8 -43 -8 -79q0 -86 59.5 -123t172.5 -37q152 0 224 23q20 58 60 182l8 -3l-11 -33q-10 -31 -21.5 -68t-25.5 -76q23 -12 55.5 -18.5t65.5 -6.5
q8 0 8 -8zM406.5 -112.5q9.5 -7.5 9.5 -16.5t-27 -49q-28 20 -55 36l18 30q11 19 13 22l3 1q29 -16 38.5 -23.5z" />
    <glyph glyph-name="uniFE91" unicode="&#x628;" horiz-adv-x="251" arabic-form="initial" 
d="M181.5 214.5q14.5 -75.5 14.5 -112.5q0 -7 -5 -32.5t-9 -36.5q-39 -20 -86 -31.5t-97 -11.5q-9 0 -9 9v23q0 8 9 8q52 0 97.5 8t76.5 23q-11 121 -69 262q20 15 37 36h4q22 -69 36.5 -144.5zM153.5 -112.5q9.5 -7.5 9.5 -16.5t-27 -49q-28 20 -55 36l18 30q11 19 13 22
l3 1q29 -16 38.5 -23.5z" />
    <glyph glyph-name="uniFE92" unicode="&#x628;" horiz-adv-x="236" arabic-form="medial" 
d="M246 22v-23q0 -9 -8 -9q-76 0 -136 24l-5 -14q-51 -10 -98 -10q-9 0 -9 9v23q0 8 9 8q55 0 101 5l16 44q2 6 2 17q0 31 -9 92.5t-12 81.5q25 17 44 42h3l-4 -182q0 -9 -27 -86q54 -14 125 -14q8 0 8 -8zM154.5 -112.5q9.5 -7.5 9.5 -16.5t-27 -49q-28 20 -55 36l18 30
q11 19 13 22l3 1q29 -16 38.5 -23.5z" />
    <glyph glyph-name="uniFE94" unicode="&#x629;" horiz-adv-x="376" arabic-form="final" 
d="M386 22v-23q0 -9 -8 -9q-37 0 -58.5 14.5t-31.5 46.5l-18 -32q-43 2 -92.5 15t-83.5 34t-34 46q0 10 2.5 19t11.5 23q50 84 171 173q-2 18 -4 28q25 9 47 23h3l20 -339q11 -6 25.5 -8.5t41.5 -2.5q8 0 8 -8zM166 79.5q60 -20.5 120 -21.5l-3 16q-5 24 -12 83
q-10 73 -24 163q-59 -45 -104 -90t-72 -99q35 -31 95 -51.5zM181.5 554.5q9.5 -7.5 9.5 -16.5q0 -8 -27 -49q-28 20 -55 36l18 30q11 19 13 22l3 1q29 -16 38.5 -23.5zM307.5 554.5q9.5 -7.5 9.5 -16.5q0 -8 -27 -49q-28 20 -55 36l18 30q11 19 13 22l3 1q29 -16 38.5 -23.5
z" />
    <glyph glyph-name="uniFE96" unicode="&#x62a;" horiz-adv-x="670" arabic-form="final" 
d="M680 22v-23q0 -9 -8 -9q-55 0 -130 39l-3 -7q-49 -15 -113 -23.5t-131 -8.5q-112 0 -168.5 41t-56.5 124q0 40 14 116l9 -2q-8 -43 -8 -79q0 -86 59.5 -123t172.5 -37q152 0 224 23q20 58 60 182l8 -3l-11 -33q-10 -31 -21.5 -68t-25.5 -76q23 -12 55.5 -18.5t65.5 -6.5
q8 0 8 -8zM323.5 406.5q9.5 -7.5 9.5 -16.5q0 -8 -27 -49q-28 20 -55 36l18 30q11 19 13 22l3 1q29 -16 38.5 -23.5zM449.5 406.5q9.5 -7.5 9.5 -16.5q0 -8 -27 -49q-28 20 -55 36l18 30q11 19 13 22l3 1q29 -16 38.5 -23.5z" />
    <glyph glyph-name="uniFE97" unicode="&#x62a;" horiz-adv-x="300" arabic-form="initial" 
d="M230.5 214.5q14.5 -75.5 14.5 -112.5q0 -7 -5 -32.5t-9 -36.5q-49 -19 -112.5 -31t-119.5 -12q-9 0 -9 9v23q0 8 9 8q57 0 121 9t102 22q-11 121 -69 262q20 15 37 36h4q22 -69 36.5 -144.5zM113.5 553.5q9.5 -7.5 9.5 -16.5q0 -8 -27 -49q-28 20 -55 36l18 30
q11 19 13 22l3 1q29 -16 38.5 -23.5zM239.5 553.5q9.5 -7.5 9.5 -16.5q0 -8 -27 -49q-28 20 -55 36l18 30q11 19 13 22l3 1q29 -16 38.5 -23.5z" />
    <glyph glyph-name="uniFE98" unicode="&#x62a;" horiz-adv-x="268" arabic-form="medial" 
d="M278 22v-23q0 -9 -8 -9q-84 0 -147 24l-5 -14q-51 -10 -119 -10q-9 0 -9 9v23q0 8 9 8q76 0 122 5l16 44q2 6 2 17q0 31 -9 92.5t-12 81.5q25 17 44 42h3l-4 -182q0 -9 -27 -86q53 -14 136 -14q8 0 8 -8zM100.5 498.5q9.5 -7.5 9.5 -16.5q0 -8 -27 -49q-28 20 -55 36
l18 30q11 19 13 22l3 1q29 -16 38.5 -23.5zM226.5 498.5q9.5 -7.5 9.5 -16.5q0 -8 -27 -49q-28 20 -55 36l18 30q11 19 13 22l3 1q29 -16 38.5 -23.5z" />
    <glyph glyph-name="uniFE9A" unicode="&#x62b;" horiz-adv-x="670" arabic-form="final" 
d="M680 22v-23q0 -9 -8 -9q-55 0 -130 39l-3 -7q-49 -15 -113 -23.5t-131 -8.5q-112 0 -168.5 41t-56.5 124q0 40 14 116l9 -2q-8 -43 -8 -79q0 -86 59.5 -123t172.5 -37q152 0 224 23q20 58 60 182l8 -3l-11 -33q-10 -31 -21.5 -68t-25.5 -76q23 -12 55.5 -18.5t65.5 -6.5
q8 0 8 -8zM389 508q9 -7 8 -16q0 -7 -12 -24t-15 -22q-26 20 -51 36l30 48l3 1q28 -16 37 -23zM328.5 424.5q9.5 -7.5 9.5 -16.5q0 -8 -27 -49q-28 20 -55 36l18 30q11 19 13 22l3 1q29 -16 38.5 -23.5zM454.5 424.5q9.5 -7.5 9.5 -16.5q0 -8 -27 -49q-28 20 -55 36l18 30
q11 19 13 22l3 1q29 -16 38.5 -23.5z" />
    <glyph glyph-name="uniFE9B" unicode="&#x62b;" horiz-adv-x="300" arabic-form="initial" 
d="M230.5 214.5q14.5 -75.5 14.5 -112.5q0 -7 -5 -32.5t-9 -36.5q-49 -19 -112.5 -31t-119.5 -12q-9 0 -9 9v23q0 8 9 8q57 0 121 9t102 22q-11 121 -69 262q20 15 37 36h4q22 -69 36.5 -144.5zM172 635q9 -7 8 -16q0 -7 -12 -24t-15 -22q-26 20 -51 36l30 48l3 1
q28 -16 37 -23zM111.5 551.5q9.5 -7.5 9.5 -16.5q0 -8 -27 -49q-28 20 -55 36l18 30q11 19 13 22l3 1q29 -16 38.5 -23.5zM237.5 551.5q9.5 -7.5 9.5 -16.5q0 -8 -27 -49q-28 20 -55 36l18 30q11 19 13 22l3 1q29 -16 38.5 -23.5z" />
    <glyph glyph-name="uniFE9C" unicode="&#x62b;" horiz-adv-x="268" arabic-form="medial" 
d="M278 22v-23q0 -9 -8 -9q-84 0 -147 24l-5 -14q-51 -10 -119 -10q-9 0 -9 9v23q0 8 9 8q76 0 122 5l16 44q2 6 2 17q0 31 -9 92.5t-12 81.5q25 17 44 42h3l-4 -182q0 -9 -27 -86q53 -14 136 -14q8 0 8 -8zM160 580q9 -7 8 -16q0 -7 -12 -24t-15 -22q-26 20 -51 36l30 48
l3 1q28 -16 37 -23zM99.5 496.5q9.5 -7.5 9.5 -16.5q0 -8 -27 -49q-28 20 -55 36l18 30q11 19 13 22l3 1q29 -16 38.5 -23.5zM225.5 496.5q9.5 -7.5 9.5 -16.5q0 -8 -27 -49q-28 20 -55 36l18 30q11 19 13 22l3 1q29 -16 38.5 -23.5z" />
    <glyph glyph-name="uniFE9E" unicode="&#x62c;" horiz-adv-x="548" arabic-form="final" 
d="M289 109.5q-95 -30.5 -157.5 -96.5t-62.5 -168q0 -32 8 -67t22 -62l-7 -4q-18 29 -27.5 69t-9.5 80q0 90 48.5 157.5t130 107t181.5 50.5q-44 26 -110 84q-46 40 -72.5 57.5t-55.5 17.5q-21 0 -41.5 -14.5t-61.5 -55.5l-6 6l15 15q64 68 94 95q47 -6 84 -30.5t85 -69.5
q49 -45 84 -69t80 -32q-12 -14 -26 -39q-100 -1 -195 -31.5zM558 22v-23q0 -9 -8 -9q-46 0 -72 11t-38 39t-12 80h9q0 -52 25 -71t88 -19q8 0 8 -8zM307.5 -47.5q9.5 -7.5 9.5 -16.5t-27 -49q-28 20 -55 36l18 30q11 19 13 22l3 1q29 -16 38.5 -23.5z" />
    <glyph glyph-name="uniFE9F" unicode="&#x62c;" horiz-adv-x="444" arabic-form="initial" 
d="M398 92q-25 8 -41 17q-57 -12 -90 -27.5t-74 -39.5q-30 -19 -51.5 -29t-56 -16.5t-86.5 -6.5q-9 0 -9 9v23q0 8 9 8q84 0 129.5 11t97.5 34q31 14 57 23.5t61 17.5q-29 16 -51 35.5t-54 51.5q-37 37 -60 53.5t-52 16.5q-22 0 -42.5 -14.5t-60.5 -54.5l-6 6l15 15
q64 68 94 95q45 -5 76 -26.5t72 -64.5q39 -41 71.5 -65t77.5 -33q-12 -15 -26 -39zM243.5 -74.5q9.5 -7.5 9.5 -16.5t-27 -49q-28 20 -55 36l18 30q11 19 13 22l3 1q29 -16 38.5 -23.5z" />
    <glyph glyph-name="uniFEA0" unicode="&#x62c;" horiz-adv-x="453" arabic-form="medial" 
d="M337 133q-85 -65 -169.5 -104t-178.5 -39q-9 0 -9 9v23q0 8 9 8q121 0 197.5 27t141.5 81q-39 24 -90 75q-37 35 -59.5 50.5t-49.5 15.5q-21 0 -41.5 -14.5t-61.5 -56.5l-6 6l15 15q64 68 94 95q43 -5 73 -25t68 -58q40 -40 71.5 -62t77.5 -30q-12 -15 -26 -40
q-23 7 -56 24zM463 22v-23q0 -9 -8 -9q-46 0 -72 10t-38 35.5t-12 73.5h9q0 -46 25 -62.5t88 -16.5q8 0 8 -8zM260.5 -74.5q9.5 -7.5 9.5 -16.5t-27 -49q-28 20 -55 36l18 30q11 19 13 22l3 1q29 -16 38.5 -23.5z" />
    <glyph glyph-name="uniFEA2" unicode="&#x62d;" horiz-adv-x="548" arabic-form="final" 
d="M289 109.5q-95 -30.5 -157.5 -96.5t-62.5 -168q0 -32 8 -67t22 -62l-7 -4q-18 29 -27.5 69t-9.5 80q0 90 48.5 157.5t130 107t181.5 50.5q-44 26 -110 84q-46 40 -72.5 57.5t-55.5 17.5q-21 0 -41.5 -14.5t-61.5 -55.5l-6 6l15 15q64 68 94 95q47 -6 84 -30.5t85 -69.5
q49 -45 84 -69t80 -32q-12 -14 -26 -39q-100 -1 -195 -31.5zM558 22v-23q0 -9 -8 -9q-46 0 -72 11t-38 39t-12 80h9q0 -52 25 -71t88 -19q8 0 8 -8z" />
    <glyph glyph-name="uniFEA3" unicode="&#x62d;" horiz-adv-x="444" arabic-form="initial" 
d="M398 92q-25 8 -41 17q-57 -12 -90 -27.5t-74 -39.5q-30 -19 -51.5 -29t-56 -16.5t-86.5 -6.5q-9 0 -9 9v23q0 8 9 8q84 0 129.5 11t97.5 34q31 14 57 23.5t61 17.5q-29 16 -51 35.5t-54 51.5q-37 37 -60 53.5t-52 16.5q-22 0 -42.5 -14.5t-60.5 -54.5l-6 6l15 15
q64 68 94 95q45 -5 76 -26.5t72 -64.5q39 -41 71.5 -65t77.5 -33q-12 -15 -26 -39z" />
    <glyph glyph-name="uniFEA4" unicode="&#x62d;" horiz-adv-x="453" arabic-form="medial" 
d="M337 133q-85 -65 -169.5 -104t-178.5 -39q-9 0 -9 9v23q0 8 9 8q121 0 197.5 27t141.5 81q-39 24 -90 75q-37 35 -59.5 50.5t-49.5 15.5q-21 0 -41.5 -14.5t-61.5 -56.5l-6 6l15 15q64 68 94 95q43 -5 73 -25t68 -58q40 -40 71.5 -62t77.5 -30q-12 -15 -26 -40
q-23 7 -56 24zM463 22v-23q0 -9 -8 -9q-46 0 -72 10t-38 35.5t-12 73.5h9q0 -46 25 -62.5t88 -16.5q8 0 8 -8z" />
    <glyph glyph-name="uniFEA6" unicode="&#x62e;" horiz-adv-x="548" arabic-form="final" 
d="M289 109.5q-95 -30.5 -157.5 -96.5t-62.5 -168q0 -32 8 -67t22 -62l-7 -4q-18 29 -27.5 69t-9.5 80q0 90 48.5 157.5t130 107t181.5 50.5q-44 26 -110 84q-46 40 -72.5 57.5t-55.5 17.5q-21 0 -41.5 -14.5t-61.5 -55.5l-6 6l15 15q64 68 94 95q47 -6 84 -30.5t85 -69.5
q49 -45 84 -69t80 -32q-12 -14 -26 -39q-100 -1 -195 -31.5zM558 22v-23q0 -9 -8 -9q-46 0 -72 11t-38 39t-12 80h9q0 -52 25 -71t88 -19q8 0 8 -8zM350.5 560.5q9.5 -7.5 9.5 -16.5q0 -8 -27 -49q-28 20 -55 36l18 30q11 19 13 22l3 1q29 -16 38.5 -23.5z" />
    <glyph glyph-name="uniFEA7" unicode="&#x62e;" horiz-adv-x="444" arabic-form="initial" 
d="M398 92q-25 8 -41 17q-57 -12 -90 -27.5t-74 -39.5q-30 -19 -51.5 -29t-56 -16.5t-86.5 -6.5q-9 0 -9 9v23q0 8 9 8q84 0 129.5 11t97.5 34q31 14 57 23.5t61 17.5q-29 16 -51 35.5t-54 51.5q-37 37 -60 53.5t-52 16.5q-22 0 -42.5 -14.5t-60.5 -54.5l-6 6l15 15
q64 68 94 95q45 -5 76 -26.5t72 -64.5q39 -41 71.5 -65t77.5 -33q-12 -15 -26 -39zM265.5 488.5q9.5 -7.5 9.5 -16.5q0 -8 -27 -49q-28 20 -55 36l18 30q11 19 13 22l3 1q29 -16 38.5 -23.5z" />
    <glyph glyph-name="uniFEA8" unicode="&#x62e;" horiz-adv-x="453" arabic-form="medial" 
d="M337 133q-85 -65 -169.5 -104t-178.5 -39q-9 0 -9 9v23q0 8 9 8q121 0 197.5 27t141.5 81q-39 24 -90 75q-37 35 -59.5 50.5t-49.5 15.5q-21 0 -41.5 -14.5t-61.5 -56.5l-6 6l15 15q64 68 94 95q43 -5 73 -25t68 -58q40 -40 71.5 -62t77.5 -30q-12 -15 -26 -40
q-23 7 -56 24zM463 22v-23q0 -9 -8 -9q-46 0 -72 10t-38 35.5t-12 73.5h9q0 -46 25 -62.5t88 -16.5q8 0 8 -8zM265.5 488.5q9.5 -7.5 9.5 -16.5q0 -8 -27 -49q-28 20 -55 36l18 30q11 19 13 22l3 1q29 -16 38.5 -23.5z" />
    <glyph glyph-name="uniFEAA" unicode="&#x62f;" horiz-adv-x="429" arabic-form="final" 
d="M439 22v-23q0 -9 -8 -9q-23 0 -47.5 12.5t-44.5 36.5q-47 -25 -99 -37t-100 -12q-56 0 -85.5 23.5t-29.5 66.5q0 26 14 84l8 -2q-5 -28 -5 -45q0 -46 27.5 -66.5t89.5 -20.5q81 0 164 32l-1 2q-31 56 -59.5 125.5t-64.5 172.5q24 18 39 35h4q42 -184 95 -288
q21 -42 40.5 -60.5t54.5 -18.5q8 0 8 -8z" />
    <glyph glyph-name="uniFEAC" unicode="&#x630;" horiz-adv-x="429" arabic-form="final" 
d="M439 22v-23q0 -9 -8 -9q-23 0 -47.5 12.5t-44.5 36.5q-47 -25 -99 -37t-100 -12q-56 0 -85.5 23.5t-29.5 66.5q0 26 14 84l8 -2q-5 -28 -5 -45q0 -46 27.5 -66.5t89.5 -20.5q81 0 164 32l-1 2q-31 56 -59.5 125.5t-64.5 172.5q24 18 39 35h4q42 -184 95 -288
q21 -42 40.5 -60.5t54.5 -18.5q8 0 8 -8zM212.5 567.5q9.5 -7.5 9.5 -16.5q0 -8 -27 -49q-28 20 -55 36l18 30q11 19 13 22l3 1q29 -16 38.5 -23.5z" />
    <glyph glyph-name="uniFEAE" unicode="&#x631;" horiz-adv-x="295" arabic-form="final" 
d="M305 22v-23q0 -9 -9 -9q-35 0 -85 15q-9 -84 -61 -149.5t-123 -85.5q-101 57 -116 66l-31 18l4 8q46 -26 72 -36.5t56 -10.5q29 0 67.5 25t71.5 73t46 112q-22 67 -42.5 112t-60.5 114q21 20 34 40h4q38 -87 59 -145t22 -105q31 -11 83 -11q9 0 9 -8z" />
    <glyph glyph-name="uniFEB0" unicode="&#x632;" horiz-adv-x="295" arabic-form="final" 
d="M305 22v-23q0 -9 -9 -9q-35 0 -85 15q-9 -84 -61 -149.5t-123 -85.5q-101 57 -116 66l-31 18l4 8q46 -26 72 -36.5t56 -10.5q29 0 67.5 25t71.5 73t46 112q-22 67 -42.5 112t-60.5 114q21 20 34 40h4q38 -87 59 -145t22 -105q31 -11 83 -11q9 0 9 -8zM99.5 470.5
q9.5 -7.5 9.5 -16.5q0 -8 -27 -49q-28 20 -55 36l18 30q11 19 13 22l3 1q29 -16 38.5 -23.5z" />
    <glyph glyph-name="uniFEB2" unicode="&#x633;" horiz-adv-x="891" arabic-form="final" 
d="M901 22v-23q0 -9 -8 -9q-34 0 -69.5 5t-59.5 14l-3 -9q-51 -10 -82 -10q-57 0 -111 20q-1 -2 -4 -10q-16 -4 -38 -7t-38 -3q-25 0 -44 3q1 -7 1 -19q0 -52 -36 -99.5t-91 -76t-108 -28.5q-74 0 -114.5 39.5t-40.5 111.5q0 35 8.5 89.5t25.5 107.5l8 -3q-28 -100 -28 -154
q0 -72 37 -111t106 -39q60 0 116 33.5t96 93.5q-6 62 -21 118t-42 130q21 19 35 42h4q32 -114 41 -196q32 -2 56 -2q43 0 71 9q7 18 25.5 73.5t29.5 89.5q4 12 19 58l9 -3l-71 -211q51 -16 98 -16q44 0 86 5l16 44q2 6 2 15q0 33 -11 104.5t-15 95.5q27 20 43 41h3l2 -205
q0 -10 -29 -91q58 -9 118 -9q8 0 8 -8z" />
    <glyph glyph-name="uniFEB3" unicode="&#x633;" horiz-adv-x="543" arabic-form="initial" 
d="M478 27q-8 -27 -13 -37q-149 0 -240 32q-7 -19 -8 -22q-16 -4 -38 -7t-38 -3q-18 0 -42 3t-39 7q-37 -10 -61 -10q-9 0 -9 9v23q0 8 9 8q37 0 65 9q15 40 61 178l9 -3q-34 -103 -61 -178q38 -6 77 -6q43 0 71 9q7 18 25.5 73.5t29.5 89.5q3 12 19 58l9 -3l-66 -198
q57 -14 108 -21.5t118 -7.5q-39 145 -67 263q22 16 39 36h4q12 -74 31 -176l17 -99z" />
    <glyph glyph-name="uniFEB4" unicode="&#x633;" horiz-adv-x="544" arabic-form="medial" 
d="M554 22v-23q0 -9 -8 -9q-34 0 -69.5 5t-59.5 14l-3 -9q-51 -10 -82 -10q-59 0 -112 18l-3 -8q-16 -4 -38 -7t-38 -3q-18 0 -42 3t-39 7q-37 -10 -61 -10q-9 0 -9 9v23q0 8 9 8q37 0 65 9q15 40 61 178l9 -3q-34 -103 -61 -178q38 -6 77 -6q43 0 71 9q7 18 25.5 73.5
t29.5 89.5q3 12 19 58l9 -3l-71 -211q51 -16 98 -16q44 0 86 5l16 44q2 6 2 15q0 33 -11 104.5t-15 95.5q27 20 43 41h3l2 -205q0 -10 -29 -91q59 -9 118 -9q8 0 8 -8z" />
    <glyph glyph-name="uniFEB6" unicode="&#x634;" horiz-adv-x="891" arabic-form="final" 
d="M901 22v-23q0 -9 -8 -9q-34 0 -69.5 5t-59.5 14l-3 -9q-51 -10 -82 -10q-57 0 -111 20q-1 -2 -4 -10q-16 -4 -38 -7t-38 -3q-25 0 -44 3q1 -7 1 -19q0 -52 -36 -99.5t-91 -76t-108 -28.5q-74 0 -114.5 39.5t-40.5 111.5q0 35 8.5 89.5t25.5 107.5l8 -3q-28 -100 -28 -154
q0 -72 37 -111t106 -39q60 0 116 33.5t96 93.5q-6 62 -21 118t-42 130q21 19 35 42h4q32 -114 41 -196q32 -2 56 -2q43 0 71 9q7 18 25.5 73.5t29.5 89.5q4 12 19 58l9 -3l-71 -211q51 -16 98 -16q44 0 86 5l16 44q2 6 2 15q0 33 -11 104.5t-15 95.5q27 20 43 41h3l2 -205
q0 -10 -29 -91q58 -9 118 -9q8 0 8 -8zM626 526q9 -7 8 -16q0 -7 -12 -24t-15 -22q-26 20 -51 36l30 48l3 1q28 -16 37 -23zM565.5 442.5q9.5 -7.5 9.5 -16.5q0 -8 -27 -49q-28 20 -55 36l18 30q11 19 13 22l3 1q29 -16 38.5 -23.5zM691.5 442.5q9.5 -7.5 9.5 -16.5
q0 -8 -27 -49q-28 20 -55 36l18 30q11 19 13 22l3 1q29 -16 38.5 -23.5z" />
    <glyph glyph-name="uniFEB7" unicode="&#x634;" horiz-adv-x="543" arabic-form="initial" 
d="M478 27q-8 -27 -13 -37q-149 0 -240 32q-7 -19 -8 -22q-16 -4 -38 -7t-38 -3q-18 0 -42 3t-39 7q-37 -10 -61 -10q-9 0 -9 9v23q0 8 9 8q37 0 65 9q15 40 61 178l9 -3q-34 -103 -61 -178q38 -6 77 -6q43 0 71 9q7 18 25.5 73.5t29.5 89.5q3 12 19 58l9 -3l-66 -198
q57 -14 108 -21.5t118 -7.5q-39 145 -67 263q22 16 39 36h4q12 -74 31 -176l17 -99zM292 526q9 -7 8 -16q0 -7 -12 -24t-15 -22q-26 20 -51 36l30 48l3 1q28 -16 37 -23zM231.5 442.5q9.5 -7.5 9.5 -16.5q0 -8 -27 -49q-28 20 -55 36l18 30q11 19 13 22l3 1
q29 -16 38.5 -23.5zM357.5 442.5q9.5 -7.5 9.5 -16.5q0 -8 -27 -49q-28 20 -55 36l18 30q11 19 13 22l3 1q29 -16 38.5 -23.5z" />
    <glyph glyph-name="uniFEB8" unicode="&#x634;" horiz-adv-x="544" arabic-form="medial" 
d="M554 22v-23q0 -9 -8 -9q-34 0 -69.5 5t-59.5 14l-3 -9q-51 -10 -82 -10q-59 0 -112 18l-3 -8q-16 -4 -38 -7t-38 -3q-18 0 -42 3t-39 7q-37 -10 -61 -10q-9 0 -9 9v23q0 8 9 8q37 0 65 9q15 40 61 178l9 -3q-34 -103 -61 -178q38 -6 77 -6q43 0 71 9q7 18 25.5 73.5
t29.5 89.5q3 12 19 58l9 -3l-71 -211q51 -16 98 -16q44 0 86 5l16 44q2 6 2 15q0 33 -11 104.5t-15 95.5q27 20 43 41h3l2 -205q0 -10 -29 -91q59 -9 118 -9q8 0 8 -8zM290 526q9 -7 8 -16q0 -7 -12 -24t-15 -22q-26 20 -51 36l30 48l3 1q28 -16 37 -23zM229.5 442.5
q9.5 -7.5 9.5 -16.5q0 -8 -27 -49q-28 20 -55 36l18 30q11 19 13 22l3 1q29 -16 38.5 -23.5zM355.5 442.5q9.5 -7.5 9.5 -16.5q0 -8 -27 -49q-28 20 -55 36l18 30q11 19 13 22l3 1q29 -16 38.5 -23.5z" />
    <glyph glyph-name="uniFEBA" unicode="&#x635;" horiz-adv-x="921" arabic-form="final" 
d="M931 22v-23q0 -9 -9 -9q-80 0 -166 43q-49 -21 -107.5 -32t-115.5 -11q-50 0 -89 7q1 -9 1 -23q0 -52 -36 -99.5t-91 -76t-108 -28.5q-74 0 -114.5 39.5t-40.5 111.5q0 35 8.5 89.5t25.5 107.5l8 -3q-28 -100 -28 -154q0 -72 37 -111t106 -39q60 0 116 33.5t96 93.5
q-6 62 -21 118t-42 130q21 19 35 42h4q28 -100 40 -187l7 -2q76 114 126 180t85 96.5t62 30.5q41 0 78.5 -28.5t61 -70t23.5 -76.5q0 -36 -25.5 -67.5t-69.5 -54.5q32 -9 69 -14t65 -5q9 0 9 -8zM560 30q73 0 163.5 32.5t139.5 82.5q-21 70 -64 113t-89 43q-32 0 -59 -18
t-68.5 -71t-127.5 -175q39 -7 105 -7z" />
    <glyph glyph-name="uniFEBB" unicode="&#x635;" horiz-adv-x="560" arabic-form="initial" 
d="M430.5 317.5q37.5 -28.5 61 -70t23.5 -76.5q0 -53 -52.5 -94.5t-134 -64t-163.5 -22.5q-31 0 -69 4.5t-64 11.5q0 -2 -2 -6q-17 -10 -31 -10q-9 0 -9 9v23q0 8 9 8q16 0 34 6q5 14 36 106l15 45l9 -3l-47 -140q22 -5 41 -8q84 127 128.5 188.5t77 91.5t59.5 30
q41 0 78.5 -28.5zM355.5 62.5q90.5 32.5 139.5 82.5q-21 70 -64 113t-89 43q-32 0 -56.5 -18t-60 -65.5t-129.5 -182.5q50 -5 96 -5q73 0 163.5 32.5z" />
    <glyph glyph-name="uniFEBC" unicode="&#x635;" horiz-adv-x="552" arabic-form="medial" 
d="M562 22v-23q0 -9 -9 -9q-79 0 -165 43q-49 -21 -107.5 -32t-115.5 -11q-31 0 -69 4.5t-64 11.5q0 -2 -2 -6q-17 -10 -31 -10q-9 0 -9 9v23q0 8 9 8q16 0 34 6q5 14 36 106l15 45l9 -3l-47 -140q22 -5 41 -8q84 127 128.5 188.5t77 91.5t59.5 30q41 0 78.5 -28.5t61 -70
t23.5 -76.5q0 -36 -25.5 -67.5t-69.5 -54.5q32 -9 68.5 -14t64.5 -5q9 0 9 -8zM192 30q73 0 163.5 32.5t139.5 82.5q-21 70 -64 113t-89 43q-32 0 -56.5 -18t-60 -65.5t-129.5 -182.5q50 -5 96 -5z" />
    <glyph glyph-name="uniFEBE" unicode="&#x636;" horiz-adv-x="921" arabic-form="final" 
d="M931 22v-23q0 -9 -9 -9q-80 0 -166 43q-49 -21 -107.5 -32t-115.5 -11q-50 0 -89 7q1 -9 1 -23q0 -52 -36 -99.5t-91 -76t-108 -28.5q-74 0 -114.5 39.5t-40.5 111.5q0 35 8.5 89.5t25.5 107.5l8 -3q-28 -100 -28 -154q0 -72 37 -111t106 -39q60 0 116 33.5t96 93.5
q-6 62 -21 118t-42 130q21 19 35 42h4q28 -100 40 -187l7 -2q76 114 126 180t85 96.5t62 30.5q41 0 78.5 -28.5t61 -70t23.5 -76.5q0 -36 -25.5 -67.5t-69.5 -54.5q32 -9 69 -14t65 -5q9 0 9 -8zM560 30q73 0 163.5 32.5t139.5 82.5q-21 70 -64 113t-89 43q-32 0 -59 -18
t-68.5 -71t-127.5 -175q39 -7 105 -7zM576.5 470.5q9.5 -7.5 9.5 -16.5q0 -8 -27 -49q-28 20 -55 36l18 30q11 19 13 22l3 1q29 -16 38.5 -23.5z" />
    <glyph glyph-name="uniFEBF" unicode="&#x636;" horiz-adv-x="560" arabic-form="initial" 
d="M430.5 317.5q37.5 -28.5 61 -70t23.5 -76.5q0 -53 -52.5 -94.5t-134 -64t-163.5 -22.5q-31 0 -69 4.5t-64 11.5q0 -2 -2 -6q-17 -10 -31 -10q-9 0 -9 9v23q0 8 9 8q16 0 34 6q5 14 36 106l15 45l9 -3l-47 -140q22 -5 41 -8q84 127 128.5 188.5t77 91.5t59.5 30
q41 0 78.5 -28.5zM355.5 62.5q90.5 32.5 139.5 82.5q-21 70 -64 113t-89 43q-32 0 -56.5 -18t-60 -65.5t-129.5 -182.5q50 -5 96 -5q73 0 163.5 32.5zM202.5 470.5q9.5 -7.5 9.5 -16.5q0 -8 -27 -49q-28 20 -55 36l18 30q11 19 13 22l3 1q29 -16 38.5 -23.5z" />
    <glyph glyph-name="uniFEC0" unicode="&#x636;" horiz-adv-x="552" arabic-form="medial" 
d="M562 22v-23q0 -9 -9 -9q-79 0 -165 43q-49 -21 -107.5 -32t-115.5 -11q-31 0 -69 4.5t-64 11.5q0 -2 -2 -6q-17 -10 -31 -10q-9 0 -9 9v23q0 8 9 8q16 0 34 6q5 14 36 106l15 45l9 -3l-47 -140q22 -5 41 -8q84 127 128.5 188.5t77 91.5t59.5 30q41 0 78.5 -28.5t61 -70
t23.5 -76.5q0 -36 -25.5 -67.5t-69.5 -54.5q32 -9 68.5 -14t64.5 -5q9 0 9 -8zM192 30q73 0 163.5 32.5t139.5 82.5q-21 70 -64 113t-89 43q-32 0 -56.5 -18t-60 -65.5t-129.5 -182.5q50 -5 96 -5zM202.5 470.5q9.5 -7.5 9.5 -16.5q0 -8 -27 -49q-28 20 -55 36l18 30
q11 19 13 22l3 1q29 -16 38.5 -23.5z" />
    <glyph glyph-name="uniFEC2" unicode="&#x637;" horiz-adv-x="626" arabic-form="final" 
d="M636 22v-23q0 -9 -9 -9q-85 0 -174 48q-49 -23 -108.5 -35.5t-115.5 -12.5q-32 0 -82 9q-29 28 -49 39.5t-79 35.5l3 8q75 -32 112 -41l49 73q-8 173 -16 282t-25 260q20 6 48 24h3l14 -442q0 -18 -6 -36q-11 -35 -12 -80q83 121 132.5 172.5t84.5 51.5q41 0 78.5 -28.5
t61 -70t23.5 -76.5t-23.5 -65.5t-64.5 -53.5q33 -10 74 -16t72 -6q9 0 9 -8zM188.5 31.5q22.5 -1.5 57.5 -1.5q73 0 163.5 32.5t139.5 82.5q-21 70 -64 113t-89 43q-32 0 -59 -18t-68.5 -70.5t-126.5 -173.5q24 -6 46.5 -7.5z" />
    <glyph glyph-name="uniFEC3" unicode="&#x637;" horiz-adv-x="506" arabic-form="initial" 
d="M376.5 317.5q37.5 -28.5 61 -70t23.5 -76.5q0 -55 -57 -96t-161.5 -63t-243.5 -22q-9 0 -9 9v23q0 8 9 8h20l56 83q-8 173 -16 282.5t-25 260.5q20 6 48 24h3l14 -442q0 -1 -4 -21q-13 -49 -14 -95q83 121 132.5 172.5t84.5 51.5q41 0 78.5 -28.5zM285 63.5
q105 30.5 156 81.5q-21 70 -64 113t-89 43q-32 0 -59.5 -19.5t-70 -73.5t-129.5 -178q151 3 256 33.5z" />
    <glyph glyph-name="uniFEC4" unicode="&#x637;" horiz-adv-x="500" arabic-form="medial" 
d="M510 22v-23q0 -9 -9 -9q-44 0 -88.5 13t-83.5 34q-125 -47 -330 -47q-9 0 -9 9v23q0 8 9 8h20l56 83q-8 173 -16 282.5t-25 260.5q20 6 48 24h3l14 -442q0 -1 -4 -21q-13 -49 -14 -95q83 121 132.5 172.5t84.5 51.5q41 0 78.5 -28.5t61 -70t23.5 -76.5q0 -73 -99 -121
q32 -9 71 -14.5t68 -5.5q9 0 9 -8zM228.5 281.5q-27.5 -19.5 -70 -73.5t-129.5 -178q151 3 256 33.5t156 81.5q-21 70 -64 113t-89 43q-32 0 -59.5 -19.5z" />
    <glyph glyph-name="uniFEC6" unicode="&#x638;" horiz-adv-x="626" arabic-form="final" 
d="M636 22v-23q0 -9 -9 -9q-85 0 -174 48q-49 -23 -108.5 -35.5t-115.5 -12.5q-32 0 -82 9q-29 28 -49 39.5t-79 35.5l3 8q75 -32 112 -41l49 73q-8 173 -16 282t-25 260q20 6 48 24h3l14 -442q0 -18 -6 -36q-11 -35 -12 -80q83 121 132.5 172.5t84.5 51.5q41 0 78.5 -28.5
t61 -70t23.5 -76.5t-23.5 -65.5t-64.5 -53.5q33 -10 74 -16t72 -6q9 0 9 -8zM188.5 31.5q22.5 -1.5 57.5 -1.5q73 0 163.5 32.5t139.5 82.5q-21 70 -64 113t-89 43q-32 0 -59 -18t-68.5 -70.5t-126.5 -173.5q24 -6 46.5 -7.5zM408.5 540.5q9.5 -7.5 9.5 -16.5q0 -8 -27 -49
q-28 20 -55 36l18 30q11 19 13 22l3 1q29 -16 38.5 -23.5z" />
    <glyph glyph-name="uniFEC7" unicode="&#x638;" horiz-adv-x="506" arabic-form="initial" 
d="M376.5 317.5q37.5 -28.5 61 -70t23.5 -76.5q0 -55 -57 -96t-161.5 -63t-243.5 -22q-9 0 -9 9v23q0 8 9 8h20l56 83q-8 173 -16 282.5t-25 260.5q20 6 48 24h3l14 -442q0 -1 -4 -21q-13 -49 -14 -95q83 121 132.5 172.5t84.5 51.5q41 0 78.5 -28.5zM285 63.5
q105 30.5 156 81.5q-21 70 -64 113t-89 43q-32 0 -59.5 -19.5t-70 -73.5t-129.5 -178q151 3 256 33.5zM302.5 540.5q9.5 -7.5 9.5 -16.5q0 -8 -27 -49q-28 20 -55 36l18 30q11 19 13 22l3 1q29 -16 38.5 -23.5z" />
    <glyph glyph-name="uniFEC8" unicode="&#x638;" horiz-adv-x="500" arabic-form="medial" 
d="M510 22v-23q0 -9 -9 -9q-44 0 -88.5 13t-83.5 34q-125 -47 -330 -47q-9 0 -9 9v23q0 8 9 8h20l56 83q-8 173 -16 282.5t-25 260.5q20 6 48 24h3l14 -442q0 -1 -4 -21q-13 -49 -14 -95q83 121 132.5 172.5t84.5 51.5q41 0 78.5 -28.5t61 -70t23.5 -76.5q0 -73 -99 -121
q32 -9 71 -14.5t68 -5.5q9 0 9 -8zM228.5 281.5q-27.5 -19.5 -70 -73.5t-129.5 -178q151 3 256 33.5t156 81.5q-21 70 -64 113t-89 43q-32 0 -59.5 -19.5zM302.5 540.5q9.5 -7.5 9.5 -16.5q0 -8 -27 -49q-28 20 -55 36l18 30q11 19 13 22l3 1q29 -16 38.5 -23.5z" />
    <glyph glyph-name="uniFECA" unicode="&#x639;" horiz-adv-x="422" arabic-form="final" 
d="M431 21v-21q0 -10 -10 -10q-114 0 -190 63q-67 -48 -94.5 -96.5t-27.5 -119.5q0 -61 34 -121l-7 -4q-19 31 -30 72.5t-11 87.5q0 62 26 107.5t90 92.5q-33 35 -61.5 84t-59.5 120q-8 -4 -12 -7h-3q-6 23 -14 42q99 51 169 51q43 0 80.5 -16t59.5 -41.5t22 -53.5
q0 -81 -143 -185q51 -36 120 -36h52q10 0 10 -9zM98 281q33 -71 63.5 -119t64.5 -79q66 49 97 85t53 87q-67 67 -149 67q-58 0 -129 -41z" />
    <glyph glyph-name="uniFECB" unicode="&#x639;" horiz-adv-x="410" arabic-form="initial" 
d="M380 67q-5 -19 -9 -41q-81 -17 -178.5 -26.5t-193.5 -9.5q-9 0 -9 9v23q0 8 9 8q93 0 170 6q-59 17 -93 51.5t-34 98.5q0 38 23 78.5t57.5 68t67.5 27.5l28 -16l89 -49l-4 -8q-34 18 -56.5 25.5t-42.5 7.5q-29 0 -66.5 -23t-69.5 -64q0 -63 31.5 -105.5t81.5 -62
t105 -16.5q59 10 92 22z" />
    <glyph glyph-name="uniFECC" unicode="&#x639;" horiz-adv-x="383" arabic-form="medial" 
d="M393 21v-21q0 -10 -10 -10q-60 0 -104 14.5t-79 44.5q-96 -59 -201 -59q-9 0 -9 10v21q0 4 2.5 6.5t6.5 2.5q99 0 177 42q-32 34 -59 81.5t-63 123.5q-2 -1 -14 -8h-3q-6 23 -14 42q99 51 169 51q43 0 80.5 -16t59.5 -41.5t22 -53.5q0 -41 -37.5 -94.5t-98.5 -95.5
q47 -31 113 -31h52q10 0 10 -9zM61 282q35 -75 65.5 -123.5t64.5 -77.5q98 57 147 174q-67 67 -149 67q-56 0 -128 -40z" />
    <glyph glyph-name="uniFECE" unicode="&#x63a;" horiz-adv-x="422" arabic-form="final" 
d="M431 21v-21q0 -10 -10 -10q-114 0 -190 63q-67 -48 -94.5 -96.5t-27.5 -119.5q0 -61 34 -121l-7 -4q-19 31 -30 72.5t-11 87.5q0 62 26 107.5t90 92.5q-33 35 -61.5 84t-59.5 120q-8 -4 -12 -7h-3q-6 23 -14 42q99 51 169 51q43 0 80.5 -16t59.5 -41.5t22 -53.5
q0 -81 -143 -185q51 -36 120 -36h52q10 0 10 -9zM98 281q33 -71 63.5 -119t64.5 -79q66 49 97 85t53 87q-67 67 -149 67q-58 0 -129 -41zM257.5 562.5q9.5 -7.5 9.5 -16.5q0 -8 -27 -49q-28 20 -55 36l18 30q11 19 13 22l3 1q29 -16 38.5 -23.5z" />
    <glyph glyph-name="uniFECF" unicode="&#x63a;" horiz-adv-x="410" arabic-form="initial" 
d="M380 67q-5 -19 -9 -41q-81 -17 -178.5 -26.5t-193.5 -9.5q-9 0 -9 9v23q0 8 9 8q93 0 170 6q-59 17 -93 51.5t-34 98.5q0 38 23 78.5t57.5 68t67.5 27.5l28 -16l89 -49l-4 -8q-34 18 -56.5 25.5t-42.5 7.5q-29 0 -66.5 -23t-69.5 -64q0 -63 31.5 -105.5t81.5 -62
t105 -16.5q59 10 92 22zM200.5 571.5q9.5 -7.5 9.5 -16.5q0 -8 -27 -49q-28 20 -55 36l18 30q11 19 13 22l3 1q29 -16 38.5 -23.5z" />
    <glyph glyph-name="uniFED0" unicode="&#x63a;" horiz-adv-x="383" arabic-form="medial" 
d="M393 21v-21q0 -10 -10 -10q-60 0 -104 14.5t-79 44.5q-96 -59 -201 -59q-9 0 -9 10v21q0 4 2.5 6.5t6.5 2.5q99 0 177 42q-32 34 -59 81.5t-63 123.5q-2 -1 -14 -8h-3q-6 23 -14 42q99 51 169 51q43 0 80.5 -16t59.5 -41.5t22 -53.5q0 -41 -37.5 -94.5t-98.5 -95.5
q47 -31 113 -31h52q10 0 10 -9zM61 282q35 -75 65.5 -123.5t64.5 -77.5q98 57 147 174q-67 67 -149 67q-56 0 -128 -40zM219.5 559.5q9.5 -7.5 9.5 -16.5q0 -8 -27 -49q-28 20 -55 36l18 30q11 19 13 22l3 1q29 -16 38.5 -23.5z" />
    <glyph glyph-name="uniFED2" unicode="&#x641;" horiz-adv-x="712" arabic-form="final" 
d="M722 22v-23q0 -9 -9 -9q-121 0 -193 24q-101 -24 -225 -24q-115 0 -170 40.5t-55 124.5q0 48 17 136l9 -2q-11 -55 -11 -97q0 -162 232 -162q71 0 149 13q-44 33 -44 87q0 104 185 296l6 -7q-31 -29 -62 -66q46 -41 84 -96.5t38 -97.5q0 -34 -21 -67t-52 -55
q45 -7 113 -7q9 0 9 -8zM540 50q34 11 59 31t55 55q-24 59 -52 100.5t-76 85.5q-38 -48 -62 -91.5t-24 -68.5q0 -81 100 -112zM562.5 579.5q9.5 -7.5 9.5 -16.5q0 -8 -27 -49q-28 20 -55 36l18 30q11 19 13 22l3 1q29 -16 38.5 -23.5z" />
    <glyph glyph-name="uniFED3" unicode="&#x641;" horiz-adv-x="343" arabic-form="initial" 
d="M251.5 283q36.5 -90 36.5 -181q0 -8 -9 -29.5t-17 -34.5q-47 -25 -109.5 -36.5t-153.5 -11.5q-9 0 -9 9v23q0 8 9 8q97 0 152.5 8.5t108.5 31.5q-2 56 -10 102q-59 -54 -122 -54q-48 0 -74.5 25t-26.5 69q0 59 33 125.5t93 156.5l21 33l7 -5q-23 -32 -54 -82
q88 -67 124.5 -157zM189 166q25 8 57 26q-14 58 -47 109.5t-93 103.5q-60 -108 -60 -157q0 -42 25 -66t70 -24q23 0 48 8zM148.5 649.5q9.5 -7.5 9.5 -16.5q0 -8 -27 -49q-28 20 -55 36l18 30q11 19 13 22l3 1q29 -16 38.5 -23.5z" />
    <glyph glyph-name="uniFED4" unicode="&#x641;" horiz-adv-x="339" arabic-form="medial" 
d="M349 22v-23q0 -9 -9 -9q-112 0 -180 20q-64 -20 -160 -20q-10 0 -10 10v21q0 4 3 6.5t7 2.5q69 0 104 5q-55 35 -55 95q0 104 185 296l6 -7q-31 -29 -62 -66q48 -43 85 -97t37 -97q0 -34 -21 -67t-52 -55q45 -7 113 -7q9 0 9 -8zM93 92q26 -29 83 -45q29 13 53 34t52 55
q-24 59 -52 100.5t-76 85.5q-38 -48 -62 -91.5t-24 -68.5q0 -41 26 -70zM183.5 579.5q9.5 -7.5 9.5 -16.5q0 -8 -27 -49q-28 20 -55 36l18 30q11 19 13 22l3 1q29 -16 38.5 -23.5z" />
    <glyph glyph-name="uniFED6" unicode="&#x642;" horiz-adv-x="553" arabic-form="final" 
d="M563 22v-23q0 -9 -8 -9h-53q-19 -59 -62.5 -109.5t-102.5 -80.5t-121 -30q-80 0 -120.5 38t-40.5 113q0 35 8.5 89.5t25.5 107.5l8 -3q-28 -100 -28 -154q0 -73 43 -112t118 -39q78 0 145 52.5t104 128.5l-53 5q-70 8 -115.5 36t-45.5 82q0 102 151 298l6 -5
q-25 -30 -55 -72q69 -49 108.5 -117.5t39.5 -148.5q0 -20 -3 -38q14 -1 43 -1q8 0 8 -8zM331.5 65.5q48.5 -27.5 163.5 -37.5v1q0 84 -38.5 154t-110.5 119q-28 -46 -45.5 -87.5t-17.5 -68.5q0 -53 48.5 -80.5zM345.5 522.5q9.5 -7.5 9.5 -16.5q0 -8 -27 -49q-28 20 -55 36
l18 30q11 19 13 22l3 1q29 -16 38.5 -23.5zM471.5 522.5q9.5 -7.5 9.5 -16.5q0 -8 -27 -49q-28 20 -55 36l18 30q11 19 13 22l3 1q29 -16 38.5 -23.5z" />
    <glyph glyph-name="uniFED7" unicode="&#x642;" horiz-adv-x="343" arabic-form="initial" 
d="M251.5 283q36.5 -90 36.5 -181q0 -8 -9 -29.5t-17 -34.5q-47 -25 -109.5 -36.5t-153.5 -11.5q-9 0 -9 9v23q0 8 9 8q97 0 152.5 8.5t108.5 31.5q-2 56 -10 102q-59 -54 -122 -54q-48 0 -74.5 25t-26.5 69q0 59 33 125.5t93 156.5l21 33l7 -5q-23 -32 -54 -82
q88 -67 124.5 -157zM189 166q25 8 57 26q-14 58 -47 109.5t-93 103.5q-60 -108 -60 -157q0 -42 25 -66t70 -24q23 0 48 8zM111.5 649.5q9.5 -7.5 9.5 -16.5q0 -8 -27 -49q-28 20 -55 36l18 30q11 19 13 22l3 1q29 -16 38.5 -23.5zM237.5 649.5q9.5 -7.5 9.5 -16.5
q0 -8 -27 -49q-28 20 -55 36l18 30q11 19 13 22l3 1q29 -16 38.5 -23.5z" />
    <glyph glyph-name="uniFED8" unicode="&#x642;" horiz-adv-x="339" arabic-form="medial" 
d="M349 22v-23q0 -9 -9 -9q-112 0 -180 20q-64 -20 -160 -20q-10 0 -10 10v21q0 4 3 6.5t7 2.5q69 0 104 5q-55 35 -55 95q0 104 185 296l6 -7q-31 -29 -62 -66q48 -43 85 -97t37 -97q0 -34 -21 -67t-52 -55q45 -7 113 -7q9 0 9 -8zM93 92q26 -29 83 -45q29 13 53 34t52 55
q-24 59 -52 100.5t-76 85.5q-38 -48 -62 -91.5t-24 -68.5q0 -41 26 -70zM134.5 584.5q9.5 -7.5 9.5 -16.5q0 -8 -27 -49q-28 20 -55 36l18 30q11 19 13 22l3 1q29 -16 38.5 -23.5zM260.5 584.5q9.5 -7.5 9.5 -16.5q0 -8 -27 -49q-28 20 -55 36l18 30q11 19 13 22l3 1
q29 -16 38.5 -23.5z" />
    <glyph glyph-name="uniFEDA" unicode="&#x643;" horiz-adv-x="684" arabic-form="final" 
d="M704 22v-23q0 -9 -8 -9q-32 0 -59.5 5.5t-41.5 14.5q-4 3 -8.5 11t-9.5 17q-69 -26 -134.5 -37t-147.5 -11q-112 0 -168.5 41t-56.5 124q0 40 14 116l9 -2q-8 -43 -8 -79q0 -86 59.5 -123t172.5 -37q70 0 124 8.5t129 28.5l-9 232q-10 252 -17 379q20 6 48 24h3v-651
q16 -10 43.5 -15.5t57.5 -5.5q8 0 8 -8zM249 231q32 22 64 36q-22 7 -37 22t-15 29q0 16 15 37.5t37.5 37t42.5 15.5q39 0 39 -44q0 -24 -12 -81l33 8v-4q-6 -11 -18 -39l-22 -4l-8 -39l-9 1l7 36q-63 -11 -113 -33zM295 285q16 -10 34 -10t45 6q10 55 10 68q0 9 -5 13.5
t-14 4.5q-22 0 -46.5 -14.5t-47.5 -42.5q8 -15 24 -25z" />
    <glyph glyph-name="uniFEDB" unicode="&#x643;" horiz-adv-x="463" arabic-form="initial" 
d="M433 585q0 -32 -5 -85l-8 1q1 15 1 44q0 38 -11 55.5t-34 17.5q-46 0 -154.5 -58.5t-181.5 -119.5q55 -18 115.5 -51.5t103.5 -72.5q66 -59 108.5 -121.5t42.5 -92.5q0 -7 -6.5 -28t-9.5 -22q-177 -62 -394 -62q-9 0 -9 9v23q0 8 9 8q231 0 390 52q-29 64 -85 130
t-127 118.5t-143 79.5l-12 34q3 10 7 20.5t7 14.5q74 61 180.5 122.5t147.5 61.5q68 0 68 -78z" />
    <glyph glyph-name="uniFEDC" unicode="&#x643;" horiz-adv-x="425" arabic-form="medial" 
d="M435 22v-23q0 -9 -8 -9q-62 0 -107 12.5t-84 44t-78 88.5q-12 16 -20 32q16 -54 17 -144l-2 -3q-45 -17 -78 -23.5t-76 -6.5q-9 0 -9 9v23q0 8 9 8q42 0 74.5 4t71.5 15q-3 47 -9.5 87t-22.5 74q-42 77 -69.5 156.5t-27.5 115.5q1 7 6 21t7 15q86 62 166 103.5t131 41.5
q36 0 55.5 -20.5t19.5 -57.5q0 -21 -4 -85l-9 1l2 45q0 36 -15.5 54.5t-44.5 18.5q-49 0 -130 -37t-170 -100q46 -129 98.5 -226t89.5 -136q38 -40 93.5 -65t115.5 -25q8 0 8 -8z" />
    <glyph glyph-name="uniFEDE" unicode="&#x644;" horiz-adv-x="557" arabic-form="final" 
d="M567 22v-23q0 -9 -9 -9q-23 0 -49.5 5.5t-48.5 13.5v-35q0 -52 -39.5 -99t-98 -76t-112.5 -29q-74 0 -114.5 39.5t-40.5 111.5q0 35 8.5 89.5t25.5 107.5l8 -3q-28 -100 -28 -154q0 -73 39 -111.5t112 -38.5q56 0 118 35t101 92l-4 113q-2 55 -9.5 245.5t-17.5 359.5
q20 6 48 24h3l1 -640q37 -10 98 -10q9 0 9 -8z" />
    <glyph glyph-name="uniFEDF" unicode="&#x644;" horiz-adv-x="203" arabic-form="initial" 
d="M133 93q0 -5 -7 -32t-11 -39q-60 -32 -116 -32q-9 0 -9 9v23q0 8 9 8q67 0 108 19q-10 333 -25 607q20 6 48 24h3v-587z" />
    <glyph glyph-name="uniFEE0" unicode="&#x644;" horiz-adv-x="208" arabic-form="medial" 
d="M218 22v-23q0 -9 -8 -9q-32 0 -59.5 5.5t-41.5 14.5l-6 8q-62 -28 -104 -28q-9 0 -9 9v23q0 8 9 8q24 0 44 4t43 15q-1 2 -1 5q-5 94 -7.5 164.5t-4.5 117.5q-3 61 -6 146t-9 196q20 6 48 24h3v-651q16 -10 43.5 -15.5t57.5 -5.5q8 0 8 -8z" />
    <glyph glyph-name="uniFEE2" unicode="&#x645;" horiz-adv-x="497" arabic-form="final" 
d="M504 27q3 -3 3 -7v-18q0 -12 -11 -12q-44 0 -71 29l-14 -29q-75 0 -134.5 12t-93.5 33.5t-34 48.5q0 20 17 56t44 71.5t56 55.5q-42 -21 -92.5 -62.5t-80.5 -72.5q9 -115 20.5 -215.5t32.5 -226.5q-23 -15 -42 -31h-3q-7 109 -19 243q-12 141 -12 167q0 11 7.5 35
t11.5 34q5 11 48 49.5t93 69t86 29.5q33 0 49.5 -30t34.5 -92q12 -44 22.5 -70.5t28 -45t45.5 -18.5q5 0 8 -3zM276.5 50.5q71.5 -18.5 138.5 -20.5q-18 25 -28.5 58.5t-20.5 82.5q-12 55 -22 80t-30 26q-21 0 -53.5 -26.5t-61 -69t-40.5 -86.5q46 -26 117.5 -44.5z" />
    <glyph glyph-name="uniFEE3" unicode="&#x645;" horiz-adv-x="376" arabic-form="initial" 
d="M297 -10q-79 0 -135 9t-107 32q-10 -20 -23 -30.5t-33 -10.5q-9 0 -9 9v23q0 8 9 8q27 0 46.5 26t45.5 98q35 95 63 168q6 18 10 27l8 -3l-23 -62q10 3 22 3q45 0 80.5 -34.5t55 -87.5t19.5 -106q0 -14 -29 -69zM70 70q38 -18 104.5 -28.5t124.5 -11.5q-9 98 -46.5 157.5
t-94.5 59.5q-15 0 -24 -4l-60 -161q-2 -4 -4 -12z" />
    <glyph glyph-name="uniFEE4" unicode="&#x645;" horiz-adv-x="388" arabic-form="medial" 
d="M395 27q3 -3 3 -7v-18q0 -12 -11 -12q-44 0 -71 29l-14 -29q-62 0 -115 9t-89 24q-33 -18 -55 -25.5t-44 -7.5q-9 0 -9 9v23q0 8 9 8q36 0 75 6q-34 22 -34 48t27 75.5t66 88t74 38.5q33 0 49.5 -30t34.5 -92q12 -44 22.5 -70.5t28 -45t45.5 -18.5q5 0 8 -3zM167.5 50.5
q71.5 -18.5 138.5 -20.5q-18 25 -28.5 58.5t-20.5 82.5q-12 55 -22 80t-30 26q-21 0 -53.5 -26.5t-61 -69t-40.5 -86.5q46 -26 117.5 -44.5z" />
    <glyph glyph-name="uniFEE6" unicode="&#x646;" horiz-adv-x="534" arabic-form="final" 
d="M236 278q-28 20 -55 36l18 30q11 19 13 22l3 1q29 -16 38.5 -23.5t9.5 -16.5q0 -8 -27 -49zM544 22v-23q0 -9 -9 -9q-43 0 -92 17q2 -26 2 -33q0 -52 -36 -99.5t-91 -76t-108 -28.5q-74 0 -114.5 39.5t-40.5 111.5q0 35 8.5 89.5t25.5 107.5l8 -3q-28 -100 -28 -154
q0 -72 37 -111t106 -39q60 0 116 33.5t96 93.5q-6 62 -21 118t-42 130q21 19 35 42h4q28 -101 40 -189q40 -9 95 -9q9 0 9 -8z" />
    <glyph glyph-name="uniFEE7" unicode="&#x646;" horiz-adv-x="251" arabic-form="initial" 
d="M181.5 214.5q14.5 -75.5 14.5 -112.5q0 -7 -5 -32.5t-9 -36.5q-39 -20 -86 -31.5t-97 -11.5q-9 0 -9 9v23q0 8 9 8q52 0 97.5 8t76.5 23q-11 121 -69 262q20 15 37 36h4q22 -69 36.5 -144.5zM128.5 546.5q9.5 -7.5 9.5 -16.5q0 -8 -27 -49q-28 20 -55 36l18 30
q11 19 13 22l3 1q29 -16 38.5 -23.5z" />
    <glyph glyph-name="uniFEE8" unicode="&#x646;" horiz-adv-x="236" arabic-form="medial" 
d="M246 22v-23q0 -9 -8 -9q-76 0 -136 24l-5 -14q-51 -10 -98 -10q-9 0 -9 9v23q0 8 9 8q55 0 101 5l16 44q2 6 2 17q0 31 -9 92.5t-12 81.5q25 17 44 42h3l-4 -182q0 -9 -27 -86q54 -14 125 -14q8 0 8 -8zM131.5 491.5q9.5 -7.5 9.5 -16.5q0 -8 -27 -49q-28 20 -55 36
l18 30q11 19 13 22l3 1q29 -16 38.5 -23.5z" />
    <glyph glyph-name="uniFEE9" unicode="&#x647;" horiz-adv-x="577" arabic-form="isolated" 
d="M513.5 17q-13.5 -33 -18.5 -44q-133 14 -232 58q-29 -20 -64 -30.5t-71 -10.5q-33 0 -75 7q-5 22 -18 47l3 3q24 -9 43.5 -13t44.5 -4q55 0 97 21q-48 27 -74.5 59t-26.5 66q0 21 14.5 54t38.5 65t51 49q53 -28 89 -76.5t36 -93.5q0 -33 -14.5 -63t-40.5 -55
q73 -28 200 -43l1 22q0 120 -71 213.5t-174 143.5q7 11 11.5 21t7.5 23l2 2q134 -74 194 -168t60 -208q0 -12 -13.5 -45zM257 72q43 32 78 92q-23 51 -54 86.5t-77 62.5q-52 -51 -75 -133q48 -69 128 -108z" />
    <glyph glyph-name="uniFEEA" unicode="&#x647;" horiz-adv-x="376" arabic-form="final" 
d="M386 22v-23q0 -9 -8 -9q-37 0 -58.5 14.5t-31.5 46.5l-18 -32q-43 2 -92.5 15t-83.5 34t-34 46q0 10 2.5 19t11.5 23q50 84 171 173q-2 18 -4 28q25 9 47 23h3l20 -339q11 -6 25.5 -8.5t41.5 -2.5q8 0 8 -8zM166 79.5q60 -20.5 120 -21.5l-3 16q-5 24 -12 83
q-10 73 -24 163q-59 -45 -104 -90t-72 -99q35 -31 95 -51.5z" />
    <glyph glyph-name="uniFEEB" unicode="&#x647;" horiz-adv-x="488" arabic-form="initial" 
d="M424.5 17q-13.5 -33 -18.5 -44q-137 14 -242 63q-70 -46 -165 -46q-9 0 -9 10v22q0 8 9 8q68 0 127 26q-44 26 -68.5 57t-24.5 63q0 21 14.5 54t38.5 65t51 49q53 -28 89 -76.5t36 -93.5q0 -28 -17.5 -58t-48.5 -56q82 -32 211 -47l1 22q0 120 -71 213.5t-174 143.5
q7 11 11.5 21t7.5 23l2 2q134 -74 194 -168t60 -208q0 -12 -13.5 -45zM162 75q53 34 84 89q-23 51 -54 86.5t-77 62.5q-52 -51 -75 -133q44 -65 122 -105z" />
    <glyph glyph-name="uniFEEC" unicode="&#x647;" horiz-adv-x="333" arabic-form="medial" 
d="M343 20v-18q0 -12 -11 -12q-82 0 -123 -4q43 -15 76.5 -49.5t42.5 -74.5v-4q-4 -20 -5 -43q-15 -13 -39 -20t-52 -7q-88 0 -136.5 52.5t-48.5 147.5v4q-30 -2 -48 -2q-9 0 -9 9v23q0 8 9 8q34 0 50 1q8 115 55.5 213.5t131.5 216.5l7 -5q-2 -4 -19 -28l-17 -26
q42 -59 67 -127t25 -104q0 -51 -28.5 -89t-82.5 -61q55 9 144 9q11 0 11 -10zM98.5 201.5q-33.5 -81.5 -36.5 -169.5q61 5 108 22t97 51q2 65 -23 137t-60 125q-52 -84 -85.5 -165.5zM291.5 -85q-22.5 29 -55 48.5t-66.5 19.5q0 10 -5 30q-45 -15 -102 -20q7 -79 54 -122
t126 -43q28 0 48 8.5t29 24.5q-6 25 -28.5 54z" />
    <glyph glyph-name="uniFEEE" unicode="&#x648;" horiz-adv-x="348" arabic-form="final" 
d="M358 22v-23q0 -9 -8 -9h-48q-19 -84 -72.5 -143t-119.5 -77l-155 88l4 8q52 -29 78.5 -40t57.5 -11q27 0 63.5 20t70 60t52.5 96q-38 2 -60 5q-70 8 -115.5 36t-45.5 82q0 102 151 298l6 -5q-24 -26 -54 -72q68 -49 108 -118t40 -148q0 -14 -2 -38q13 -1 41 -1q8 0 8 -8z
M126.5 65.5q48.5 -27.5 164.5 -37.5v1q0 83 -38.5 153.5t-111.5 119.5q-28 -46 -45.5 -87.5t-17.5 -68.5q0 -53 48.5 -80.5z" />
    <glyph glyph-name="uniFEF0" unicode="&#x649;" horiz-adv-x="531" arabic-form="final" 
d="M541 19v-18q0 -5 -3 -8t-8 -3q-67 0 -122 25l98 -71q2 -3 4.5 -9t1.5 -7q-38 -72 -121.5 -115t-180.5 -43q-74 0 -114.5 39.5t-40.5 111.5q0 35 8.5 89.5t25.5 107.5l8 -3q-28 -100 -28 -154q0 -73 39 -111.5t112 -38.5q58 0 115 18.5t100.5 48t62.5 61.5l-128 93l8 28
l2 2q38 -18 72 -25t78 -7q11 0 11 -11z" />
    <glyph glyph-name="uniFEF2" unicode="&#x64a;" horiz-adv-x="531" arabic-form="final" 
d="M541 19v-18q0 -5 -3 -8t-8 -3q-67 0 -122 25l98 -71q2 -3 4.5 -9t1.5 -7q-38 -72 -121.5 -115t-180.5 -43q-74 0 -114.5 39.5t-40.5 111.5q0 35 8.5 89.5t25.5 107.5l8 -3q-28 -100 -28 -154q0 -73 39 -111.5t112 -38.5q58 0 115 18.5t100.5 48t62.5 61.5l-128 93l8 28
l2 2q38 -18 72 -25t78 -7q11 0 11 -11zM278.5 -323.5q9.5 -7.5 9.5 -16.5t-27 -49q-28 20 -55 36l18 30q11 19 13 22l3 1q29 -16 38.5 -23.5zM404.5 -323.5q9.5 -7.5 9.5 -16.5t-27 -49q-28 20 -55 36l18 30q11 19 13 22l3 1q29 -16 38.5 -23.5z" />
    <glyph glyph-name="uniFEF3" unicode="&#x64a;" horiz-adv-x="343" arabic-form="initial" 
d="M115.5 -121.5q9.5 -7.5 9.5 -16.5t-27 -49q-28 20 -55 36l18 30q11 19 13 22l3 1q29 -16 38.5 -23.5zM241.5 -121.5q9.5 -7.5 9.5 -16.5t-27 -49q-28 20 -55 36l18 30q11 19 13 22l3 1q29 -16 38.5 -23.5zM230.5 214.5q14.5 -75.5 14.5 -112.5q0 -7 -5 -32.5t-9 -36.5
q-49 -19 -112.5 -31t-119.5 -12q-9 0 -9 9v23q0 8 9 8q57 0 121 9t102 22q-11 121 -69 262q20 15 37 36h4q22 -69 36.5 -144.5z" />
    <glyph glyph-name="uniFEF4" unicode="&#x64a;" horiz-adv-x="268" arabic-form="medial" 
d="M278 22v-23q0 -9 -8 -9q-84 0 -147 24l-5 -14q-51 -10 -119 -10q-9 0 -9 9v23q0 8 9 8q76 0 122 5l16 44q2 6 2 17q0 31 -9 92.5t-12 81.5q25 17 44 42h3l-4 -182q0 -9 -27 -86q53 -14 136 -14q8 0 8 -8zM99.5 -121.5q9.5 -7.5 9.5 -16.5t-27 -49q-28 20 -55 36l18 30
q11 19 13 22l3 1q29 -16 38.5 -23.5zM225.5 -121.5q9.5 -7.5 9.5 -16.5t-27 -49q-28 20 -55 36l18 30q11 19 13 22l3 1q29 -16 38.5 -23.5z" />
    <glyph glyph-name=".notdef" horiz-adv-x="200" 
 />
    <glyph glyph-name=".null" 
 />
    <glyph glyph-name="nonmarkingreturn" horiz-adv-x="333" 
 />
    <glyph glyph-name="space" unicode=" " horiz-adv-x="200" 
 />
    <glyph glyph-name="exclam" unicode="!" horiz-adv-x="246" 
d="M135 326q-2 -29 -3 -78q0 -13 -2 -77h-13q-2 64 -2 77q-1 49 -3 78t-8 81q-5 41 -7 193q18 5 27 5t26 -5q-2 -152 -7 -193q-6 -52 -8 -81zM153.5 63.5q12.5 -12.5 12.5 -30.5t-12.5 -30.5t-30.5 -12.5t-30.5 12.5t-12.5 30.5t12.5 30.5t30.5 12.5t30.5 -12.5z" />
    <glyph glyph-name="quotedbl" unicode="&#x22;" horiz-adv-x="256" 
d="M51 519q-3 21 -3 44q0 18 5.5 33.5t21.5 15.5t21.5 -15.5t5.5 -33.5q0 -23 -3 -44l-18 -153h-10zM157 519q-3 21 -3 44q0 18 5.5 33.5t21.5 15.5t21.5 -15.5t5.5 -33.5q0 -23 -3 -44l-18 -153h-10z" />
    <glyph glyph-name="numbersign" unicode="#" horiz-adv-x="533" 
d="M409 398l-30 -212h113l-2 -15h-113l-24 -171h-16l24 171h-208l-24 -171h-16l24 171h-115l2 15h115l30 212h-117l2 15h117l23 162h16l-23 -162h208l23 162h16l-23 -162h110l-2 -15h-110zM393 398h-208l-30 -212h208z" />
    <glyph glyph-name="dollar" unicode="$" horiz-adv-x="458" 
d="M365.5 42.5q-53.5 -43.5 -127.5 -51.5v-63h-16v62h-10q-68 0 -140 28l-31 151l9 2l27 -73q17 -49 50 -72.5t86 -23.5h9v276l-51 20q-115 44 -115 148q0 37 21 68.5t58.5 50.5t86.5 19v67h16v-67q65 -3 126 -28l31 -151l-9 -2l-27 73q-16 45 -45.5 68.5t-75.5 26.5v-240
l24 -9q82 -32 119.5 -67.5t37.5 -99.5q0 -69 -53.5 -112.5zM222 338v234q-59 0 -92.5 -28t-33.5 -79q0 -45 21 -69.5t71 -44.5zM337 48q38 38 38 86q0 45 -27.5 75.5t-104.5 60.5l-5 2v-269q61 7 99 45z" />
    <glyph glyph-name="percent" unicode="%" horiz-adv-x="806" 
d="M582 605l-331 -613l-15 8l330 612zM264.5 565q34.5 -20 55 -58.5t20.5 -91.5q0 -54 -20 -93.5t-54.5 -60.5t-75.5 -21t-75 20.5t-54.5 60t-20.5 92.5q0 54 20.5 92.5t54.5 59t75 20.5q40 0 74.5 -20zM264.5 287q26.5 36 26.5 126t-26.5 126t-74.5 36t-74.5 -36
t-26.5 -126t26.5 -126t74.5 -36t74.5 36zM685.5 318q34.5 -20 55 -58.5t20.5 -91.5q0 -54 -20 -93.5t-54.5 -60.5t-75.5 -21t-75 20.5t-54.5 60t-20.5 92.5q0 54 20.5 92.5t54.5 59t75 20.5q40 0 74.5 -20zM685.5 40q26.5 36 26.5 126t-26.5 126t-74.5 36t-74.5 -36
t-26.5 -126t26.5 -126t74.5 -36t74.5 36z" />
    <glyph glyph-name="ampersand" unicode="&#x26;" horiz-adv-x="625" 
d="M618 8v-8h-120l-79 90q-43 -56 -87 -78t-108 -22q-46 0 -90 22t-71.5 61t-27.5 87q0 63 43 106t126 70q-70 84 -70 135q0 53 42.5 83t106.5 30q34 0 64.5 -14t49 -39t18.5 -55q0 -46 -35.5 -79t-124.5 -51l7 -8l185 -205q19 33 35 97t16 122q0 14 -1 23h50
q-10 -63 -35 -126.5t-62 -118.5l108 -119zM205 550q-26 -23 -26 -66q0 -32 18.5 -62.5t54.5 -72.5q124 37 124 126q0 42 -26 70t-71 28q-48 0 -74 -23zM416 93l-192 219l-17 20q-116 -46 -116 -156q0 -45 23 -81t61.5 -56t83.5 -20q91 0 157 74z" />
    <glyph glyph-name="quotesingle" unicode="'" horiz-adv-x="150" 
d="M51 519q-3 21 -3 44q0 18 5.5 33.5t21.5 15.5t21.5 -15.5t5.5 -33.5q0 -23 -3 -44l-18 -153h-10z" />
    <glyph glyph-name="parenleft" unicode="(" horiz-adv-x="218" 
d="M178 641q-34 -51 -58.5 -100.5t-43.5 -128.5t-19 -182t19 -182t43.5 -128.5t58.5 -100.5l-13 -8q-36 54 -61.5 104.5t-44.5 130t-19 184.5t19 184.5t44.5 130t61.5 104.5z" />
    <glyph glyph-name="parenright" unicode=")" horiz-adv-x="218" 
d="M40 -181q34 51 58.5 100.5t43.5 128.5t19 182t-19 182t-43.5 128.5t-58.5 100.5l13 8q36 -54 61.5 -104.5t44.5 -130t19 -184.5t-19 -184.5t-44.5 -130t-61.5 -104.5z" />
    <glyph glyph-name="asterisk" unicode="*" horiz-adv-x="419" 
d="M185 594.5q10 10.5 24 10.5q16 0 26 -10t10 -26q0 -13 -5.5 -33t-11.5 -40q-16 -48 -16 -64h-5q0 13 -6.5 35.5t-8.5 29.5q-17 49 -17 72q0 15 10 25.5zM50 496q0 13 5 20q5 8 12.5 12.5t16.5 4.5q10 0 19 -6q14 -8 32.5 -27.5t21.5 -22.5t20 -21t29 -25l-2 -4
q-15 7 -61 17q-21 4 -42.5 10t-33.5 13q-17 9 -17 29zM242 456q17 18 20 21t21.5 22.5t32.5 27.5q9 6 19 6q9 0 16.5 -4.5t12.5 -12.5q5 -7 5 -20q0 -20 -17 -29q-12 -7 -33 -13t-42 -10q-46 -10 -61 -17l-3 4q12 7 29 25zM50 358q0 20 17 28q16 9 44 16t34 8q5 1 26 5.5
t33 10.5l2 -4q-16 -9 -50 -47q-6 -6 -23 -23.5t-30 -25.5q-8 -5 -18 -5q-21 0 -30 17q-5 8 -5 20zM216 426q14 -8 59 -17q21 -4 42.5 -10t34.5 -13q17 -8 17 -28q0 -12 -5 -20q-9 -17 -30 -17q-11 0 -18 5q-13 8 -30 25.5t-23 23.5q-34 38 -50 47zM192 357q2 7 8.5 29.5
t6.5 35.5h5q0 -11 5 -29t11 -36q6 -19 11.5 -39.5t5.5 -32.5q0 -16 -10.5 -26t-25.5 -10q-14 0 -24 10t-10 26q0 23 17 72z" />
    <glyph glyph-name="plus" unicode="+" horiz-adv-x="516" 
d="M266 -10h-16v205h-215v15h215v205h16v-205h215v-15h-215v-205z" />
    <glyph glyph-name="comma" unicode="," horiz-adv-x="204" 
d="M66 66q13 13 32 13q26 0 39.5 -17.5t13.5 -44.5q0 -39 -22 -81.5t-66 -74.5l-7 6q35 30 51.5 61t16.5 59q0 10 -2 14q-13 -11 -27 -11q-18 0 -30 12.5t-12 31.5t13 32z" />
    <glyph glyph-name="hyphen" unicode="-" horiz-adv-x="252" 
d="M226 196v-43h-200v43h200z" />
    <glyph glyph-name="period" unicode="." horiz-adv-x="192" 
d="M126.5 63.5q12.5 -12.5 12.5 -30.5t-12.5 -30.5t-30.5 -12.5t-30.5 12.5t-12.5 30.5t12.5 30.5t30.5 12.5t30.5 -12.5z" />
    <glyph glyph-name="slash" unicode="/" horiz-adv-x="346" 
d="M346 605l-331 -613l-15 8l330 612z" />
    <glyph glyph-name="zero" unicode="0" horiz-adv-x="492" 
d="M138 26.5q-48 36.5 -76 104t-28 157.5t28 157t76 103t108 36q59 0 107.5 -36t76.5 -103t28 -157t-28 -157.5t-76.5 -104t-107.5 -36.5q-60 0 -108 36.5zM132.5 498q-39.5 -74 -39.5 -215q0 -136 40 -208.5t113 -72.5q74 0 113.5 74t39.5 212t-39.5 211t-113.5 73
t-113.5 -74z" />
    <glyph glyph-name="one" unicode="1" horiz-adv-x="263" 
d="M103.5 522.5q-32.5 -21.5 -93.5 -30.5v-8h102v-474l-72 -2v-8h185v8l-64 2v573h-7q-18 -39 -50.5 -60.5z" />
    <glyph glyph-name="two" unicode="2" horiz-adv-x="427" 
d="M128 144q95 100 136 165.5t41 123.5q0 57 -33.5 92t-92.5 35q-49 0 -86 -29.5t-55 -81.5l-9 3q20 64 67 98t107 34q48 0 83.5 -19t54 -50.5t18.5 -67.5q0 -57 -44 -116.5t-120 -136.5l-14 -15l-131 -135h311l18 89l7 -1l-17 -132h-369v11z" />
    <glyph glyph-name="three" unicode="3" horiz-adv-x="417" 
d="M289.5 275.5q-33.5 45.5 -97.5 45.5q-18 0 -32 -4t-25.5 -8.5t-16.5 -6.5l-3 10l60 26q53 22 81.5 46.5t28.5 70.5q0 49 -29 75t-76 26q-44 0 -76 -24.5t-59 -75.5l-8 5q31 63 76 93t97 30q59 0 95.5 -30.5t36.5 -79.5q0 -39 -26 -68.5t-79 -44.5v-2q64 -13 102 -57
t38 -99q0 -60 -35 -108.5t-90 -76.5t-110 -28q-57 0 -102 17l-30 150l9 2l26 -73q16 -43 41 -61t74 -18q45 0 82.5 20.5t59 57.5t21.5 85q0 60 -33.5 105.5z" />
    <glyph glyph-name="four" unicode="4" horiz-adv-x="448" 
d="M385 8v-8h-203v8l86 2v146h-268v5l268 413h49v-378h101v-40h-101v-146zM37 196h231v355z" />
    <glyph glyph-name="five" unicode="5" horiz-adv-x="402" 
d="M10 155l9 2l27 -74q15 -42 40.5 -59t76.5 -17q37 0 74 19t60.5 54t23.5 80q0 83 -66.5 130.5t-188.5 70.5l52 213h246l16 42l7 -1l-23 -85h-242l-30 -122q140 -30 206.5 -81t66.5 -134q0 -59 -34.5 -105.5t-87.5 -72t-104 -25.5q-23 0 -52 4t-46 10z" />
    <glyph glyph-name="six" unicode="6" horiz-adv-x="448" 
d="M330.5 317.5q35.5 -21.5 54.5 -57.5t19 -79q0 -49 -21 -92.5t-61.5 -71t-96.5 -27.5q-90 0 -140 63t-50 168q0 89 46.5 164t133 127.5t201.5 76.5l2 -8q-145 -34 -231 -122.5t-94 -207.5q32 44 71 66t82 22q49 0 84.5 -21.5zM320 45q33 44 33 106q0 63 -37 107.5
t-102 44.5t-121 -57q-1 -6 -1 -19q0 -95 29.5 -160.5t105.5 -65.5q60 0 93 44z" />
    <glyph glyph-name="seven" unicode="7" horiz-adv-x="396" 
d="M234.5 319q-64.5 -133 -64.5 -319h-63q4 154 75 294t184 236h-317l-32 -87h-7l35 131h361v-5q-107 -117 -171.5 -250z" />
    <glyph glyph-name="eight" unicode="8" horiz-adv-x="444" 
d="M366.5 228q32.5 -38 32.5 -86q0 -42 -23.5 -76.5t-65 -55t-93.5 -20.5q-49 0 -88 20.5t-61.5 56t-22.5 78.5q0 54 35 93t97 61q-55 32 -82.5 66.5t-27.5 78.5q0 36 20 68t57.5 51.5t87.5 19.5q41 0 75 -19t53 -50t19 -64q0 -47 -28.5 -80t-90.5 -58l14 -8
q60 -38 92.5 -76zM137 396.5q25 -28.5 70 -53.5l49 -28q43 26 65 63.5t22 80.5q0 52 -32 82t-82 30q-51 0 -84 -27t-33 -76q0 -43 25 -71.5zM316 31.5q36 29.5 36 88.5q0 78 -108 139l-61 36l-2 1q-39 -17 -65.5 -57t-26.5 -89q0 -64 35 -106t94 -42q62 0 98 29.5z" />
    <glyph glyph-name="nine" unicode="9" horiz-adv-x="435" 
d="M353.5 521.5q46.5 -62.5 46.5 -168.5q0 -91 -43.5 -167.5t-129 -129t-208.5 -71.5l-2 8q154 26 236 116t89 214q-32 -44 -71 -66t-82 -22q-49 0 -84.5 23t-54.5 61t-19 81q0 52 25 94t67.5 66t93.5 24q90 0 136.5 -62.5zM343 328v19q0 98 -26 162t-102 64q-41 0 -71 -21
t-46 -55.5t-16 -73.5q0 -63 37 -107.5t102 -44.5t122 57z" />
    <glyph glyph-name="colon" unicode=":" horiz-adv-x="192" 
d="M126.5 367.5q12.5 -12.5 12.5 -30.5t-12.5 -30.5t-30.5 -12.5t-30.5 12.5t-12.5 30.5t12.5 30.5t30.5 12.5t30.5 -12.5zM126.5 63.5q12.5 -12.5 12.5 -30.5t-12.5 -30.5t-30.5 -12.5t-30.5 12.5t-12.5 30.5t12.5 30.5t30.5 12.5t30.5 -12.5z" />
    <glyph glyph-name="semicolon" unicode=";" horiz-adv-x="204" 
d="M130.5 367.5q12.5 -12.5 12.5 -30.5t-12.5 -30.5t-30.5 -12.5t-30.5 12.5t-12.5 30.5t12.5 30.5t30.5 12.5t30.5 -12.5zM66 66q13 13 32 13q26 0 39.5 -17.5t13.5 -44.5q0 -39 -22 -81.5t-66 -74.5l-7 6q35 30 51.5 61t16.5 59q0 10 -2 14q-13 -11 -27 -11
q-18 0 -30 12.5t-12 31.5t13 32z" />
    <glyph glyph-name="less" unicode="&#x3c;" horiz-adv-x="587" 
d="M61 196l491 190v18l-517 -203v-10l517 -203v18z" />
    <glyph glyph-name="equal" unicode="=" horiz-adv-x="504" 
d="M40 285h426v-15h-426v15zM40 98h426v-15h-426v15z" />
    <glyph glyph-name="greater" unicode="&#x3e;" horiz-adv-x="558" 
d="M526 196l-491 190v18l517 -203v-10l-517 -203v18z" />
    <glyph glyph-name="question" unicode="?" horiz-adv-x="403" 
d="M142 310q0 25 16 38t48 19l55 11q56 11 77.5 29.5t21.5 54.5q0 37 -23.5 65.5t-60 44t-71.5 15.5q-33 0 -54.5 -11.5t-35.5 -43.5l-28 -63l-7 2l24 121q36 12 76 12q60 0 109 -21.5t76.5 -58.5t27.5 -83q0 -50 -30 -73.5t-98 -36.5l-31 -6q-36 -7 -47.5 -18.5
t-13.5 -38.5l-2 -97h-11l-17 125q-1 5 -1 14zM204.5 63.5q12.5 -12.5 12.5 -30.5t-12.5 -30.5t-30.5 -12.5t-30.5 12.5t-12.5 30.5t12.5 30.5t30.5 12.5t30.5 -12.5z" />
    <glyph glyph-name="at" unicode="@" horiz-adv-x="738" 
d="M231 556q-76 -43 -118 -115t-42 -154q0 -81 39 -145.5t109 -101.5t159 -37q134 0 232 78l7 -12q-97 -81 -243 -81q-86 0 -159 37.5t-116.5 105.5t-43.5 157t46.5 164t126 118.5t175.5 43.5q76 0 140 -32t102 -92.5t38 -142.5q0 -61 -21.5 -116t-62 -89t-93.5 -34
t-70.5 29t-19.5 73q-29 -46 -57 -69.5t-70 -23.5q-54 0 -83 38t-29 98q0 63 32.5 119.5t80.5 90t92 33.5q75 0 84 -88h1l23 75h49l-69 -253q-10 -37 -10 -57q0 -25 12 -37.5t39 -12.5q45 0 80.5 32t55.5 83.5t20 108.5q0 77 -35 134t-95.5 87.5t-133.5 30.5q-96 0 -172 -43z
M453 394q0 41 -16.5 65t-49.5 24q-44 0 -81 -40.5t-58 -98t-21 -104.5q0 -56 19.5 -83t53.5 -27q40 0 75 44.5t58 111.5q20 60 20 108z" />
    <glyph glyph-name="A" unicode="A" horiz-adv-x="535" 
d="M535 8v-8h-151v8l48 4l-76 218h-209l-77 -218l58 -4v-8h-128v8l54 4l199 562h39l196 -562zM340 275l-88 252l-89 -252h177z" />
    <glyph glyph-name="B" unicode="B" horiz-adv-x="519" 
d="M392.5 547q56.5 -27 56.5 -98q0 -39 -25 -70t-64.5 -49.5t-81.5 -23.5v-1q52 0 101.5 -18t81 -51.5t31.5 -75.5q0 -77 -60 -118.5t-165 -41.5h-233v8l58 4v550l-58 4v8h199q103 0 159.5 -27zM218 310q91 0 131.5 34t40.5 96q0 63 -39 92.5t-117 29.5h-88v-252h72z
M151.5 17.5q5.5 -5.5 24.5 -5.5h96q161 0 161 143q0 70 -44.5 107t-147.5 36h-95v-258q0 -17 5.5 -22.5z" />
    <glyph glyph-name="C" unicode="C" horiz-adv-x="590" 
d="M531 171h9l-31 -153q-33 -13 -79 -20.5t-90 -7.5q-82 0 -150.5 37.5t-109 105t-40.5 154.5q0 88 41 155.5t111 104.5t156 37q40 0 84 -7.5t77 -20.5l31 -153h-9l-27 74q-19 53 -58 74t-99 21q-114 0 -181 -73.5t-67 -211.5q0 -92 31 -156t85 -96.5t125 -32.5q65 0 105 21
t59 74z" />
    <glyph glyph-name="D" unicode="D" horiz-adv-x="604" 
d="M393.5 544q77.5 -30 124 -94t46.5 -161t-46 -162t-123.5 -96t-174.5 -31h-186v8l58 4v550l-58 4v8h187q95 0 172.5 -30zM433 83.5q72 71.5 72 205.5q0 133 -73 203t-210 70h-76v-550h78q137 0 209 71.5z" />
    <glyph glyph-name="E" unicode="E" horiz-adv-x="531" 
d="M492 159l9 -1l-24 -158h-443v8l58 4v550l-58 4v8h397l24 -157l-9 -2l-23 78q-10 32 -24 46t-41.5 18.5t-86.5 4.5h-125v-249h106q37 0 54.5 4t28 22t12.5 59h9v-182h-9q-2 41 -12.5 59t-28 22t-54.5 4h-106v-289h171q59 0 86.5 4.5t41.5 18.5t24 46z" />
    <glyph glyph-name="F" unicode="F" horiz-adv-x="475" 
d="M234 0h-200v8l58 4v550l-58 4v8h417l24 -157l-9 -2l-23 78q-10 32 -24 46t-41.5 18.5t-86.5 4.5h-145v-249h126q37 0 54.5 4t28 22t12.5 59h9v-182h-9q-2 41 -12.5 59t-28 22t-54.5 4h-126v-289l88 -4v-8z" />
    <glyph glyph-name="G" unicode="G" horiz-adv-x="618" 
d="M130 131q31 -64 85 -96.5t125 -32.5q37 0 70.5 7t55.5 20v242l-58 4v8h170v-8l-58 -4v-248q-87 -33 -180 -33q-82 0 -150.5 37.5t-109 105t-40.5 154.5q0 88 41 155.5t111 104.5t156 37q40 0 84 -7.5t77 -20.5l31 -153h-9l-27 74q-19 53 -57.5 74t-97.5 21
q-114 0 -182 -73.5t-68 -211.5q0 -92 31 -156z" />
    <glyph glyph-name="H" unicode="H" horiz-adv-x="633" 
d="M429 566v8h170v-8l-59 -4v-550l59 -4v-8h-170v8l57 4v288h-340v-288l58 -4v-8h-170v8l58 4v550l-58 4v8h170v-8l-58 -4v-248h340v248z" />
    <glyph glyph-name="I" unicode="I" horiz-adv-x="238" 
d="M204 0h-170v8l58 4v550l-58 4v8h170v-8l-58 -4v-550l58 -4v-8z" />
    <glyph glyph-name="J" unicode="J" horiz-adv-x="248" 
d="M0 -87q45 22 67 47t30 63t8 107v432l-58 4v8h171v-8l-59 -4v-432q0 -161 -156 -224z" />
    <glyph glyph-name="K" unicode="K" horiz-adv-x="555" 
d="M204 0h-170v8l58 4v550l-58 4v8h170v-8l-58 -4v-550l58 -4v-8zM532 566l-58 -4l-278 -244l310 -306l57 -4v-8h-192v8l58 4l-283 282l307 268l-57 4v8h136v-8z" />
    <glyph glyph-name="L" unicode="L" horiz-adv-x="483" 
d="M462 164l9 -2l-38 -162h-399v8l58 4v550l-58 4v8h171v-8l-59 -4v-550h137q57 0 82 4.5t37 18t26 46.5z" />
    <glyph glyph-name="M" unicode="M" horiz-adv-x="723" 
d="M632 562v-550l57 -4v-8h-169v8l58 4v535l-209 -510h-40l-222 508v-533l57 -4v-8h-130v8l58 4v550l-58 4v8h120l216 -495l203 495h116v-8z" />
    <glyph glyph-name="N" unicode="N" horiz-adv-x="592" 
d="M107 12l57 -4v-8h-130v8l58 4v550l-58 4v8h108l358 -520v508l-58 4v8h130v-8l-58 -4v-562h-44l-363 545v-533z" />
    <glyph glyph-name="O" unicode="O" horiz-adv-x="658" 
d="M578.5 132.5q-39.5 -67.5 -106 -105t-143.5 -37.5t-143.5 37.5t-106 105t-39.5 154.5t39.5 155t106 105t143.5 37t143.5 -37t106 -105t39.5 -155t-39.5 -154.5zM529 443q-30 64 -82 96.5t-118 32.5t-118 -32.5t-82 -96.5t-30 -156q0 -91 30 -155.5t82 -97t118 -32.5
t118 32.5t82 97t30 155.5q0 92 -30 156z" />
    <glyph glyph-name="P" unicode="P" horiz-adv-x="469" 
d="M220 8v-8h-186v8l58 4v550l-58 4v8h177q117 0 182.5 -38t65.5 -115q0 -78 -65.5 -116t-182.5 -38h-65v-255zM213 279q97 0 142 34t45 108q0 73 -45 107t-142 34h-67v-283h67z" />
    <glyph glyph-name="Q" unicode="Q" horiz-adv-x="658" 
d="M811 -51q-40 -43 -101.5 -66.5t-137.5 -23.5q-87 0 -163.5 36t-111.5 97q-71 8 -129.5 46.5t-93 103t-34.5 145.5q0 87 39.5 155t106 105t143.5 37t143.5 -37t106 -105t39.5 -155q0 -81 -34.5 -145t-93 -103t-128.5 -47q28 -52 91.5 -85t133.5 -33q75 0 126.5 23t91.5 59
zM129 131.5q30 -64.5 82 -97t118 -32.5t118 32.5t82 97t30 155.5q0 92 -30 156t-82 96.5t-118 32.5t-118 -32.5t-82 -96.5t-30 -156q0 -91 30 -155.5z" />
    <glyph glyph-name="R" unicode="R" horiz-adv-x="554" 
d="M570 8v-8h-111l-245 297h-1h-67v-285l74 -4v-8h-186v8l58 4v550l-58 4v8h179q116 0 180.5 -34t64.5 -104q0 -59 -48 -93t-132 -43l244 -288zM146 309h69q97 0 140.5 30.5t43.5 96.5t-43.5 96t-140.5 30h-69v-253z" />
    <glyph glyph-name="S" unicode="S" horiz-adv-x="458" 
d="M41 169l9 2l27 -73q17 -49 50 -72.5t86 -23.5q48 0 85 18.5t57 49t20 64.5q0 45 -27.5 75.5t-104.5 60.5l-72 28q-115 44 -115 148q0 37 21 68.5t59.5 50.5t87.5 19q72 0 140 -28l31 -151l-9 -2l-27 73q-17 49 -50 72.5t-86 23.5q-60 0 -93.5 -28t-33.5 -79
q0 -45 21 -69.5t71 -44.5l74 -29q82 -32 119.5 -67.5t37.5 -99.5q0 -51 -30 -88.5t-78 -57t-99 -19.5q-68 0 -140 28z" />
    <glyph glyph-name="T" unicode="T" horiz-adv-x="544" 
d="M533 413l-9 -2l-23 80q-9 32 -23.5 47t-42.5 20t-86 5h-50v-551l67 -4v-8h-189v8l68 4v551h-50q-58 0 -86 -5t-42.5 -20t-23.5 -47l-23 -80l-9 2l24 161h474z" />
    <glyph glyph-name="U" unicode="U" horiz-adv-x="569" 
d="M447.5 43q-53.5 -53 -157.5 -53q-108 0 -158.5 52t-50.5 175v345l-58 4v8h169v-8l-57 -4v-353q0 -106 37.5 -153t131.5 -47q86 0 134.5 46.5t48.5 154.5v352l-58 4v8h130v-8l-58 -4v-339q0 -127 -53.5 -180z" />
    <glyph glyph-name="V" unicode="V" horiz-adv-x="520" 
d="M392 566v8h128v-8l-54 -4l-190 -562h-39l-190 562l-47 4v8h151v-8l-48 -4l174 -514l173 514z" />
    <glyph glyph-name="W" unicode="W" horiz-adv-x="751" 
d="M751 574v-8l-54 -4l-170 -562h-39l-112 394l-120 -394h-39l-170 562l-47 4v8h151v-8l-48 -4l153 -509l112 368l-44 153h108v-8l-48 -4l143 -509l154 509l-58 4v8h128z" />
    <glyph glyph-name="X" unicode="X" horiz-adv-x="582" 
d="M577 8v-8h-158v8l48 4l-187 263l-193 -263l58 -4v-8h-130v8l54 4l202 276l-195 274l-47 4v8h157v-8l-47 -4l164 -230l168 230l-57 4v8h130v-8l-54 -4l-178 -243q79 -112 139 -196t79 -111z" />
    <glyph glyph-name="Y" unicode="Y" horiz-adv-x="551" 
d="M422 574h129v-8l-54 -4l-197 -327v-223l68 -4v-8h-190v8l68 4v221l-198 329l-48 4v8h158v-8l-48 -4l184 -308l186 308l-58 4v8z" />
    <glyph glyph-name="Z" unicode="Z" horiz-adv-x="542" 
d="M499 161l9 -1l-24 -160h-456v4l418 558h-203q-58 0 -85.5 -5t-42 -19.5t-24.5 -46.5l-23 -78l-9 1l24 160h431v-4l-418 -558h228q58 0 85.5 5t42 19.5t24.5 46.5z" />
    <glyph glyph-name="bracketleft" unicode="[" horiz-adv-x="244" 
d="M100 637h114v-15h-98v-786h98v-15h-114v816z" />
    <glyph glyph-name="backslash" unicode="\" horiz-adv-x="346" 
d="M346 0l-15 -8l-331 613l16 7z" />
    <glyph glyph-name="bracketright" unicode="]" horiz-adv-x="244" 
d="M128 -164v786h-98v15h114v-816h-114v15h98z" />
    <glyph glyph-name="asciicircum" unicode="^" horiz-adv-x="406" 
d="M25 228l178 375l178 -375h-17l-161 342l-162 -342h-16z" />
    <glyph glyph-name="underscore" unicode="_" horiz-adv-x="377" 
d="M26 0h326v-15h-326v15z" />
    <glyph glyph-name="grave" unicode="`" horiz-adv-x="209" 
d="M187 439h-6l-162 159h61z" />
    <glyph glyph-name="a" unicode="a" horiz-adv-x="376" 
d="M368 25l-75 -34q-28 21 -28 88q-13 -37 -45.5 -63t-76.5 -26q-48 0 -80.5 25t-32.5 66q0 34 34.5 61.5t102.5 59.5q38 18 61 33t39 35q-1 47 -24.5 72t-64.5 25q-53 0 -80 -39t-24 -94h-2l-33 16q0 33 23 63.5t61 49.5t80 19q52 0 82 -28.5t28 -88.5q-3 -87 -3 -152
q0 -36 3 -61.5t14 -35.5l38 16zM267 255q-27 -30 -88 -59q-50 -24 -73.5 -47t-23.5 -54q0 -34 22.5 -55t57.5 -21q40 0 70.5 25t31.5 61z" />
    <glyph glyph-name="b" unicode="b" horiz-adv-x="426" 
d="M315.5 357q37.5 -23 59 -65t21.5 -96q0 -59 -27.5 -106t-72.5 -73.5t-93 -26.5q-67 0 -107 25l-35 -25v624l-51 -13v10l95 25h2v-326q21 30 55 50t70 20q46 0 83.5 -23zM280 23.5q32 21.5 50 59.5t18 84q0 84 -38 131t-101 47q-27 0 -55.5 -10.5t-46.5 -29.5v-217
q0 -52 28.5 -69t71.5 -17q41 0 73 21.5z" />
    <glyph glyph-name="c" unicode="c" horiz-adv-x="364" 
d="M322 245l-26 63q-13 32 -36 44.5t-56 12.5q-34 0 -64 -16.5t-49.5 -51.5t-19.5 -88q0 -85 42 -131.5t112 -46.5q75 0 114 59l7 -5q-60 -95 -145 -95q-48 0 -87 23.5t-61.5 66t-22.5 96.5q0 69 28.5 115t73.5 67.5t97 21.5q40 0 76 -12l24 -121z" />
    <glyph glyph-name="d" unicode="d" horiz-adv-x="439" 
d="M411 24v-10l-92 -20v66q-21 -30 -55 -50t-70 -20q-46 0 -83.5 23t-59 65t-21.5 96q0 59 28 106t73 73.5t95 26.5q25 0 51 -4t42 -12v250l-51 -13v10l95 25h2v-622zM272.5 35.5q28.5 10.5 46.5 29.5v221q0 43 -27.5 62.5t-72.5 19.5q-41 0 -73 -21.5t-50 -59.5t-18 -84
q0 -84 38 -131t101 -47q27 0 55.5 10.5z" />
    <glyph glyph-name="e" unicode="e" horiz-adv-x="370" 
d="M347 85q-60 -95 -145 -95q-48 0 -87 25t-62 67.5t-23 93.5q0 60 22 106.5t60.5 72t86.5 25.5q58 0 96.5 -34.5t34.5 -93.5h-256q-3 -18 -3 -38q0 -83 43 -133t111 -50q38 0 66 13.5t49 45.5zM114.5 340.5q-29.5 -27.5 -38.5 -76.5h186q15 0 20 4.5t5 17.5q0 32 -23.5 57
t-68.5 25q-51 0 -80.5 -27.5z" />
    <glyph glyph-name="f" unicode="f" horiz-adv-x="245" 
d="M125 331v-320l68 -3v-8h-161v8l47 3v320h-63v7q27 4 45 19.5t18 40.5q0 103 42.5 166t134.5 63q21 0 39 -5l44 -88l-6 -3l-39 38q-18 18 -37 26t-41 8q-47 0 -80 -39t-33 -100q0 -42 24 -100h139l-10 -33h-131z" />
    <glyph glyph-name="g" unicode="g" horiz-adv-x="433" 
d="M361 375q32 11 52 12v-53h-2q-11 7 -29 11t-39 4q-20 0 -43 -5q26 -21 41.5 -49t15.5 -57q0 -36 -22 -69t-57.5 -53t-75.5 -20t-77 21l-55 -92l171 -16q64 -6 96 -13t48 -22.5t16 -44.5q0 -38 -28 -71t-75.5 -52t-103.5 -19q-50 0 -88.5 13.5t-59.5 36.5t-21 49
q0 27 29 54t69 40q-21 8 -42 21.5t-29 18.5l62 104q-31 21 -49 51.5t-18 62.5q0 35 22 68t57.5 53.5t75.5 20.5q51 0 94 -32q33 16 65 27zM279 144.5q23 36.5 23 93.5t-23 93.5t-77 36.5t-77 -36.5t-23 -93.5t23 -93.5t77 -36.5t77 36.5zM167 -31q-22 2 -38 9
q-26 -12 -42.5 -33.5t-16.5 -46.5q0 -47 35.5 -73t102.5 -26q43 0 80 15.5t59 40t22 49.5q0 28 -25 38.5t-89 17.5z" />
    <glyph glyph-name="h" unicode="h" horiz-adv-x="415" 
d="M401 8v-8h-139v8l47 3v205q0 71 -21 100t-75 29q-28 0 -57 -11t-45 -32v-291l46 -3v-8h-139v8l47 3v603l-51 -13v10l95 25h2v-329q19 31 54 52t75 21q115 0 115 -135v-234z" />
    <glyph glyph-name="i" unicode="i" horiz-adv-x="189" 
d="M115.5 558.5q-10.5 -10.5 -25.5 -10.5t-25.5 10.5t-10.5 25.5t10.5 25.5t25.5 10.5t25.5 -10.5t10.5 -25.5t-10.5 -25.5zM161 8v-8h-139v8l47 3v342l-51 -13v10l95 25h2v-364z" />
    <glyph glyph-name="j" unicode="j" horiz-adv-x="191" 
d="M120.5 558.5q-10.5 -10.5 -25.5 -10.5t-25.5 10.5t-10.5 25.5t10.5 25.5t25.5 10.5t25.5 -10.5t10.5 -25.5t-10.5 -25.5zM23 340v10l95 25h2v-355q0 -75 -56 -132.5t-141 -91.5l-3 7q52 25 84 50t51 65t19 102v333z" />
    <glyph glyph-name="k" unicode="k" horiz-adv-x="402" 
d="M157 8v-8h-139v8l47 3v603l-51 -13v10l95 25h2v-625zM328 352l-172 -128l217 -213l34 -3v-8h-92l-203 206l195 146l-62 4v8h147v-8z" />
    <glyph glyph-name="l" unicode="l" horiz-adv-x="189" 
d="M161 8v-8h-139v8l47 3v603l-51 -13v10l95 25h2v-625z" />
    <glyph glyph-name="m" unicode="m" horiz-adv-x="664" 
d="M650 8v-8h-139v8l47 3v205q0 71 -22 100t-76 29q-27 0 -57.5 -12t-48.5 -33q7 -22 7 -55v-234l46 -3v-8h-139v8l47 3v205q0 71 -22 100t-76 29q-28 0 -57 -11t-45 -32v-291l46 -3v-8h-139v8l47 3v342l-51 -13v10l95 25h2v-68q19 31 54 52t75 21q87 0 109 -75q19 31 57 53
t77 22q57 0 87 -34t30 -101v-234z" />
    <glyph glyph-name="n" unicode="n" horiz-adv-x="419" 
d="M405 8v-8h-139v8l47 3v205q0 71 -21 100t-75 29q-28 0 -57 -11t-45 -32v-291l46 -3v-8h-139v8l47 3v342l-51 -13v10l95 25h2v-68q19 31 54 52t75 21q115 0 115 -135v-234z" />
    <glyph glyph-name="o" unicode="o" horiz-adv-x="426" 
d="M56 284.5q26 45.5 68.5 70.5t89.5 25q46 0 88 -24t68 -67.5t26 -98.5q0 -59 -26 -104.5t-68.5 -70.5t-89.5 -25q-46 0 -88 24t-68 67.5t-26 98.5q0 59 26 104.5zM122.5 50q38.5 -48 95.5 -48t90.5 44.5t33.5 131.5q0 94 -38.5 142t-95.5 48t-90.5 -44.5t-33.5 -131.5
q0 -94 38.5 -142z" />
    <glyph glyph-name="p" unicode="p" horiz-adv-x="433" 
d="M322.5 357q37.5 -23 59 -65t21.5 -96q0 -59 -28 -106t-73 -73.5t-95 -26.5q-25 0 -51 4t-42 12v-194l66 -3v-8h-159v8l47 3v541l-51 -13v10l95 25h2v-65q21 30 55 50t70 20q46 0 83.5 -23zM287 23.5q32 21.5 50 59.5t18 84q0 84 -38 131t-101 47q-27 0 -55.5 -10.5
t-46.5 -29.5v-221q0 -43 27.5 -62.5t72.5 -19.5q41 0 73 21.5z" />
    <glyph glyph-name="q" unicode="q" horiz-adv-x="422" 
d="M412 -191v-8h-159v8l66 3v248q-21 -30 -55 -50t-70 -20q-46 0 -83.5 23t-59 65t-21.5 96q0 59 27.5 106t72.5 73.5t93 26.5q67 0 107 -22l35 32v-578zM272.5 35.5q28.5 10.5 46.5 29.5v218q0 85 -100 85q-41 0 -73 -21.5t-50 -59.5t-18 -84q0 -84 38 -131t101 -47
q27 0 55.5 10.5z" />
    <glyph glyph-name="r" unicode="r" horiz-adv-x="282" 
d="M276 262l-7 -2l-17 38q-10 22 -24.5 31.5t-34.5 9.5q-42 0 -78 -44v-284l66 -3v-8h-159v8l47 3v342l-51 -13v10l95 25h2v-76q16 31 52 52.5t71 21.5l12 -1z" />
    <glyph glyph-name="s" unicode="s" horiz-adv-x="335" 
d="M34 123l7 2l29 -62q15 -31 34.5 -45.5t52.5 -14.5q48 0 80.5 21.5t32.5 54.5t-25.5 53t-76.5 37l-37 12q-87 28 -87 99q0 40 34.5 70t93.5 30q53 0 89 -12l27 -121l-7 -2l-29 62q-15 31 -34.5 45.5t-52.5 14.5q-42 0 -66.5 -18t-24.5 -48q0 -29 19 -45t58 -29l34 -11
q62 -20 88 -43t26 -67q0 -50 -40.5 -83t-99.5 -33q-26 0 -53.5 3t-44.5 9z" />
    <glyph glyph-name="t" unicode="t" horiz-adv-x="261" 
d="M82 331h-82l10 33h72v98q26 6 44 25h2v-123h133l-10 -33h-123v-243q0 -42 12.5 -56t38.5 -14q25 0 44 7.5t37 26.5l6 -5q-48 -57 -107 -57q-34 0 -55.5 18.5t-21.5 58.5v264z" />
    <glyph glyph-name="u" unicode="u" horiz-adv-x="425" 
d="M399 24v-10l-92 -20v69q-19 -31 -54 -52t-75 -21q-57 0 -87 34t-30 101v229l-51 -14v10l95 25h2v-221q0 -52 9 -80.5t28 -40t52 -11.5t63.5 12.5t47.5 33.5v286l-51 -14v10l95 25h2v-361z" />
    <glyph glyph-name="v" unicode="v" horiz-adv-x="390" 
d="M201 -5h-18l-136 358l-47 3v8h147v-8l-47 -3l108 -305l114 305l-55 3v8h123v-8l-53 -3z" />
    <glyph glyph-name="w" unicode="w" horiz-adv-x="595" 
d="M595 364v-8l-53 -3l-136 -358h-18l-94 246l-93 -246h-18l-136 358l-47 3v8h147v-8l-47 -3l108 -305l79 213l-39 103h104v-8l-47 -3l108 -305l114 305l-55 3v8h123z" />
    <glyph glyph-name="x" unicode="x" horiz-adv-x="439" 
d="M428 8v-8h-147v8l47 3l-122 154q-46 -56 -80.5 -98.5t-45.5 -55.5l55 -3v-8h-126v8l55 3l134 164l-141 178l-46 3v8h147v-8l-47 -3l114 -144l117 144l-55 3v8h126v-8l-55 -3l-125 -154l149 -188z" />
    <glyph glyph-name="y" unicode="y" horiz-adv-x="413" 
d="M47 353l-47 3v8h147v-8l-47 -3l125 -296l121 296l-55 3v8h123v-8l-53 -3l-181 -444q-22 -55 -55.5 -84t-76.5 -29q-21 0 -33 3l-70 84l5 4l49 -40q18 -15 36.5 -23t33.5 -8q27 0 52.5 24.5t46.5 75.5l33 81z" />
    <glyph glyph-name="z" unicode="z" horiz-adv-x="392" 
d="M354 119h9l-28 -119h-305l259 352h-63q-59 0 -87 -4.5t-43.5 -19t-26.5 -47.5l-12 -36h-9l28 119h275l-258 -352h92q59 0 87 4.5t43.5 19t26.5 47.5z" />
    <glyph glyph-name="braceleft" unicode="{" horiz-adv-x="296" 
d="M104.5 264.5q24.5 14.5 33 38.5t8.5 68v138q0 52 9.5 79.5t32 38t63.5 10.5h15v-15h-17q-37 0 -55.5 -10t-25 -35t-6.5 -74v-84q0 -77 -4.5 -104t-24.5 -48q-29 -29 -79 -32q53 -7 79 -32q20 -21 24.5 -48t4.5 -104v-84q0 -50 6.5 -74.5t25 -35t55.5 -9.5h17v-15h-15
q-41 -1 -63.5 9.5t-32 38t-9.5 80.5v138q0 43 -8.5 67t-33 38.5t-74.5 25.5v9q50 11 74.5 25.5z" />
    <glyph glyph-name="bar" unicode="|" horiz-adv-x="236" 
d="M126 598v-811h-16v811h16z" />
    <glyph glyph-name="braceright" unicode="}" horiz-adv-x="296" 
d="M266 230q-50 -11 -74.5 -25.5t-33 -38.5t-8.5 -67v-138q0 -53 -9.5 -80.5t-32 -38t-63.5 -9.5h-15v15h17q37 -1 55.5 9.5t25 35t6.5 74.5v84q0 77 4.5 104t24.5 48q26 25 79 32q-50 3 -79 32q-20 21 -24.5 48t-4.5 104v84q0 49 -6.5 74t-25 35t-55.5 10h-17v15h15
q41 0 63.5 -10.5t32 -38t9.5 -79.5v-138q0 -44 8.5 -68t33 -38.5t74.5 -25.5v-9z" />
    <glyph glyph-name="asciitilde" unicode="~" horiz-adv-x="504" 
d="M471 226q-7 -46 -35 -71t-71 -25q-27 0 -52 10t-61 30q-38 20 -62.5 30t-52.5 10q-73 0 -89 -80h-16q7 45 35 70.5t70 25.5q31 0 58.5 -10.5t64.5 -31.5q37 -20 59 -29t46 -9q38 0 60.5 21t29.5 59h16z" />
    <glyph glyph-name="exclamdown" unicode="&#xa1;" horiz-adv-x="246" 
d="M92.5 367.5q12.5 12.5 30.5 12.5t30.5 -12.5t12.5 -30.5t-12.5 -30.5t-30.5 -12.5t-30.5 12.5t-12.5 30.5t12.5 30.5zM104 -37q6 52 8 81t3 78q0 13 2 77h13q2 -64 2 -77q1 -49 3 -78t8 -81q5 -44 7 -163q-17 -5 -26 -5t-27 5q2 119 7 163z" />
    <glyph glyph-name="cent" unicode="&#xa2;" horiz-adv-x="364" 
d="M346 85q-60 -95 -145 -95q-30 0 -57 9l-19 -72l-13 2l20 75q-47 21 -74.5 66t-27.5 106q0 69 28.5 115t73.5 67.5t97 21.5h4l17 62l12 -2l-16 -61q28 -1 59 -11l24 -121l-7 -2l-26 63q-17 42 -55 53l-84 -316q31 -14 68 -14q75 0 114 59zM90.5 112q19.5 -40 54.5 -61
l84 312q-16 2 -25 2q-34 0 -64 -16.5t-49.5 -51.5t-19.5 -88q0 -57 19.5 -97z" />
    <glyph glyph-name="sterling" unicode="&#xa3;" horiz-adv-x="515" 
d="M484 122q-26 -63 -54.5 -98.5t-74.5 -35.5q-30 0 -59.5 19.5t-66.5 55.5q-51 -72 -122 -72q-41 0 -66.5 24.5t-25.5 59.5q0 40 27.5 65.5t73.5 25.5q34 0 61.5 -15.5t63.5 -45.5q16 30 16 64q0 33 -13.5 59t-38.5 51h-140v12h128l-21 19q-36 32 -54.5 56t-18.5 55
q0 46 34.5 83.5t90.5 58.5t119 21q40 0 76 -12l31 -153l-8 -2l-28 75q-16 43 -43 58.5t-72 15.5q-37 0 -71.5 -12.5t-57 -37.5t-22.5 -60q0 -28 13 -50t41 -55q3 -4 18.5 -22t26.5 -38h180v-12h-173q18 -36 18 -79q0 -56 -23 -102q37 -31 63 -46t58 -15q36 0 61.5 21
t46.5 67zM170.5 21q26.5 18 50.5 50q-40 38 -68 57.5t-57 19.5q-31 0 -49 -20.5t-18 -52.5q0 -30 22.5 -51t55.5 -21q37 0 63.5 18z" />
    <glyph glyph-name="currency" unicode="&#xa4;" horiz-adv-x="572" 
d="M455.5 123.5q-12.5 -31.5 -34.5 -55.5l59 -59l-12 -12l-58 59q-25 -23 -57.5 -35.5t-67.5 -12.5t-66.5 12.5t-55.5 35.5l-58 -59l-12 12l58 58q-47 53 -47 122q0 71 46 123l-58 58l12 12l57 -58q54 49 124 49q36 0 68.5 -13t57.5 -37l58 59l12 -12l-59 -59
q22 -24 34 -55.5t12 -66.5q0 -34 -12.5 -65.5zM369 46.5q38 22.5 60 60.5t22 82q0 45 -22 84t-60 62t-84 23q-45 0 -83 -23t-59.5 -62t-21.5 -84q0 -44 21.5 -82t59.5 -60.5t84 -22.5q45 0 83 22.5z" />
    <glyph glyph-name="yen" unicode="&#xa5;" horiz-adv-x="551" 
d="M551 574v-8l-54 -4l-192 -318h131v-12h-136v-69h136v-12h-136v-139l68 -4v-8h-190v8l68 4v139h-136v12h136v69h-136v12h129l-191 318l-48 4v8h158v-8l-48 -4l184 -308l186 308l-58 4v8h129z" />
    <glyph glyph-name="brokenbar" unicode="&#xa6;" horiz-adv-x="236" 
d="M110 598h16v-320h-16v320zM110 171h16v-320h-16v320z" />
    <glyph glyph-name="section" unicode="&#xa7;" horiz-adv-x="465" 
d="M283 -48.5q-14 22.5 -43 55.5l-111 124q-51 57 -51 138q0 79 32.5 151.5t83 117t101.5 44.5q7 0 19 -2l51 -133l-7 -3l-38 57q-15 23 -32.5 32.5t-40.5 9.5q-32 0 -59 -24.5t-27 -53.5q0 -41 60 -106l100 -114q63 -70 63 -159q0 -81 -32 -145t-85.5 -100t-114.5 -36
q-13 0 -20 1l-51 134l7 4l35 -57q17 -27 37.5 -38t49.5 -11q35 0 61 20t26 46q0 25 -14 47.5zM365 55q0 66 -61 135l-84 95l-18 20q-35 38 -53.5 64.5t-21.5 53.5h-3q-25 -53 -25 -115q0 -32 16.5 -67.5t44.5 -67.5l84 -94q41 -45 64 -77t28 -62h3q26 52 26 115z" />
    <glyph glyph-name="dieresis" unicode="&#xa8;" horiz-adv-x="383" 
d="M115.5 498.5q-10.5 -10.5 -25.5 -10.5t-25.5 10.5t-10.5 25.5t10.5 25.5t25.5 10.5t25.5 -10.5t10.5 -25.5t-10.5 -25.5zM285.5 498.5q-10.5 -10.5 -25.5 -10.5t-25.5 10.5t-10.5 25.5t10.5 25.5t25.5 10.5t25.5 -10.5t10.5 -25.5t-10.5 -25.5z" />
    <glyph glyph-name="copyright" unicode="&#xa9;" horiz-adv-x="713" 
d="M207.5 29q-67.5 39 -107.5 107t-40 151q0 82 40 149.5t107.5 106.5t148.5 39q82 0 150 -38.5t107.5 -106.5t39.5 -150q0 -83 -39.5 -151t-107.5 -107t-150 -39q-81 0 -148.5 39zM215 530q-64 -37 -101.5 -101t-37.5 -142q0 -79 37.5 -143.5t101.5 -101.5t141 -37t141 37
t101.5 101.5t37.5 143.5q0 78 -37.5 142t-101.5 101t-141 37t-141 -37zM458 130.5q-42 -31.5 -102 -31.5q-50 0 -87.5 25t-57.5 67.5t-20 95.5q0 81 44.5 133.5t121.5 52.5q58 0 100 -31.5t53 -91.5h-15q-11 56 -48 83t-91 27q-68 0 -108.5 -47.5t-40.5 -125.5
q0 -79 40.5 -127t107.5 -48q55 0 92.5 27t48.5 84h15q-11 -61 -53 -92.5z" />
    <glyph glyph-name="guillemotleft" unicode="&#xab;" horiz-adv-x="346" 
d="M175 377l11 -9l-154 -185l154 -185l-11 -9l-161 194zM315 377l11 -9l-154 -185l154 -185l-11 -9l-161 194z" />
    <glyph glyph-name="logicalnot" unicode="&#xac;" horiz-adv-x="542" 
d="M445 200v-200h16v215h-426v-15h410z" />
    <glyph glyph-name="registered" unicode="&#xae;" horiz-adv-x="713" 
d="M506 543.5q68 -38.5 107.5 -106.5t39.5 -150q0 -83 -39.5 -151t-107.5 -107t-150 -39q-81 0 -148.5 39t-107.5 107t-40 151q0 82 40 149.5t107.5 106.5t148.5 39q82 0 150 -38.5zM497 42q64 37 101.5 101.5t37.5 143.5q0 78 -37.5 142t-101.5 101t-141 37t-141 -37
t-101.5 -101t-37.5 -142q0 -79 37.5 -143.5t101.5 -101.5t141 -37t141 37zM476 309.5q-21 -21.5 -62 -27.5l89 -178h-18l-88 176q-12 -2 -40 -2h-96v-174h-16v365h112q71 0 105.5 -19.5t34.5 -75.5q0 -43 -21 -64.5zM422 298q27 5 43.5 22.5t16.5 53.5q0 35 -16.5 52.5
t-43.5 22.5t-70 5h-91v-161h91q43 0 70 5z" />
    <glyph glyph-name="degree" unicode="&#xb0;" horiz-adv-x="340" 
d="M260 575q37 -36 37 -88t-37 -88t-90 -36t-90 36t-37 88t37 88t90 36t90 -36zM253.5 406.5q29.5 31.5 29.5 80.5t-31 80.5t-82 31.5q-48 0 -80.5 -31.5t-32.5 -80.5q0 -46 30.5 -79t82.5 -33q54 0 83.5 31.5z" />
    <glyph glyph-name="plusminus" unicode="&#xb1;" horiz-adv-x="468" 
d="M241 60h-16v145h-185v15h185v145h16v-145h187v-15h-187v-145zM428 15v-15h-388v15h388z" />
    <glyph glyph-name="acute" unicode="&#xb4;" horiz-adv-x="209" 
d="M22 439l107 159h61l-162 -159h-6z" />
    <glyph glyph-name="paragraph" unicode="&#xb6;" horiz-adv-x="556" 
d="M50 297q-30 44 -30 100q0 51 25.5 92.5t69.5 60.5q35 16 67 20t82 4h262v-15h-79v-674h-16v674h-165v-674h-16v330q-36 1 -65 5t-60 16q-45 17 -75 61z" />
    <glyph glyph-name="periodcentered" unicode="&#xb7;" horiz-adv-x="192" 
d="M126.5 226.5q12.5 -12.5 12.5 -30.5t-12.5 -30.5t-30.5 -12.5t-30.5 12.5t-12.5 30.5t12.5 30.5t30.5 12.5t30.5 -12.5z" />
    <glyph glyph-name="cedilla" unicode="&#xb8;" horiz-adv-x="280" 
d="M107 -69q30 19 65 19q28 0 46.5 -15.5t18.5 -39.5q0 -45 -54.5 -72t-119.5 -31l-1 10q69 8 103 31t34 56q0 18 -12 30t-36 12q-30 0 -53 -16l-7 14l63 71h14z" />
    <glyph glyph-name="guillemotright" unicode="&#xbb;" horiz-adv-x="346" 
d="M174 183l-154 185l11 9l161 -194l-161 -194l-11 9zM314 183l-154 185l11 9l161 -194l-161 -194l-11 9z" />
    <glyph glyph-name="questiondown" unicode="&#xbf;" horiz-adv-x="403" 
d="M219.5 367.5q12.5 12.5 30.5 12.5t30.5 -12.5t12.5 -30.5t-12.5 -30.5t-30.5 -12.5t-30.5 12.5t-12.5 30.5t12.5 30.5zM61 31.5q30 23.5 98 36.5l31 6q36 7 47.5 18.5t13.5 38.5l2 68h11l17 -96q1 -5 1 -14q0 -25 -16 -38t-48 -19l-55 -11q-56 -11 -77.5 -29.5
t-21.5 -54.5q0 -37 23.5 -65.5t60 -44t71.5 -15.5q33 0 54.5 11.5t35.5 43.5l28 63l7 -2l-24 -121q-36 -12 -76 -12q-60 0 -109 21.5t-76.5 58.5t-27.5 83q0 50 30 73.5z" />
    <glyph glyph-name="Agrave" unicode="&#xc0;" horiz-adv-x="535" 
d="M535 8v-8h-151v8l48 4l-76 218h-209l-77 -218l58 -4v-8h-128v8l54 4l199 562h39l196 -562zM340 275l-88 252l-89 -252h177zM365 609h-6l-202 129h78z" />
    <glyph glyph-name="Aacute" unicode="&#xc1;" horiz-adv-x="535" 
d="M535 8v-8h-151v8l48 4l-76 218h-209l-77 -218l58 -4v-8h-128v8l54 4l199 562h39l196 -562zM340 275l-88 252l-89 -252h177zM174 609l130 129h78l-202 -129h-6z" />
    <glyph glyph-name="Acircumflex" unicode="&#xc2;" horiz-adv-x="535" 
d="M535 8v-8h-151v8l48 4l-76 218h-209l-77 -218l58 -4v-8h-128v8l54 4l199 562h39l196 -562zM340 275l-88 252l-89 -252h177zM397 609l-125 87l-125 -87h-9l128 129h13l128 -129h-10z" />
    <glyph glyph-name="Atilde" unicode="&#xc3;" horiz-adv-x="535" 
d="M535 8v-8h-151v8l48 4l-76 218h-209l-77 -218l58 -4v-8h-128v8l54 4l199 562h39l196 -562zM340 275l-88 252l-89 -252h177zM158 626h-8q0 51 13 76.5t50 25.5q16 0 31 -8.5t38 -24.5q20 -15 34.5 -23t28.5 -8q22 0 33.5 17t13.5 48h8q0 -51 -13 -76.5t-50 -25.5
q-19 0 -34 8.5t-36 25.5q-20 16 -32.5 23t-27.5 7q-46 0 -49 -65z" />
    <glyph glyph-name="Adieresis" unicode="&#xc4;" horiz-adv-x="535" 
d="M535 8v-8h-151v8l48 4l-76 218h-209l-77 -218l58 -4v-8h-128v8l54 4l199 562h39l196 -562zM340 275l-88 252l-89 -252h177zM202.5 649.5q-10.5 -10.5 -25.5 -10.5t-25.5 10.5t-10.5 25.5t10.5 25.5t25.5 10.5t25.5 -10.5t10.5 -25.5t-10.5 -25.5zM392.5 649.5
q-10.5 -10.5 -25.5 -10.5t-25.5 10.5t-10.5 25.5t10.5 25.5t25.5 10.5t25.5 -10.5t10.5 -25.5t-10.5 -25.5z" />
    <glyph glyph-name="Aring" unicode="&#xc5;" horiz-adv-x="535" 
d="M535 8v-8h-151v8l48 4l-76 218h-209l-77 -218l58 -4v-8h-128v8l54 4l199 562h39l196 -562zM340 275l-88 252l-89 -252h177zM337 627.5q-26 -25.5 -64 -25.5t-64 25.5t-26 62.5t26 62.5t64 25.5t64 -25.5t26 -62.5t-26 -62.5zM324.5 742q-19.5 18 -51.5 18
q-31 0 -50.5 -19t-19.5 -51t19.5 -51t50.5 -19q33 0 52 19t19 51q0 34 -19.5 52z" />
    <glyph glyph-name="AE" unicode="&#xc6;" horiz-adv-x="831" 
d="M801 158l-24 -158h-443v8l58 4v218h-184l-128 -218l58 -4v-8h-129v8l54 4l329 562h339l24 -157l-9 -2l-23 78q-10 32 -24 46t-41.5 18.5t-86.5 4.5h-125v-249h106q37 0 54.5 4t28 22t12.5 59h9v-182h-9q-2 41 -12.5 59t-28 22t-54.5 4h-106v-289h171q59 0 86.5 4.5
t41.5 18.5t24 46l23 78zM392 275v270l-158 -270h158z" />
    <glyph glyph-name="Ccedilla" unicode="&#xc7;" horiz-adv-x="590" 
d="M531 171h9l-31 -153q-33 -13 -79 -20.5t-90 -7.5q-18 0 -27 1l-53 -60q30 19 65 19q28 0 46.5 -15.5t18.5 -39.5q0 -45 -54.5 -72t-119.5 -31l-1 10q69 8 103 31t34 56q0 18 -12 30t-36 12q-30 0 -53 -16l-7 14l56 63q-73 9 -132 48t-93.5 103t-34.5 144q0 88 41 155.5
t111 104.5t156 37q40 0 84 -7.5t77 -20.5l31 -153h-9l-27 74q-19 53 -58 74t-99 21q-114 0 -181 -73.5t-67 -211.5q0 -92 31 -156t85 -96.5t125 -32.5q65 0 105 21t59 74z" />
    <glyph glyph-name="Egrave" unicode="&#xc8;" horiz-adv-x="531" 
d="M492 159l9 -1l-24 -158h-443v8l58 4v550l-58 4v8h397l24 -157l-9 -2l-23 78q-10 32 -24 46t-41.5 18.5t-86.5 4.5h-125v-249h106q37 0 54.5 4t28 22t12.5 59h9v-182h-9q-2 41 -12.5 59t-28 22t-54.5 4h-106v-289h171q59 0 86.5 4.5t41.5 18.5t24 46zM308 609h-6l-202 129
h78z" />
    <glyph glyph-name="Eacute" unicode="&#xc9;" horiz-adv-x="531" 
d="M492 159l9 -1l-24 -158h-443v8l58 4v550l-58 4v8h397l24 -157l-9 -2l-23 78q-10 32 -24 46t-41.5 18.5t-86.5 4.5h-125v-249h106q37 0 54.5 4t28 22t12.5 59h9v-182h-9q-2 41 -12.5 59t-28 22t-54.5 4h-106v-289h171q59 0 86.5 4.5t41.5 18.5t24 46zM226 609l130 129h78
l-202 -129h-6z" />
    <glyph glyph-name="Ecircumflex" unicode="&#xca;" horiz-adv-x="531" 
d="M492 159l9 -1l-24 -158h-443v8l58 4v550l-58 4v8h397l24 -157l-9 -2l-23 78q-10 32 -24 46t-41.5 18.5t-86.5 4.5h-125v-249h106q37 0 54.5 4t28 22t12.5 59h9v-182h-9q-2 41 -12.5 59t-28 22t-54.5 4h-106v-289h171q59 0 86.5 4.5t41.5 18.5t24 46zM381 609l-125 87
l-125 -87h-9l128 129h13l128 -129h-10z" />
    <glyph glyph-name="Edieresis" unicode="&#xcb;" horiz-adv-x="531" 
d="M492 159l9 -1l-24 -158h-443v8l58 4v550l-58 4v8h397l24 -157l-9 -2l-23 78q-10 32 -24 46t-41.5 18.5t-86.5 4.5h-125v-249h106q37 0 54.5 4t28 22t12.5 59h9v-182h-9q-2 41 -12.5 59t-28 22t-54.5 4h-106v-289h171q59 0 86.5 4.5t41.5 18.5t24 46zM191.5 649.5
q-10.5 -10.5 -25.5 -10.5t-25.5 10.5t-10.5 25.5t10.5 25.5t25.5 10.5t25.5 -10.5t10.5 -25.5t-10.5 -25.5zM381.5 649.5q-10.5 -10.5 -25.5 -10.5t-25.5 10.5t-10.5 25.5t10.5 25.5t25.5 10.5t25.5 -10.5t10.5 -25.5t-10.5 -25.5z" />
    <glyph glyph-name="Igrave" unicode="&#xcc;" horiz-adv-x="238" 
d="M204 0h-170v8l58 4v550l-58 4v8h170v-8l-58 -4v-550l58 -4v-8zM208 609h-6l-202 129h78z" />
    <glyph glyph-name="Iacute" unicode="&#xcd;" horiz-adv-x="238" 
d="M204 0h-170v8l58 4v550l-58 4v8h170v-8l-58 -4v-550l58 -4v-8zM42 609l130 129h78l-202 -129h-6z" />
    <glyph glyph-name="Icircumflex" unicode="&#xce;" horiz-adv-x="238" 
d="M204 0h-170v8l58 4v550l-58 4v8h170v-8l-58 -4v-550l58 -4v-8zM244 609l-125 87l-125 -87h-9l128 129h13l128 -129h-10z" />
    <glyph glyph-name="Idieresis" unicode="&#xcf;" horiz-adv-x="238" 
d="M204 0h-170v8l58 4v550l-58 4v8h170v-8l-58 -4v-550l58 -4v-8zM49.5 649.5q-10.5 -10.5 -25.5 -10.5t-25.5 10.5t-10.5 25.5t10.5 25.5t25.5 10.5t25.5 -10.5t10.5 -25.5t-10.5 -25.5zM239.5 649.5q-10.5 -10.5 -25.5 -10.5t-25.5 10.5t-10.5 25.5t10.5 25.5t25.5 10.5
t25.5 -10.5t10.5 -25.5t-10.5 -25.5z" />
    <glyph glyph-name="Eth" unicode="&#xd0;" horiz-adv-x="604" 
d="M393.5 544q77.5 -30 124 -94t46.5 -161t-46 -162t-123.5 -96t-174.5 -31h-186v8l58 4v288h-78v14h78v248l-58 4v8h187q95 0 172.5 -30zM433 83.5q72 71.5 72 205.5q0 133 -73 203t-210 70h-76v-248h118v-14h-118v-288h78q137 0 209 71.5z" />
    <glyph glyph-name="Ntilde" unicode="&#xd1;" horiz-adv-x="592" 
d="M107 12l57 -4v-8h-130v8l58 4v550l-58 4v8h108l358 -520v508l-58 4v8h130v-8l-58 -4v-562h-44l-363 545v-533zM204 626h-8q0 51 13 76.5t50 25.5q16 0 31 -8.5t38 -24.5q20 -15 34.5 -23t28.5 -8q22 0 33.5 17t13.5 48h8q0 -51 -13 -76.5t-50 -25.5q-19 0 -34 8.5
t-36 25.5q-20 16 -32.5 23t-27.5 7q-46 0 -49 -65z" />
    <glyph glyph-name="Ograve" unicode="&#xd2;" horiz-adv-x="658" 
d="M578.5 132.5q-39.5 -67.5 -106 -105t-143.5 -37.5t-143.5 37.5t-106 105t-39.5 154.5t39.5 155t106 105t143.5 37t143.5 -37t106 -105t39.5 -155t-39.5 -154.5zM529 443q-30 64 -82 96.5t-118 32.5t-118 -32.5t-82 -96.5t-30 -156q0 -91 30 -155.5t82 -97t118 -32.5
t118 32.5t82 97t30 155.5q0 92 -30 156zM378 609h-6l-202 129h78z" />
    <glyph glyph-name="Oacute" unicode="&#xd3;" horiz-adv-x="658" 
d="M578.5 132.5q-39.5 -67.5 -106 -105t-143.5 -37.5t-143.5 37.5t-106 105t-39.5 154.5t39.5 155t106 105t143.5 37t143.5 -37t106 -105t39.5 -155t-39.5 -154.5zM529 443q-30 64 -82 96.5t-118 32.5t-118 -32.5t-82 -96.5t-30 -156q0 -91 30 -155.5t82 -97t118 -32.5
t118 32.5t82 97t30 155.5q0 92 -30 156zM282 609l130 129h78l-202 -129h-6z" />
    <glyph glyph-name="Ocircumflex" unicode="&#xd4;" horiz-adv-x="658" 
d="M578.5 132.5q-39.5 -67.5 -106 -105t-143.5 -37.5t-143.5 37.5t-106 105t-39.5 154.5t39.5 155t106 105t143.5 37t143.5 -37t106 -105t39.5 -155t-39.5 -154.5zM529 443q-30 64 -82 96.5t-118 32.5t-118 -32.5t-82 -96.5t-30 -156q0 -91 30 -155.5t82 -97t118 -32.5
t118 32.5t82 97t30 155.5q0 92 -30 156zM454 609l-125 87l-125 -87h-9l128 129h13l128 -129h-10z" />
    <glyph glyph-name="Otilde" unicode="&#xd5;" horiz-adv-x="658" 
d="M578.5 132.5q-39.5 -67.5 -106 -105t-143.5 -37.5t-143.5 37.5t-106 105t-39.5 154.5t39.5 155t106 105t143.5 37t143.5 -37t106 -105t39.5 -155t-39.5 -154.5zM529 443q-30 64 -82 96.5t-118 32.5t-118 -32.5t-82 -96.5t-30 -156q0 -91 30 -155.5t82 -97t118 -32.5
t118 32.5t82 97t30 155.5q0 92 -30 156zM208 626h-8q0 51 13 76.5t50 25.5q16 0 31 -8.5t38 -24.5q20 -15 34.5 -23t28.5 -8q22 0 33.5 17t13.5 48h8q0 -51 -13 -76.5t-50 -25.5q-19 0 -34 8.5t-36 25.5q-20 16 -32.5 23t-27.5 7q-46 0 -49 -65z" />
    <glyph glyph-name="Odieresis" unicode="&#xd6;" horiz-adv-x="658" 
d="M259.5 649.5q-10.5 -10.5 -25.5 -10.5t-25.5 10.5t-10.5 25.5t10.5 25.5t25.5 10.5t25.5 -10.5t10.5 -25.5t-10.5 -25.5zM449.5 649.5q-10.5 -10.5 -25.5 -10.5t-25.5 10.5t-10.5 25.5t10.5 25.5t25.5 10.5t25.5 -10.5t10.5 -25.5t-10.5 -25.5zM578.5 132.5
q-39.5 -67.5 -106 -105t-143.5 -37.5t-143.5 37.5t-106 105t-39.5 154.5t39.5 155t106 105t143.5 37t143.5 -37t106 -105t39.5 -155t-39.5 -154.5zM529 443q-30 64 -82 96.5t-118 32.5t-118 -32.5t-82 -96.5t-30 -156q0 -91 30 -155.5t82 -97t118 -32.5t118 32.5t82 97
t30 155.5q0 92 -30 156z" />
    <glyph glyph-name="multiply" unicode="&#xd7;" horiz-adv-x="391" 
d="M207 184l138 -139l-11 -12l-139 139l-139 -139l-11 10l139 140l-139 139l11 12l140 -140l139 140l11 -11z" />
    <glyph glyph-name="Oslash" unicode="&#xd8;" horiz-adv-x="658" 
d="M583 433q35 -65 35 -146q0 -87 -39.5 -154.5t-106 -105t-143.5 -37.5q-87 0 -158 46l-53 -84l-13 9l53 84q-54 40 -86 102.5t-32 139.5q0 87 39.5 155t106 105t143.5 37t146 -39l49 78l14 -8l-49 -78q59 -39 94 -104zM172 67l292 461q-58 44 -135 44q-66 0 -118 -32.5
t-82 -96.5t-30 -156q0 -142 73 -220zM447 34.5q52 32.5 82 97t30 155.5q0 77 -22 135.5t-61 94.5l-292 -461q59 -54 145 -54q66 0 118 32.5z" />
    <glyph glyph-name="Ugrave" unicode="&#xd9;" horiz-adv-x="569" 
d="M447.5 43q-53.5 -53 -157.5 -53q-108 0 -158.5 52t-50.5 175v345l-58 4v8h169v-8l-57 -4v-353q0 -106 37.5 -153t131.5 -47q86 0 134.5 46.5t48.5 154.5v352l-58 4v8h130v-8l-58 -4v-339q0 -127 -53.5 -180zM354 609h-6l-202 129h78z" />
    <glyph glyph-name="Uacute" unicode="&#xda;" horiz-adv-x="569" 
d="M447.5 43q-53.5 -53 -157.5 -53q-108 0 -158.5 52t-50.5 175v345l-58 4v8h169v-8l-57 -4v-353q0 -106 37.5 -153t131.5 -47q86 0 134.5 46.5t48.5 154.5v352l-58 4v8h130v-8l-58 -4v-339q0 -127 -53.5 -180zM282 609l130 129h78l-202 -129h-6z" />
    <glyph glyph-name="Ucircumflex" unicode="&#xdb;" horiz-adv-x="569" 
d="M447.5 43q-53.5 -53 -157.5 -53q-108 0 -158.5 52t-50.5 175v345l-58 4v8h169v-8l-57 -4v-353q0 -106 37.5 -153t131.5 -47q86 0 134.5 46.5t48.5 154.5v352l-58 4v8h130v-8l-58 -4v-339q0 -127 -53.5 -180zM434 609l-125 87l-125 -87h-9l128 129h13l128 -129h-10z" />
    <glyph glyph-name="Udieresis" unicode="&#xdc;" horiz-adv-x="569" 
d="M447.5 43q-53.5 -53 -157.5 -53q-108 0 -158.5 52t-50.5 175v345l-58 4v8h169v-8l-57 -4v-353q0 -106 37.5 -153t131.5 -47q86 0 134.5 46.5t48.5 154.5v352l-58 4v8h130v-8l-58 -4v-339q0 -127 -53.5 -180zM236.5 649.5q-10.5 -10.5 -25.5 -10.5t-25.5 10.5t-10.5 25.5
t10.5 25.5t25.5 10.5t25.5 -10.5t10.5 -25.5t-10.5 -25.5zM426.5 649.5q-10.5 -10.5 -25.5 -10.5t-25.5 10.5t-10.5 25.5t10.5 25.5t25.5 10.5t25.5 -10.5t10.5 -25.5t-10.5 -25.5z" />
    <glyph glyph-name="Yacute" unicode="&#xdd;" horiz-adv-x="551" 
d="M422 574h129v-8l-54 -4l-197 -327v-223l68 -4v-8h-190v8l68 4v221l-198 329l-48 4v8h158v-8l-48 -4l184 -308l186 308l-58 4v8zM262 609l130 129h78l-202 -129h-6z" />
    <glyph glyph-name="Thorn" unicode="&#xde;" horiz-adv-x="469" 
d="M211 454q117 0 182.5 -38t65.5 -115q0 -78 -65.5 -116t-182.5 -38h-65v-135l74 -4v-8h-186v8l58 4v550l-58 4v8h170v-8l-58 -4v-108h65zM213 159q97 0 142 34t45 108q0 73 -45 107t-142 34h-67v-283h67z" />
    <glyph glyph-name="germandbls" unicode="&#xdf;" horiz-adv-x="467" 
d="M421.5 210q-20.5 34 -70.5 68l-19 13q-42 29 -59.5 50t-17.5 38q0 20 28 41l26 21q67 51 67 96q0 39 -34 66t-94 27q-86 0 -132.5 -66.5t-46.5 -168.5v-37l-47 -6v-8h47v-333l-47 -3v-8h93v445q0 89 34 131.5t84 42.5q45 0 72 -22.5t27 -59.5q0 -30 -11.5 -57t-47.5 -55
q-27 -20 -40.5 -37t-13.5 -38q0 -27 20.5 -48.5t67.5 -53.5l19 -13q37 -25 56.5 -52t19.5 -62q0 -47 -27.5 -83t-81.5 -36q-34 0 -55.5 11t-38.5 39l-25 41l-7 -3l22 -91q41 -9 85 -9q42 0 81 19t63 52t24 72q0 43 -20.5 77z" />
    <glyph glyph-name="agrave" unicode="&#xe0;" horiz-adv-x="376" 
d="M368 25l-75 -34q-28 21 -28 88q-13 -37 -45.5 -63t-76.5 -26q-48 0 -80.5 25t-32.5 66q0 34 34.5 61.5t102.5 59.5q38 18 61 33t39 35q-1 47 -24.5 72t-64.5 25q-53 0 -80 -39t-24 -94h-2l-33 16q0 33 23 63.5t61 49.5t80 19q52 0 82 -28.5t28 -88.5q-3 -87 -3 -152
q0 -36 3 -61.5t14 -35.5l38 16zM267 255q-27 -30 -88 -59q-50 -24 -73.5 -47t-23.5 -54q0 -34 22.5 -55t57.5 -21q40 0 70.5 25t31.5 61zM217 439h-6l-162 159h61z" />
    <glyph glyph-name="aacute" unicode="&#xe1;" horiz-adv-x="376" 
d="M368 25l-75 -34q-28 21 -28 88q-13 -37 -45.5 -63t-76.5 -26q-48 0 -80.5 25t-32.5 66q0 34 34.5 61.5t102.5 59.5q38 18 61 33t39 35q-1 47 -24.5 72t-64.5 25q-53 0 -80 -39t-24 -94h-2l-33 16q0 33 23 63.5t61 49.5t80 19q52 0 82 -28.5t28 -88.5q-3 -87 -3 -152
q0 -36 3 -61.5t14 -35.5l38 16zM267 255q-27 -30 -88 -59q-50 -24 -73.5 -47t-23.5 -54q0 -34 22.5 -55t57.5 -21q40 0 70.5 25t31.5 61zM151 439l107 159h61l-162 -159h-6z" />
    <glyph glyph-name="acircumflex" unicode="&#xe2;" horiz-adv-x="376" 
d="M368 25l-75 -34q-28 21 -28 88q-13 -37 -45.5 -63t-76.5 -26q-48 0 -80.5 25t-32.5 66q0 34 34.5 61.5t102.5 59.5q38 18 61 33t39 35q-1 47 -24.5 72t-64.5 25q-53 0 -80 -39t-24 -94h-2l-33 16q0 33 23 63.5t61 49.5t80 19q52 0 82 -28.5t28 -88.5q-3 -87 -3 -152
q0 -36 3 -61.5t14 -35.5l38 16zM267 255q-27 -30 -88 -59q-50 -24 -73.5 -47t-23.5 -54q0 -34 22.5 -55t57.5 -21q40 0 70.5 25t31.5 61zM299 439l-115 109l-115 -109h-9l118 159h13l118 -159h-10z" />
    <glyph glyph-name="atilde" unicode="&#xe3;" horiz-adv-x="376" 
d="M368 25l-75 -34q-28 21 -28 88q-13 -37 -45.5 -63t-76.5 -26q-48 0 -80.5 25t-32.5 66q0 34 34.5 61.5t102.5 59.5q38 18 61 33t39 35q-1 47 -24.5 72t-64.5 25q-53 0 -80 -39t-24 -94h-2l-33 16q0 33 23 63.5t61 49.5t80 19q52 0 82 -28.5t28 -88.5q-3 -87 -3 -152
q0 -36 3 -61.5t14 -35.5l38 16zM267 255q-27 -30 -88 -59q-50 -24 -73.5 -47t-23.5 -54q0 -34 22.5 -55t57.5 -21q40 0 70.5 25t31.5 61zM66 469h-8q0 51 13 76.5t50 25.5q16 0 31 -8.5t38 -24.5q20 -15 34.5 -23t28.5 -8q22 0 33.5 17t13.5 48h8q0 -51 -13 -76.5t-50 -25.5
q-19 0 -34 8.5t-36 25.5q-20 16 -32.5 23t-27.5 7q-46 0 -49 -65z" />
    <glyph glyph-name="adieresis" unicode="&#xe4;" horiz-adv-x="376" 
d="M368 25l-75 -34q-28 21 -28 88q-13 -37 -45.5 -63t-76.5 -26q-48 0 -80.5 25t-32.5 66q0 34 34.5 61.5t102.5 59.5q38 18 61 33t39 35q-1 47 -24.5 72t-64.5 25q-53 0 -80 -39t-24 -94h-2l-33 16q0 33 23 63.5t61 49.5t80 19q52 0 82 -28.5t28 -88.5q-3 -87 -3 -152
q0 -36 3 -61.5t14 -35.5l38 16zM267 255q-27 -30 -88 -59q-50 -24 -73.5 -47t-23.5 -54q0 -34 22.5 -55t57.5 -21q40 0 70.5 25t31.5 61zM122.5 498.5q-10.5 -10.5 -25.5 -10.5t-25.5 10.5t-10.5 25.5t10.5 25.5t25.5 10.5t25.5 -10.5t10.5 -25.5t-10.5 -25.5zM292.5 498.5
q-10.5 -10.5 -25.5 -10.5t-25.5 10.5t-10.5 25.5t10.5 25.5t25.5 10.5t25.5 -10.5t10.5 -25.5t-10.5 -25.5z" />
    <glyph glyph-name="aring" unicode="&#xe5;" horiz-adv-x="376" 
d="M368 25l-75 -34q-28 21 -28 88q-13 -37 -45.5 -63t-76.5 -26q-48 0 -80.5 25t-32.5 66q0 34 34.5 61.5t102.5 59.5q38 18 61 33t39 35q-1 47 -24.5 72t-64.5 25q-53 0 -80 -39t-24 -94h-2l-33 16q0 33 23 63.5t61 49.5t80 19q52 0 82 -28.5t28 -88.5q-3 -87 -3 -152
q0 -36 3 -61.5t14 -35.5l38 16zM267 255q-27 -30 -88 -59q-50 -24 -73.5 -47t-23.5 -54q0 -34 22.5 -55t57.5 -21q40 0 70.5 25t31.5 61zM252 455.5q-26 -25.5 -64 -25.5t-64 25.5t-26 62.5t26 62.5t64 25.5t64 -25.5t26 -62.5t-26 -62.5zM239.5 570q-19.5 18 -51.5 18
q-31 0 -50.5 -19t-19.5 -51t19.5 -51t50.5 -19q33 0 52 19t19 51q0 34 -19.5 52z" />
    <glyph glyph-name="ae" unicode="&#xe6;" horiz-adv-x="606" 
d="M339 23.5q-44 33.5 -62 87.5q-12 -57 -49 -89t-85 -32t-80.5 25t-32.5 66q0 34 34.5 61.5t102.5 59.5q38 18 61 33t39 35q-1 46 -25 71.5t-64 25.5q-53 0 -80 -39t-24 -94h-2l-33 16q0 33 23 63.5t61 49.5t80 19q85 0 100 -74q23 35 57 53.5t75 18.5q58 0 96.5 -34.5
t34.5 -93.5h-256q-3 -18 -3 -38q0 -83 43 -133t111 -50q38 0 66 13.5t49 45.5l7 -5q-60 -95 -145 -95q-55 0 -99 33.5zM498 264q15 0 20 4.5t5 17.5q0 32 -23.5 57t-68.5 25q-50 0 -80 -27.5t-39 -76.5h186zM267 255q-27 -30 -88 -59q-50 -24 -73.5 -47t-23.5 -54
q0 -34 22.5 -55t57.5 -21q41 0 71 28t31 78z" />
    <glyph glyph-name="ccedilla" unicode="&#xe7;" horiz-adv-x="364" 
d="M186 -9l-53 -60q30 19 65 19q28 0 46.5 -15.5t18.5 -39.5q0 -45 -54.5 -72t-119.5 -31l-1 10q69 8 103 31t34 56q0 18 -12 30t-36 12q-30 0 -53 -16l-7 14l56 63q-63 10 -103 60t-40 124q0 69 28.5 115t73.5 67.5t97 21.5q40 0 76 -12l24 -121l-7 -2l-26 63
q-13 32 -36 44.5t-56 12.5q-34 0 -64 -16.5t-49.5 -51.5t-19.5 -88q0 -85 42 -131.5t112 -46.5q75 0 114 59l7 -5q-60 -95 -145 -95q-10 0 -15 1z" />
    <glyph glyph-name="egrave" unicode="&#xe8;" horiz-adv-x="370" 
d="M347 85q-60 -95 -145 -95q-48 0 -87 25t-62 67.5t-23 93.5q0 60 22 106.5t60.5 72t86.5 25.5q58 0 96.5 -34.5t34.5 -93.5h-256q-3 -18 -3 -38q0 -83 43 -133t111 -50q38 0 66 13.5t49 45.5zM114.5 340.5q-29.5 -27.5 -38.5 -76.5h186q15 0 20 4.5t5 17.5q0 32 -23.5 57
t-68.5 25q-51 0 -80.5 -27.5zM227 439h-6l-162 159h61z" />
    <glyph glyph-name="eacute" unicode="&#xe9;" horiz-adv-x="370" 
d="M347 85q-60 -95 -145 -95q-48 0 -87 25t-62 67.5t-23 93.5q0 60 22 106.5t60.5 72t86.5 25.5q58 0 96.5 -34.5t34.5 -93.5h-256q-3 -18 -3 -38q0 -83 43 -133t111 -50q38 0 66 13.5t49 45.5zM114.5 340.5q-29.5 -27.5 -38.5 -76.5h186q15 0 20 4.5t5 17.5q0 32 -23.5 57
t-68.5 25q-51 0 -80.5 -27.5zM160 439l107 159h61l-162 -159h-6z" />
    </font>
</defs>
</svg>
