<?xml version="1.0" encoding="utf-8"?>
<!-- Generator: Adobe Illustrator 24.3.0, SVG Export Plug-In . SVG Version: 6.00 Build 0)  -->
<svg version="1.1" id="Layer_1" xmlns="http://www.w3.org/2000/svg" xmlns:xlink="http://www.w3.org/1999/xlink" x="0px" y="0px"
	 viewBox="0 0 24 24" style="enable-background:new 0 0 24 24;" xml:space="preserve">
<style type="text/css">
	.st0{fill:none;}
	.st1{fill:#282A42;}
</style>
<path class="st0" d="M0,0h24v24H0V0z"/>
<path class="st1" d="M8.9,11.4c0.8,0,1.4-0.6,1.4-1.4c0-0.8-0.6-1.4-1.4-1.4H5.8v2.8H8.9z M9.6,12.8H5.8v2.8h3.8
	c0.8,0,1.4-0.6,1.4-1.4C11,13.4,10.3,12.8,9.6,12.8z M11,11.8c1.3,0.8,1.7,2.5,0.9,3.8c-0.5,0.8-1.4,1.3-2.4,1.3H4.4V7.3h4.5
	c1.5,0,2.8,1.2,2.8,2.8C11.7,10.7,11.4,11.3,11,11.8z M14.4,7.9h3.8v1h-3.8V7.9z M19.6,13.8h-5.2V14c0,1,0.8,1.9,1.9,1.9
	c0.7,0,1.4-0.4,1.7-1h1.5c-0.5,1.7-2.3,2.8-4,2.3C14,16.7,13,15.4,13,14v-1c0-1.8,1.5-3.3,3.3-3.3c1.8,0,3.3,1.5,3.3,3.3
	C19.6,12.9,19.6,13.8,19.6,13.8z M18.1,12.4c-0.3-1-1.3-1.6-2.3-1.3c-0.6,0.2-1.1,0.7-1.3,1.3H18.1z"/>
</svg>
