<?xml version="1.0" encoding="utf-8"?>
<!-- Generator: Adobe Illustrator 24.3.0, SVG Export Plug-In . SVG Version: 6.00 Build 0)  -->
<svg version="1.1" id="Layer_1" xmlns="http://www.w3.org/2000/svg" xmlns:xlink="http://www.w3.org/1999/xlink" x="0px" y="0px"
	 viewBox="0 0 24 24" style="enable-background:new 0 0 24 24;" xml:space="preserve">
<style type="text/css">
	.st0{fill:none;}
	.st1{fill:#1A1346;}
</style>
<path class="st0" d="M0,0h24v24H0V0z"/>
<path class="st1" d="M12,10.7c-1.1,0-2.1,0.9-2.1,2.1s0.9,2.1,2.1,2.1s2.1-0.9,2.1-2.1S13.1,10.7,12,10.7z M12,9.3
	c1.9,0,3.4,1.5,3.4,3.4s-1.5,3.4-3.4,3.4s-3.4-1.5-3.4-3.4S10.1,9.3,12,9.3z M16.5,9.2c0,0.5-0.4,0.9-0.9,0.9s-0.9-0.4-0.9-0.9
	s0.4-0.9,0.9-0.9S16.5,8.7,16.5,9.2z M12,7.3c-1.7,0-2,0-2.8,0C8.7,7.3,8.3,7.4,8,7.5C7.7,7.7,7.5,7.8,7.3,8C7,8.2,6.9,8.5,6.8,8.8
	C6.6,9.1,6.6,9.5,6.5,10c0,0.8,0,1,0,2.8c0,1.7,0,2,0,2.8c0,0.5,0.1,0.9,0.2,1.2c0.1,0.3,0.3,0.5,0.5,0.7C7.5,17.7,7.7,17.9,8,18
	c0.3,0.1,0.7,0.2,1.2,0.2c0.8,0,1,0,2.8,0c1.7,0,2,0,2.8,0c0.5,0,0.9-0.1,1.2-0.2c0.3-0.1,0.5-0.3,0.7-0.5c0.2-0.2,0.4-0.4,0.5-0.7
	c0.1-0.3,0.2-0.7,0.2-1.2c0-0.8,0-1,0-2.8c0-1.7,0-2,0-2.8c0-0.5-0.1-0.9-0.2-1.2C17.1,8.5,17,8.2,16.7,8c-0.2-0.2-0.5-0.4-0.7-0.5
	c-0.3-0.1-0.7-0.2-1.2-0.2C14,7.3,13.7,7.3,12,7.3z M12,5.9c1.9,0,2.1,0,2.8,0c0.7,0,1.2,0.1,1.7,0.3c0.5,0.2,0.8,0.4,1.2,0.8
	c0.3,0.3,0.6,0.8,0.8,1.2c0.2,0.4,0.3,0.9,0.3,1.7c0,0.7,0,1,0,2.8s0,2.1,0,2.8c0,0.7-0.1,1.2-0.3,1.7c-0.2,0.5-0.4,0.9-0.8,1.2
	c-0.3,0.3-0.8,0.6-1.2,0.8c-0.4,0.2-0.9,0.3-1.7,0.3c-0.7,0-1,0-2.8,0s-2.1,0-2.8,0c-0.7,0-1.2-0.1-1.7-0.3
	c-0.5-0.2-0.9-0.4-1.2-0.8c-0.3-0.3-0.6-0.8-0.8-1.2c-0.2-0.4-0.3-0.9-0.3-1.7c0-0.7,0-1,0-2.8s0-2.1,0-2.8c0-0.7,0.1-1.2,0.3-1.7
	c0.2-0.5,0.4-0.9,0.8-1.2C6.6,6.7,7,6.4,7.5,6.3C7.9,6.1,8.4,6,9.2,5.9C9.9,5.9,10.1,5.9,12,5.9z"/>
</svg>
