<?xml version="1.0" encoding="utf-8"?>
<!-- Generator: Adobe Illustrator 24.3.0, SVG Export Plug-In . SVG Version: 6.00 Build 0)  -->
<svg version="1.1" id="Layer_1" xmlns="http://www.w3.org/2000/svg" xmlns:xlink="http://www.w3.org/1999/xlink" x="0px" y="0px"
	 viewBox="0 0 24 24" style="enable-background:new 0 0 24 24;" xml:space="preserve">
<style type="text/css">
	.st0{fill:none;}
	.st1{fill:#2E314D;}
</style>
<path class="st0" d="M0,0h24v24H0V0z"/>
<path class="st1" d="M12.1,10.7c0.6-0.5,1.4-0.9,2.4-0.9c2.1,0,3.7,1.4,3.7,3.1v4.2h-1.4v-4.2c0-1.1-1.1-2-2.4-2s-2.4,0.9-2.4,2v4.2
	h-1.4v-7h1.4V10.7z M7.3,9c-0.6,0-1-0.4-1-0.8c0-0.5,0.5-0.8,1-0.8s1,0.4,1,0.8C8.4,8.6,7.9,9,7.3,9z M6.7,10.1H8v7H6.7V10.1z"/>
</svg>
