<?xml version="1.0" encoding="utf-8"?>
<!-- Generator: Adobe Illustrator 24.3.0, SVG Export Plug-In . SVG Version: 6.00 Build 0)  -->
<svg version="1.1" id="Layer_1" xmlns="http://www.w3.org/2000/svg" xmlns:xlink="http://www.w3.org/1999/xlink" x="0px" y="0px"
	 viewBox="0 0 24 24" style="enable-background:new 0 0 24 24;" xml:space="preserve">
<style type="text/css">
	.st0{fill:none;}
	.st1{fill:#373355;}
</style>
<path class="st0" d="M0,0h24v24H0V0z"/>
<path class="st1" d="M9.1,8.1c0,0.6-0.5,1.1-1,1.1c-0.6,0-1-0.5-1-1.1C7,7.5,7.5,7,8.1,7C8.6,7,9.1,7.5,9.1,8.1z M9.1,10.1H7.1V17
	h2.1V10.1z M12.4,10.1h-2.1V17h2.1v-3.6c0-2,2.5-2.2,2.5,0V17H17v-4.4c0-3.4-3.7-3.3-4.6-1.6L12.4,10.1z"/>
</svg>
